<?xml version="1.0" standalone="no"?>
<!DOCTYPE svg PUBLIC "-//W3C//DTD SVG 1.1//EN" "http://www.w3.org/Graphics/SVG/1.1/DTD/svg11.dtd" >
<svg xmlns="http://www.w3.org/2000/svg" xmlns:xlink="http://www.w3.org/1999/xlink" version="1.1">
<metadata>
   Created by FontForge 20170731 at Mon Oct 5 15:13:39 2020
   By Aleksey,,,
   Original Fonts are (c) Bitstream. OpenDyslexic changes and additional glyphs by Abelardo Gonzalez are licensed under
   a Creative Commons Attribution 3.0 Unported License.
   Based on a work at https://dyslexicfonts.com. 2012 by Abelardo Gonzalez. Copying is an act of love. Please copy.
   Bitstream license available here: https://opendyslexic.org/legal/
</metadata>
<defs>
<font id="OpenDyslexic-BoldItalic" horiz-adv-x="1605" >
  <font-face
    font-family="OpenDyslexic"
    font-weight="700"
    font-style="italic"
    font-stretch="normal"
    units-per-em="2048"
    panose-1="0 0 8 0 0 0 0 0 0 0"
    ascent="1638"
    descent="-410"
    x-height="1110"
    cap-height="1487"
    bbox="-174 -1081 2574 2402"
    underline-thickness="102"
    underline-position="-538"
    slope="-12"
    unicode-range="U+0020-FB02"
  />
<missing-glyph horiz-adv-x="1544"
d="M834 1399q260 0 526 41q-149 -927 -158 -1786q-258 37 -506 37q-252 0 -487 -33l-23 23q137 855 152 1759q246 -41 496 -41zM1081 -27q36 697 125 1315q-206 -16 -381 -16q-170 0 -360 16q-27 -659 -109 -1315q197 13 367 13q123 0 180 -2q11 0 178 -11z" />
    <glyph glyph-name="fi" unicode="fi" horiz-adv-x="1484"
d="M1253 1085l-18 23q-237 -12 -461 -12h-149l2 14v14q8 126 47 179q18 24 57 34q32 11 70 11l53 14q39 6 123 29q4 20 4 36l12 91q0 12 4 36l-79 -10q-134 -13 -203 -31q-116 -31 -185 -92q-59 -54 -88 -153q-14 -55 -18 -168q-26 2 -78 5t-78 5l-6 -74q0 -10 -2 -16v-21
q-4 -28 -4 -36q6 0 66.5 -3.5t91.5 -3.5q-53 -532 -121 -933q32 4 59 4l70 6q94 4 131 6q38 454 59 915h76h76h143q95 0 144 2q-58 -492 -78 -925q32 -4 57 -4l66 -7q28 -2 123 -14q-5 102 -5 131v68q-2 20 -2 61q0 331 41 819zM1102 1393l-17 -123l103 6q34 0 92 4
q5 42 8 61q1 13 4 33t4 27q1 4 2 14t2 15l13 67q4 24 4 31q-15 0 -43 -4t-47 -4q-74 -9 -92 -9l-19 -18z" />
    <glyph glyph-name="fl" unicode="fl" horiz-adv-x="1554"
d="M805 1501q-96 0 -154 -16q-85 -27 -149 -88q-19 -26 -31 -49q-21 -46 -31 -111l-14 -98q0 -15 -4 -39q-8 1 -25 2t-24 2q-6 0 -23 1t-28 1l-54 2q-2 -12 -2 -47q-2 -20 -2 -49l-2 -60l146 -6q-50 -484 -136 -928l156 13q24 0 82 4q14 0 37.5 1t34.5 1q19 357 34 905h134
h133l6 74l8 80h-135h-135v41v30q0 21 -2 29q8 90 41 127q37 33 127 33h53q119 0 248 6q-95 -735 -111 -1329q25 -2 78 -5t76 -5q18 -2 50 -5.5t56.5 -6t44.5 -5.5v17v18q-2 6 -2 18v17q0 15 -1 46t-1 48l2 61q-8 0 -16 2h-23q-21 3 -39 3h-10q-8 0 -14 2q19 658 131 1286
q-243 -23 -510 -23z" />
    <glyph glyph-name=".notdef" horiz-adv-x="1544"
d="M834 1399q260 0 526 41q-149 -927 -158 -1786q-258 37 -506 37q-252 0 -487 -33l-23 23q137 855 152 1759q246 -41 496 -41zM1081 -27q36 697 125 1315q-206 -16 -381 -16q-170 0 -360 16q-27 -659 -109 -1315q197 13 367 13q123 0 180 -2q11 0 178 -11z" />
    <glyph glyph-name=".null" horiz-adv-x="0"
 />
    <glyph glyph-name="nonmarkingreturn" horiz-adv-x="682"
 />
    <glyph glyph-name="NULL" horiz-adv-x="600"
 />
    <glyph glyph-name="NULL" horiz-adv-x="600"
 />
    <glyph glyph-name="space" unicode=" " horiz-adv-x="800"
 />
    <glyph glyph-name="exclam" unicode="!" horiz-adv-x="722"
d="M365 1464l-25 -14q-64 -615 -117 -975q89 12 142 12q51 0 133 -12v72v31q0 26 2 40v39v31v74v72q4 32 4 49q4 32 4 47q16 230 45 547q-77 -23 -115 -23q-31 0 -73 10zM246 285l-17 -15q-7 -34 -10 -59q-2 -9 -5 -29t-5 -30v2l-29 -154q87 37 144 37q60 0 131 -35v23v26
v29v20q-2 45 -2 133v48q-69 16 -111 16q-50 0 -96 -12z" />
    <glyph glyph-name="quotedbl" unicode="&#x22;" horiz-adv-x="976"
d="M541 1454l-19 21q-27 0 -41 2q-7 0 -23 1t-24 1l-86 6v-58q0 -269 -63 -536q87 6 108 6q10 1 30.5 2t29.5 2q37 0 51 2q30 250 37 551zM911 1483l-45 -2q-55 -6 -125 -6q-51 -312 -59 -572q12 -2 49 -2q9 -1 28 -2t29 -2q22 0 109 -6q-6 63 -6 158q0 208 43 411z" />
    <glyph glyph-name="numbersign" unicode="#" horiz-adv-x="1562"
d="M1221 1047q129 3 286 10q-5 -26 -16 -111l-8 -59q-27 -1 -80.5 -2t-79.5 -2q-111 0 -164 -2q-10 -34 -24 -74q-27 -84 -45 -143l-25 -76q41 0 59 -2q18 0 64 -1t80 -1h84q0 -6 -1 -19t-1 -22q-1 -8 -2 -22t-2 -21l-5 -82q-18 0 -56.5 1t-59.5 1q-43 2 -117 2q-35 0 -47 2
h-49q-18 -62 -47 -148q-17 -50 -19 -59l-39 -125q-11 -35 -16 -57l-82 2h-94l69 219q2 6 8 21t9 22l12 41q2 6 12 41q0 1 17 45h-123q-19 0 -61.5 -1t-65.5 -1q-52 -155 -133 -361v3l-13 -35l-180 -8q100 238 156 399q-44 0 -146 -4t-143 -4q1 3 2 9.5t2 10.5q0 11 4 27
q0 4 1 12.5t1 13.5q2 8 2 21q2 4 2 16l7 41q2 6 2 17l176 2q92 0 147 2q42 123 99 295q-115 0 -291 4l4 71q4 54 4 97q167 -9 334 -9q33 108 125 388h180q-13 -33 -35.5 -97.5t-34.5 -97.5q-35 -95 -65 -195h63h62q39 0 59 2h64q81 223 151 394q20 0 70 4q29 0 69 4h39
q-102 -246 -155 -399zM991 879h-121h-125q0 -7 -4 -15t-4 -12q-2 -8 -9.5 -32.5t-12.5 -37.5l-43 -127q-3 -13 -11.5 -37t-11.5 -32h88q40 0 58 2h57h43q15 46 33 96q15 50 33 96z" />
    <glyph glyph-name="dollar" unicode="$" horiz-adv-x="1275"
d="M762 1159q-36 -345 -41 -397l-2 -21q77 -13 149 -36q82 -30 133 -76q84 -76 84 -228q0 -76 -34 -145q-36 -73 -95 -123q-116 -80 -282 -90l-2 -96q0 -16 -1 -44t-1 -42q0 -55 -2 -84l-21 -21q-25 2 -88 2h-47h-43l12 62q11 53 11 57l18 109q2 19 10 57q-206 10 -373 78
l13 84l6 41q0 13 4 45l6 47q0 15 4 39q174 -119 365 -125l37 348q-180 37 -265 125q-77 82 -77 240q6 82 53 153q49 78 123 117q106 48 246 59l6 56l6 41q0 11 4 43l6 84h31h28q6 -2 29 -2h31l-25 -220q194 -12 324 -49l-12 -80l-13 -92q-137 74 -315 84zM625 1077
q4 48 8 74q-110 -14 -170 -64q-74 -59 -74 -151q0 -73 66 -125q54 -48 137 -55l12 125q4 41 12 127q6 35 9 69zM696 582l-2 -2zM823 516q-49 41 -129 55q-8 -133 -10 -194l-6 -131q83 14 143 37q34 11 51 49q13 30 13 71q0 64 -62 113z" />
    <glyph glyph-name="percent" unicode="%" horiz-adv-x="2023"
d="M1577 1489l-76 -2q-169 -219 -485 -678q-21 -30 -31 -45q-178 -259 -270 -385q-119 -170 -281 -379h49q45 0 68 2q47 0 67 2q49 64 98.5 130.5t107 148.5t91.5 130t104.5 150.5t92.5 134.5q148 217 281 404q186 256 295 393q-5 0 -24 -1t-32 -1q-10 -2 -33 -2
q-10 -2 -22 -2zM602 1491h-4h-6q-143 0 -225 -98q-51 -62 -70 -148q-16 -71 -16 -160q0 -175 67 -276q40 -61 105 -86q64 -25 135 -25q142 0 237 105q61 67 86 155q27 82 27 170q0 153 -78 246q-88 111 -246 117h-12zM602 1350h10q70 -5 117 -74q39 -59 39 -143
q0 -104 -37 -179q-49 -104 -139 -104q-77 0 -119 76q-31 58 -31 151v13q0 8 2 12v12q0 84 37 154q44 82 121 82zM1526 793q-70 0 -135 -27.5t-111 -81.5v2q-60 -63 -86 -156q-27 -85 -27 -172q0 -153 78 -243h-2q93 -115 268 -115q74 0 123 20q63 25 105 78l-2 -2
q50 61 71 152q19 69 19 160q0 172 -74 276l2 -2q-73 111 -229 111zM1518 651q70 0 110 -67q33 -59 33 -142q0 -100 -31 -168q-40 -96 -127 -96q-77 0 -125 64q-41 52 -41 141q0 101 37 174q50 94 144 94z" />
    <glyph glyph-name="ampersand" unicode="&#x26;" horiz-adv-x="1724"
d="M1458 4l-61 6q-12 1 -36.5 3t-37.5 3q-54 4 -76 4q-57 5 -61 5l-131 143q-204 -160 -473 -160q-100 0 -191 27q-103 31 -160 94q-102 102 -102 272q0 150 82 285q71 125 205 219q-74 126 -74 225q0 76 29 144q34 77 90 119l-2 -2q59 51 141 71q69 19 156 19
q140 0 331 -72q-41 -68 -47 -78q-4 -6 -24 -41l-23 -35q-179 95 -305 95q-88 0 -147 -47q-66 -56 -66 -138q0 -54 41 -116q28 -42 82 -103q172 -184 256 -280l195 -215q80 122 112 358h45h51h54h43l-13 -64q-4 -25 -13.5 -71.5t-12.5 -63.5q-14 -55 -17 -63
q-34 -128 -112 -238l112 -127zM592 213q167 0 313 111q-22 24 -147 170q-52 60 -150 170l-137 157q-92 -85 -129 -155q-53 -89 -53 -193q0 -128 92 -197q81 -63 211 -63z" />
    <glyph glyph-name="quotesingle" unicode="'" horiz-adv-x="559"
d="M532 1462l-22 21q-42 -10 -72 -10q-41 0 -90 20q-7 -148 -18 -289q-13 -129 -31 -286q62 16 100 16q27 0 86 -19q15 267 47 547z" />
    <glyph glyph-name="parenleft" unicode="(" horiz-adv-x="815"
d="M768 1505l-20 31q-100 -14 -140 -14q-172 -207 -272 -398q-122 -217 -158 -442q-8 -101 -8 -225q0 -367 102 -666q112 0 228 -22q-97 265 -113 462q-8 152 -8 228q0 67 4 203v-3q22 211 137 443q90 182 248 403z" />
    <glyph glyph-name="parenright" unicode=")" horiz-adv-x="790"
d="M467 911q0 -147 -10 -252q-36 -217 -156 -450q-93 -189 -266 -434q124 28 256 28q126 189 241 414q130 267 130 635q0 173 -31 348q-28 158 -103 326q-80 6 -159 18l4 -14l-15 2q109 -285 109 -621z" />
    <glyph glyph-name="asterisk" unicode="*" horiz-adv-x="1204"
d="M1137 1221l8 22q-19 44 -21 51q-3 8 -10 24t-10 23l-162 -98q-1 -1 -164 -96q6 70 19 193.5t16 152.5h-131l-16 -199l-13 -147q-4 2 -22 14q-7 7 -23 15q-148 97 -243 163q-19 -22 -23 -30q-8 -12 -8 -15l-4 -6q0 -4 -2 -8l-9 -8q-1 -4 -4.5 -9t-3.5 -6l-10 -16
q-1 -2 -3 -5t-3 -5q139 -93 307 -187q-123 -67 -170 -92q-109 -57 -168 -94q1 -2 5.5 -12t6.5 -17q2 -5 5 -11.5t5 -10.5t3 -8l20 -51l162 96l84 49q5 3 35 21.5t47 27.5q-4 -33 -8 -90q-4 -28 -4 -43l-7 -47q-1 -7 -7 -71.5t-7 -92.5h131q4 96 21 274l6 70l145 -96
q25 -17 75 -50t69 -46q12 18 16 22q1 2 37 62l14 24q-21 14 -45.5 29t-56 34.5t-49.5 30.5l-156 90l16 11q99 52 310 168z" />
    <glyph glyph-name="plus" unicode="+" horiz-adv-x="1513"
d="M721 1024l-25 -291q-336 0 -508 4l-16 -184h66h71h74h66q77 0 116 2h117q-7 -99 -18 -190q-1 -17 -4.5 -50t-4.5 -49q-1 -12 -4.5 -42.5t-5.5 -45.5l-12 -145h182q24 339 39 522h256q42 0 126.5 -1t127.5 -1l14 182q-328 -4 -506 -4q18 226 52 522h-185z" />
    <glyph glyph-name="comma" unicode="," horiz-adv-x="618"
d="M123 240l-12 -189l-25 -59q-8 -23 -27.5 -71.5t-25.5 -63.5q-16 -38 -60 -133q20 4 33 4q25 3 82 8q14 2 33 2q44 52 100 125q4 6 41 53.5t55 71.5l43 59q0 2 17 111q2 10 7.5 51.5t8.5 60.5q-101 -14 -190 -14h-31q-19 0 -29 2z" />
    <glyph glyph-name="hyphen" unicode="-" horiz-adv-x="860"
d="M190 655l-18 -22q4 -20 4 -37q0 -48 -43 -121q85 4 283 8q98 2 280 2q-12 41 -12 62q0 47 43 119l-100 -2l-185 -7q-118 -4 -184 -4h-33q-12 0 -16 2h-19z" />
    <glyph glyph-name="period" unicode="." horiz-adv-x="653"
d="M100 326v-37q0 -131 -30 -281q122 8 161 8q38 0 156 -8v12v19v16q-2 6 -2 15q0 133 35 276q-6 0 -20 -1t-21 -1q-14 -2 -45 -2q-33 -2 -86 -2q-39 0 -125 4z" />
    <glyph glyph-name="slash" unicode="/" horiz-adv-x="835"
d="M721 1444l-16 -12q-13 -27 -43.5 -92.5t-47.5 -102.5q-154 -354 -178 -410q-53 -125 -86 -196q-67 -161 -176 -408q-70 -162 -180 -403q144 19 248 22q147 361 293 750q241 627 346 872q-13 0 -37 -4l-43 -6q-28 -4 -43 -6q-6 -1 -19 -2t-18 -2z" />
    <glyph glyph-name="zero" unicode="0" horiz-adv-x="1280"
d="M768 1481h-27q-104 0 -206 -51q-112 -58 -175 -150q-69 -109 -108 -260q-31 -114 -53 -272q-6 -92 -6 -191q0 -223 71 -371q47 -84 137 -133q87 -43 191 -43h31q108 0 206 49q103 50 172 150q68 105 111 260q27 107 49 274q6 86 6 179q0 230 -71 381q-40 85 -135 133
q-92 45 -193 45zM758 1384h4h4q82 0 137 -55q58 -58 70 -139q12 -61 12 -152q0 -71 -6 -139q-16 -131 -43 -223q-46 -144 -102 -207q-73 -92 -185 -92h-8h-2h-2h-10q-60 0 -108 29.5t-68 82.5q-33 88 -33 228q0 141 12 239q16 135 62 248q27 76 96 129q66 51 145 51h25z
M668 664q-31 0 -51.5 17t-28 42.5t-10.5 57t2 59.5q5 51 12.5 86.5t21 71.5t37.5 54.5t58 18.5q61 0 77 -57t5 -174q-5 -44 -16.5 -80.5t-39.5 -66t-67 -29.5z" />
    <glyph glyph-name="one" unicode="1" horiz-adv-x="1361"
d="M274 289l-18 -139q-22 -136 -23 -140q245 29 429 29q183 0 434 -33v57q0 127 6 238q-129 11 -307 18q41 585 104 1139q-6 -2 -27 -2q-9 0 -30 -1t-31 -1h-27h-47q-31 0 -47 2l-26 -4q-201 -30 -330 -39v-45q-2 -18 -2 -53q0 -20 -1 -54.5t-1 -46.5q186 16 338 43
q-6 -86 -20 -243t-19 -226q-9 -114 -21 -231q-13 -165 -20 -238q-154 -3 -295 -14z" />
    <glyph glyph-name="two" unicode="2" horiz-adv-x="1404"
d="M854 561v-2q8 8 22 21t24.5 24t19.5 21l63 61l33 33q94 116 133 199q53 112 53 225q0 150 -98 235q-64 53 -166 80q-85 23 -186 23q-63 0 -145.5 -13t-124.5 -22.5t-150 -36.5v-51q0 -41 -4 -119q0 -9 -1 -26t-1 -23q242 108 417 108q105 0 172 -49q74 -58 74 -157
q0 -85 -49 -166q-33 -58 -137 -170q-77 -79 -225 -181q-204 -151 -338 -268q-3 -26 -11.5 -79t-11.5 -70l-12 -78q-5 -34 -12 -74q263 31 483 31q212 0 463 -31v74v80q2 27 2 80q0 13 1 36.5t1 34.5q-220 19 -457 19q40 107 168 231z" />
    <glyph glyph-name="three" unicode="3" horiz-adv-x="1333"
d="M1190 1169q0 116 -72 195q-63 63 -172 92q-92 25 -205 25q-155 0 -403 -41q0 -55 -2 -88v-47q-2 -14 -2 -39q224 53 381 53q100 0 170 -33q96 -45 96 -143q0 -112 -84 -180q-76 -64 -188 -64h-45h-48h-24q-21 0 -31 2h-29h-24q-4 -28 -4 -55l-6 -55l-4 -66h133
q83 0 139 -10q70 -15 121 -58q67 -60 67 -143q0 -35 -32 -76q-26 -30 -68 -59q-56 -45 -137 -64q-57 -14 -152 -14q-188 0 -344 84q-1 -11 -4 -36.5t-4 -41.5l-12 -86q-1 -4 -27 -166q186 -47 358 -47q141 0 238 19q142 28 234 96q83 64 120 172q31 84 31 203q0 118 -57 207
q-51 76 -158 100q116 41 182 143q68 104 68 221z" />
    <glyph glyph-name="four" unicode="4" horiz-adv-x="1337"
d="M1153 604h16q-6 -75 -6 -92q-2 -12 -2 -45q-2 -20 -2 -45q-30 0 -92 4q-63 0 -94 2v-57v-58q0 -108 4 -288q-11 1 -61 4t-80 4q-12 0 -38 1t-38 1q-25 2 -68 2l21 176q18 177 24 219h-80q-241 0 -524 -10q2 10 5.5 34.5t4.5 32.5q3 43 9 68q340 485 649 891l16 8
q37 0 127 4t129 4q-55 -387 -88 -856q17 0 51 -1t51 -1h21h22q8 -2 23 -2zM764 610q50 500 74 697q-148 -200 -252 -346q-179 -251 -250 -355q72 2 213 2q70 2 215 2z" />
    <glyph glyph-name="five" unicode="5" horiz-adv-x="1302"
d="M365 1475l-23 -21q0 -116 -12 -362q-13 -203 -27 -367q175 76 318 76q134 0 223 -62q76 -64 76 -184q0 -49 -29 -102q-21 -37 -70 -80q-56 -47 -127 -66q-63 -16 -141 -16q-185 0 -342 82l-23 -162q-9 -64 -26 -164q162 -39 368 -39q131 0 228 23q120 25 211 96
q86 64 129 188q35 101 35 220q0 198 -109 315q-69 69 -166 100q-88 29 -194 29q-51 0 -170 -25q4 28 8 88q0 26 4 84t8 170q126 -6 234 -6q187 0 364 17l27 166q-250 -21 -387 -21q-178 0 -387 23z" />
    <glyph glyph-name="six" unicode="6" horiz-adv-x="1314"
d="M1137 1425l10 17q-149 39 -275 39q-136 0 -258 -45q-139 -51 -225 -150q-112 -136 -162 -362q-37 -167 -37 -373q0 -216 74 -358q52 -94 152 -140q90 -43 205 -43q104 0 196 25q99 24 178 94q78 75 117 197q31 97 31 217q0 94 -21 164q-22 83 -75 145l2 -2
q-53 67 -140 100q-85 31 -174 31q-181 0 -321 -143q24 120 47 176q33 93 92 166q50 63 137 94q77 26 164 26q129 0 274 -59q0 2 27 186zM702 811q56 0 104.5 -21.5t76.5 -62.5q53 -69 53 -188v-13q-2 -4 -2 -12v-20q-8 -89 -94 -144q-79 -49 -176 -49q-101 0 -170 35
q-84 43 -84 131q0 58 24 135q27 75 72 123q77 86 196 86z" />
    <glyph glyph-name="seven" unicode="7" horiz-adv-x="1249"
d="M344 1464v-71q0 -54 -2 -74q225 -27 440 -27q158 0 281 8q-51 -96 -141 -276q-22 -46 -140 -281q-83 -173 -176 -358q-73 -147 -184 -356l133 6q47 2 131 2h57h58q52 149 108 325q223 680 369 1027l6 47q4 8 4 24q2 6 2 17q2 6 2 10q-247 -33 -489 -33q-211 0 -436 31z
" />
    <glyph glyph-name="eight" unicode="8" horiz-adv-x="1333"
d="M258 672q-58 -58 -88 -150q-27 -74 -27 -166q0 -168 99 -247q72 -58 176 -80q83 -21 196 -21q112 0 199 21q106 22 186 80q78 56 117 159q33 81 33 191q0 122 -72 213q-67 84 -184 123q114 28 188 143q66 104 66 225q0 126 -84 207q-61 50 -154 74q-71 18 -172 18
q-85 0 -174 -18q-92 -22 -164 -76q-64 -52 -96.5 -130t-32.5 -161q0 -93 49 -174q53 -84 134 -112q-116 -37 -195 -119zM465 1145v2q3 94 88 149q77 52 172 52q97 0 162 -39q74 -50 74 -138q0 -102 -74 -176q-71 -71 -174 -71h-11h-12h-10h-10q-85 0 -146 55q-63 53 -63 135
q0 7 4 31zM676 719q122 3 190 -70q62 -65 62 -168q-3 -90 -84 -155q-78 -62 -211 -62q-136 0 -201 60q-55 55 -55 112t22 115q24 55 68 96q90 72 209 72z" />
    <glyph glyph-name="nine" unicode="9" horiz-adv-x="1312"
d="M526 8q142 0 256 43q140 55 222 152q110 137 159 356q39 160 39 369q0 229 -78 379q-50 84 -149 133q-93 41 -201 41t-196 -25q-104 -28 -179 -98q-77 -69 -116 -191q-29 -91 -29 -215q0 -203 92 -313v2q57 -72 139 -100q74 -31 174 -31q90 0 173 37t147 104
q-21 -105 -39 -155q-26 -80 -86 -129v2q-107 -68 -299 -68q-125 0 -272 64q-2 -13 -5.5 -38t-5.5 -36q-2 -21 -10 -78q-8 -68 -22 -152l24 -2l-14 -10q137 -41 276 -41zM688 811q-146 0 -233 35q-39 16 -56 63q-14 41 -14 92q0 70 25 140q28 75 77 116q98 82 238 82
q167 0 246 -82q59 -56 59 -174q0 -80 -16 -131q-30 -84 -86 -104q-91 -37 -240 -37z" />
    <glyph glyph-name="colon" unicode=":" horiz-adv-x="710"
d="M262 1083l-6 -86q0 -26 -4 -92q-3 -61 -8 -96q78 -16 131 -16q64 0 133 14l16 154q2 19 8.5 73t8.5 78q-97 -33 -146 -33q-46 0 -104 21zM217 328l-16 -17q-4 -50 -8 -73q-6 -75 -19 -160q-3 -50 -8 -76q93 27 145 27q57 0 131 -29q2 27 6 86.5t5 77.5l6 84q1 22 6 78
q-71 12 -129 12q-54 0 -119 -10z" />
    <glyph glyph-name="semicolon" unicode=";" horiz-adv-x="671"
d="M279 1073l-23 -16q0 -33 -2 -49q0 -22 -4 -50l-6 -90q-1 -18 -4 -48.5t-4 -43.5q41 -4 83 -4q75 0 166 23q11 112 29 266l2 45q-93 -37 -174 -37q-43 0 -63 4zM250 246h-55q-5 -35 -5 -51q-4 -40 -4 -52q-4 -28 -8 -84l-35 -98l-49 -141q-4 -14 -24 -76q-3 -9 -11.5 -32
t-11.5 -36q79 31 164 39q10 16 29.5 49t27.5 46q10 16 60 94l86 141l6 78q0 13 4 59q1 11 2 30.5t2 29.5q-85 6 -141 6h-19q-6 -2 -18 -2z" />
    <glyph glyph-name="less" unicode="&#x3c;" horiz-adv-x="1579"
d="M1442 967l12 14q1 7 6 23.5t6 21.5q34 101 35 102q2 10 8 25.5t7 20.5q-235 -77 -560 -162q-279 -77 -563 -146l-186 -45q0 -28 -6 -55q-5 -54 -19 -121q-1 -11 -4 -30t-4 -25q215 -111 600 -299l273 -131q96 -47 268 -135q0 126 10 256q-255 130 -539 266l-325 158
q291 73 491 124q299 81 490 138z" />
    <glyph glyph-name="equal" unicode="=" horiz-adv-x="1644"
d="M248 936l-23 -25q14 -56 21 -159q325 -7 579 -7q262 0 621 7q18 88 59 184q-426 -12 -665 -12q-296 0 -592 12zM248 567l-21 -16q-18 -106 -57 -199q46 1 157 4t171 4q111 2 325 2q294 0 629 -10q-27 108 -27 215q-352 4 -542 4q-209 0 -635 -4z" />
    <glyph glyph-name="greater" unicode="&#x3e;" horiz-adv-x="1574"
d="M295 1100l10 -19q176 -90 264 -133q101 -49 249.5 -120.5t182.5 -88.5q123 -60 164 -82l-237 -59q-455 -116 -748 -203q-6 -29 -30 -114q-26 -90 -46 -146q261 82 547 160q255 67 549 139l209 53q10 105 37 234l-516 256q-133 63 -314 153q-133 65 -311 156v-29
q-2 -10 -2 -32q-4 -50 -4 -66q0 -4 -1 -14t-1 -15q0 -20 -2 -30z" />
    <glyph glyph-name="question" unicode="?" horiz-adv-x="1091"
d="M676 414l20 16q0 5 1 15.5t1 15.5q0 18 2 28q4 105 25 168q7 20 25 41l10 15l16 22q14 21 15 23l10 14l80 82q94 98 133 158q59 96 59 194q0 126 -78 193q-50 45 -129 65q-61 15 -147 15q-192 0 -389 -84q0 -17 -2 -27v-29q0 -16 -2 -26v-33q-4 -50 -4 -61q101 53 180 79
q97 33 172 33q84 0 137 -47q57 -48 57 -131q0 -44 -49 -96q-20 -23 -96 -84l-14 -12l-50 -41q-15 -12 -24 -21q-20 -15 -25 -20q-91 -83 -125 -150q-16 -37 -26.5 -81.5t-13.5 -74t-7 -81.5l-8 -84q114 6 246 6zM430 309l-18 -16q-7 -72 -15 -137q-15 -118 -18 -138
q153 9 223 9h57l7 71q0 30 4 70l12 147h-59q-98 0 -193 -6z" />
    <glyph glyph-name="at" unicode="@" horiz-adv-x="1933"
d="M1198 209l-6 -103q119 0 231 37q121 38 201 109q87 87 139 231q43 128 43 256q0 210 -100 367q-101 147 -260 219q-157 74 -350 74q-177 0 -348 -60q-187 -68 -316 -180q-143 -137 -215 -334q-65 -181 -65 -381q0 -152 41 -276q44 -144 135 -240v2q97 -116 264 -180
q144 -55 323 -55q311 0 576 186l-23 43q-17 39 -22 53q-27 58 -41 97q-212 -147 -469 -150q-151 3 -254 33q-130 41 -207 129q-104 129 -145 217q-29 59 -29 158q0 203 84 375q87 185 258 290q188 115 428 115q160 0 287 -59q139 -62 221 -178q76 -125 76 -281
q0 -92 -23 -174q-25 -94 -80 -166q-76 -94 -198 -119q17 280 65 692h-35h-43q-14 -2 -41 -2h-34q-4 -28 -4 -51l-7 -49v-8q-48 58 -117 91.5t-147 33.5q-176 0 -284 -119q-67 -67 -101 -174q-28 -88 -28 -195q0 -153 75 -252q44 -59 114.5 -88.5t152.5 -29.5q157 0 280 120z
M727 616q11 119 78 181q68 65 172 65q94 0 153 -53q62 -59 62 -154q0 -139 -80 -219q-60 -63 -172 -63q-101 0 -154 53q-61 58 -61 156q0 22 2 34z" />
    <glyph glyph-name="A" unicode="A" horiz-adv-x="1669"
d="M944 1454h-196q-86 -176 -209 -446q-102 -221 -158.5 -340.5t-155 -312t-190.5 -349.5l67 6l39 3l39 3l78 7q28 0 68 4q9 21 30 61t27 53q45 103 51 119q109 2 309 2q204 0 306 -2q18 -90 51 -233q5 0 153 -11l152 -12q-97 225 -197 539q-55 176 -153 524
q-65 231 -111 385zM864 1077l37 -159q34 -133 49 -205l49 -205h-106h-66h-67h-117h-119q92 213 183 434l118 297q16 -62 39 -162z" />
    <glyph glyph-name="B" unicode="B" horiz-adv-x="1480"
d="M1217 684q81 -87 81 -213q0 -111 -30 -188q-41 -97 -123 -154q-79 -52 -191 -76q-88 -16 -200 -16q-281 0 -541 -31q131 738 131 1458l23 21q172 -24 438 -31q157 0 260 -39q86 -35 131 -104q43 -67 43 -152q0 -113 -53 -213q-62 -111 -166 -143q121 -31 197 -119z
M553 1315q-5 -180 -25 -436q43 -2 131 -2h132q122 0 192 47q44 33 68 92q22 48 22 98q0 103 -76 152q-62 41 -168 41q-153 0 -276 8zM1051 449q16 41 16 94q0 45 -57 102q-39 34 -97 47q-60 13 -112 13h-289l-2 -43q-30 -279 -37 -332q288 6 293 6q145 0 223 39h-2
q39 19 64 74z" />
    <glyph glyph-name="C" unicode="C" horiz-adv-x="1529"
d="M1372 1358l19 10q-160 113 -416 113q-166 0 -295 -39q-160 -51 -266 -154q-111 -113 -172 -315q-47 -169 -47 -342q0 -126 26 -230q32 -120 98 -202q91 -99 238 -150q127 -41 285 -41q255 0 446 119v43q0 46 4 164q6 159 6 164q-101 -88 -213 -136q-112 -47 -219 -47
q-106 0 -192 19q-105 20 -172 76v-2q-50 47 -72 118q-18 58 -18 146q0 145 32 258q40 142 134 241h-3q75 75 185 107q102 27 205 27q107 0 210 -44t187 -128q11 89 16 112q1 10 11 60q1 10 4 28.5t4 22.5z" />
    <glyph glyph-name="D" unicode="D"
d="M1462 1104q29 -102 29 -217q0 -202 -41 -357q-57 -218 -190 -329q-119 -93 -302 -133q-108 -25 -323 -33q-35 -2 -105 -5t-104 -5q-166 -13 -213 -19q131 677 131 1333v64v61l21 21q200 -24 391 -27q8 0 43 -2t47.5 -3t43.5 -3.5t49 -4.5t44 -5t48 -7.5t44 -9.5
q179 -40 283 -133q77 -80 104 -186zM1280 768q4 31 4 94q0 178 -84 285q-72 72 -192 102q-102 28 -224 31q-110 0 -221 6q-16 -472 -67 -883q37 2 215 7h14h16q109 3 189 14q102 13 178 59q61 40 109 127q33 62 63 158z" />
    <glyph glyph-name="E" unicode="E" horiz-adv-x="1441"
d="M367 1485l-23 -21q-6 -729 -129 -1458q267 31 487 31q217 0 474 -31v78v86q6 156 6 160q-243 18 -457 18q-80 0 -252 -4q8 63 10 90q11 82 11 88q12 120 16 180h307h172h172v25q2 12 2 27q3 67 17 133q-411 -6 -432 -6q-38 0 -111 1t-111 1q6 106 15 200l12 197
q138 -6 262 -6q227 0 442 22q6 46 17 107l12 82q-260 -31 -477 -31t-442 31z" />
    <glyph glyph-name="F" unicode="F" horiz-adv-x="1138"
d="M367 1479l-25 -19q-37 -765 -168 -1454q106 15 268 27q33 344 50 633h155q59 0 88 2h86h97q65 0 96 -2l8 79q0 5 1 16t1 17q0 15 4 39q4 51 8 72q-182 -6 -379 -6h-90q-18 0 -32 2h-33q2 17 6 49.5t6 48.5q3 26 11 89.5t12 96.5q2 35 10 99q57 -4 160 -4q203 0 428 24
l6 47q4 14 8 54q2 9 4 27t4 26l6 47q-224 -35 -442 -35q-171 0 -354 25z" />
    <glyph glyph-name="G" unicode="G" horiz-adv-x="1619"
d="M1221 1456q124 -24 235 -94l-8 -53l-6 -35q-3 -24 -6 -45q-10 -47 -13 -80q-94 87 -209.5 130.5t-236.5 43.5q-107 0 -209 -29q-111 -28 -188 -100q-87 -94 -129 -238q-33 -114 -33 -254q0 -98 14 -155q24 -83 76 -127v2q62 -49 172 -70q81 -16 190 -16q49 0 76 2
q90 0 152 22q31 9 55 33l2 2q4 50 4 72q4 46 4 68q-47 2 -145 2h-148l21 223h260q84 0 131 2h131q-29 -337 -29 -612q-223 -140 -528 -140q-162 0 -291 37q-152 48 -243 150q-64 78 -97 196q-28 104 -28 223q0 195 43 353q58 208 178 323q104 98 262 146q133 43 291 43
q136 0 250 -25zM1155 391l-2 -2z" />
    <glyph glyph-name="H" unicode="H" horiz-adv-x="1611"
d="M367 1483l-25 -21q-6 -759 -149 -1456l59 6q27 3 65 6q16 1 42.5 3.5t47 4t35.5 3.5q28 188 62 475q53 2 153 2h156h154q100 0 151 -2q-13 -201 -16 -475q32 -4 57 -4l66 -7q82 -7 121 -12q-5 180 -5 234q0 597 115 1245q-4 0 -15 -1t-18 -1q-24 -4 -37 -4q-38 -6 -67 -6
l-92 -9q-55 -344 -82 -673q-234 -3 -447 -3h-96h-37h-37q25 291 39 676q-105 3 -200 19z" />
    <glyph glyph-name="I" unicode="I" horiz-adv-x="708"
d="M367 1466l-25 -16q-66 -699 -160 -1454q84 41 135 41q52 0 123 -41q17 341 49 745q28 392 62 746q-78 -33 -115 -33q-23 0 -69 12z" />
    <glyph glyph-name="J" unicode="J" horiz-adv-x="843"
d="M561 1452l-18 -16q-23 -156 -48.5 -347t-39.5 -300t-45 -360.5t-39 -315.5q-11 -80 -92 -127q-63 -37 -158 -52l-41 3l-60 6q-4 -24 -4 -47q-3 -30 -6 -48q-23 -215 -28 -249q5 0 14.5 1t15.5 1q24 4 35 4q37 6 68 6l49 8q88 14 151 35q76 22 140 74q68 68 98 170
q15 51 33 188q93 835 186 1393q-81 -19 -211 -27z" />
    <glyph glyph-name="K" unicode="K" horiz-adv-x="1658"
d="M365 1479l-23 -19q-12 -706 -168 -1454q127 13 139 14q11 0 74 5q50 4 66 4q33 394 43 655q118 -198 196 -326q99 -163 205 -321q223 -6 494 -33q-199 215 -326 358q-236 261 -326 363q-6 6 -15.5 18.5t-12.5 16.5q-13 13 -29 33q50 45 242 213l241 213l303 262l-106 -6
q-22 -2 -182 -13q-16 -13 -47.5 -40t-47.5 -40q-86 -75 -94 -82q-224 -189 -479 -417q16 138 29 291q17 269 18 290q-70 2 -194 15z" />
    <glyph glyph-name="L" unicode="L" horiz-adv-x="1378"
d="M367 1481l-25 -19q-16 -740 -149 -1456q260 31 477 31q214 0 442 -27l12 160q4 60 17 160q-237 18 -439 18q-79 0 -239 -4q65 522 94 1118q-63 2 -190 19z" />
    <glyph glyph-name="M" unicode="M" horiz-adv-x="1843"
d="M365 1481l-23 -19q0 -755 -160 -1454q22 2 69.5 5t67.5 5q63 5 138 9q82 617 82 1183q81 -271 180 -698l61 -254h68q19 0 29 2h26h27q8 -2 26 -2h68q4 14 31 78q16 37 30 76q206 507 340 792q-105 -611 -116 -1177q17 0 63 -4q10 0 72 -5q20 -2 66 -5t67 -5
q-10 182 -10 346q0 538 110 1129q-40 -4 -69 -4l-78 -6q-129 -10 -148 -11q-134 -217 -391 -710l-57 -109q-86 274 -135 412q-55 164 -150 405q-85 4 -284 21z" />
    <glyph glyph-name="N" unicode="N" horiz-adv-x="1579"
d="M358 1450l-22 -18q-18 -711 -168 -1426q2 0 54.5 6t80.5 8q15 0 72 5q46 4 63 4q56 606 62 1163q49 -108 104 -242q17 -42 52 -123t51 -120q184 -432 307 -674q24 -2 75.5 -5t73.5 -5q31 -2 84.5 -8t65.5 -7l-2 135q0 631 131 1344q-13 0 -45 -4l-56 -6q-36 -4 -55 -4
q-45 -5 -47 -5q-103 -538 -145 -1122q-23 47 -54 115q-24 49 -92 203q-8 19 -26 57.5t-25 54.5q-186 430 -303 656q-15 0 -25 2h-24q-122 8 -187 16z" />
    <glyph glyph-name="O" unicode="O"
d="M909 1481q-149 0 -268 -43q-138 -47 -233 -150h2q-118 -123 -170 -323q-41 -155 -41 -347q0 -117 26 -221q30 -121 90 -194q71 -98 201 -148q116 -45 252 -45q150 0 274 41q140 46 238 150q112 128 166 321q45 160 45 348q0 122 -25 222q-30 115 -92 194q-69 98 -207 150
q-116 45 -258 45zM897 1305q93 0 173 -37t128 -107q76 -123 76 -317q0 -114 -23 -203q-35 -128 -116 -180q-130 -72 -324 -72q-88 0 -162 14q-90 18 -147 56q-50 28 -70 94q-16 49 -16 123q0 129 33 250q38 140 114 231q54 70 152 113q80 35 182 35z" />
    <glyph glyph-name="P" unicode="P" horiz-adv-x="1280"
d="M1206 1268q29 -68 29 -152q0 -111 -37 -221q-42 -123 -123 -199q-67 -62 -172 -92q-84 -24 -190 -24h-109h-108q-55 -395 -82 -549q-1 0 -129 -11q-7 -1 -131 -14q147 664 188 1452l23 19q200 -23 419 -23q99 0 168 -10q91 -17 156 -55q69 -46 98 -121zM1057 1110
q2 16 2 43q0 113 -90 166q-66 35 -170 35q-158 0 -238 4q-21 -265 -49 -508q88 -2 262 -2q111 0 193 76q87 80 90 186z" />
    <glyph glyph-name="Q" unicode="Q" horiz-adv-x="1847"
d="M1382 346q61 114 91 262q22 126 22 264q0 123 -27 218q-29 112 -90 190q-77 97 -219 150q-125 45 -268 45q-137 0 -256 -45q-139 -51 -227 -146q-112 -118 -164 -303q-41 -149 -41 -332q0 -138 26 -237q30 -126 95 -213q73 -99 204 -150q111 -43 258 -43q44 0 64 2
q56 -69 72 -88q31 -36 71 -86h-2l45 -53q231 -6 490 -33q-2 3 -10 12t-11 13q-16 20 -26 30q-8 12 -27 31q-3 4 -7 9.5t-7 9t-6 6.5q-124 148 -213 260q83 89 163 227zM897 1298q96 0 174 -34q85 -42 129 -111q78 -119 78 -309q0 -137 -39 -234q-47 -119 -158 -176
q-102 17 -217 70q-20 -34 -24 -39q-7 -8 -16.5 -22t-12.5 -17l-37 -53q-173 27 -268 86q-53 33 -72 96q-16 55 -16 129q0 136 33 244q40 142 112 225q119 145 334 145z" />
    <glyph glyph-name="R" unicode="R" horiz-adv-x="1648"
d="M1284 215q17 -35 49.5 -106t48.5 -103q-1 0 -59 6t-90 8q-136 10 -152 11q-61 165 -127 372v-2q-19 45 -31 70t-34 59t-47 56v-2q-61 43 -164 43h-64h-63q-32 -316 -74 -598q-16 -1 -37 -2.5t-48.5 -4.5t-43.5 -4q-94 -8 -131 -12q131 710 131 1397v84q226 -28 453 -31
q188 -8 291 -67q72 -50 104 -127q31 -66 31 -154q0 -128 -51 -236q-63 -129 -177 -172q60 -33 109 -106q12 -19 23.5 -41t25.5 -51t21 -43l12 -31q43 -106 94 -213zM664 840h110q99 0 187 57q100 65 108 147q0 7 2 11v8q0 7 1 21.5t1 21.5q0 121 -65 168q-80 58 -195 61
q-78 0 -117 2q-36 0 -118 4q-1 -45 -11 -249q-3 -69 -16 -250q37 -2 113 -2z" />
    <glyph glyph-name="S" unicode="S" horiz-adv-x="1388"
d="M1208 1415l6 12q-208 54 -415 54q-114 0 -197 -21q-110 -23 -186 -78q-77 -55 -115 -145q-33 -82 -33 -178q0 -154 78 -244q51 -51 137 -90q69 -28 158 -45l33 -8q125 -23 200 -58q117 -58 117 -145q0 -35 -30 -68q-24 -30 -62 -53q-96 -61 -248 -61q-224 0 -434 121
q-2 -18 -22 -164q-4 -28 -13 -84t-12 -82q220 -68 459 -68q117 0 217 19q122 24 213 82q79 59 117 159q28 85 28 191q0 96 -35 170q-37 82 -110 135q-99 66 -287 100l-57 13q-80 19 -105 28q-50 14 -94 47q-41 44 -41 117q0 119 100 184h-2q97 50 234 50q176 0 389 -91
q2 20 10 70l6 39q0 8 5 33l8 57z" />
    <glyph glyph-name="T" unicode="T" horiz-adv-x="1554"
d="M344 1464l2 -166q123 -8 295 -8h49q72 0 109 2h49q-54 -508 -152 -1255h23h26h25h23h73q92 0 129 -2q9 464 68 1257q63 -2 180 -2q120 0 320 8q7 33 12 62q6 36 12 59l10 68q-320 -33 -645 -33q-286 0 -585 31z" />
    <glyph glyph-name="U" unicode="U" horiz-adv-x="1523"
d="M342 1464v-69q0 -380 -43 -828q-8 -82 -8 -127q0 -86 20 -159q24 -91 76 -148q71 -74 182 -100q97 -25 215 -25q124 0 224 27q121 33 206 115q81 87 111 196q28 87 39 217q41 538 117 922l-76 -6q-37 -5 -143 -15q-22 -123 -27 -180q-33 -226 -45 -375q-11 -85 -21 -182
q-7 -97 -28 -168q-27 -92 -74 -153q-43 -48 -119 -72q-64 -19 -141 -19q-76 0 -137 17q-68 18 -109 71h2q-51 76 -51 215q0 35 4 105q36 439 41 739q-66 4 -192 21z" />
    <glyph glyph-name="V" unicode="V" horiz-adv-x="1669"
d="M842 37h45h45h72h71l88 215q129 327 254 612q155 353 301 623l-96 -8q-101 -9 -135 -11q-70 -115 -225 -407q-34 -63 -213 -414l-56 -108q-16 -37 -55 -113l-64 197q-177 545 -301 843q-14 1 -32 2.5t-42 4.5t-38 4l-113 12q48 -128 92 -279q79 -252 148 -538
q32 -131 104 -443l43 -178l21 -14h86z" />
    <glyph glyph-name="W" unicode="W" horiz-adv-x="2174"
d="M555 1470l-207 17q95 -332 148 -725q42 -332 55 -737q13 1 39 2t39 2q13 0 41 1t43 1q110 4 161 4q90 175 179 364q119 260 168 371q2 -5 4.5 -14t3.5 -11q0 -8 4 -16l8 -41q104 -427 182 -653q44 0 150 -4q59 0 149 -4q94 403 205 733q126 384 295 725q-29 0 -47 -2h-31
q-8 -2 -22 -2q-52 -6 -113 -6q-217 -407 -442 -1024q-32 78 -43 110l-74 205q-3 12 -39 111q-11 33 -78 221h-178l-76 -129q-13 -22 -37.5 -66t-37.5 -65q-83 -143 -222 -369q-44 273 -92 504q-63 282 -135 497z" />
    <glyph glyph-name="X" unicode="X" horiz-adv-x="1681"
d="M358 1477l-18 -27q146 -276 344 -705l8 -20q7 -10 10 -23q-194 -239 -286 -350q-37 -46 -293 -348q29 5 84 8l184 15q36 0 82 4q140 188 344 497q26 -56 125 -249q56 -112 131 -246l172 -13q24 -2 170 -14q-77 113 -223 342q-76 119 -215 350q347 533 534 785l-102 -6
q-102 -9 -135 -11q-160 -216 -414 -596l-74 152q-13 25 -37 74t-36 73q-66 130 -156 293q-3 0 -15.5 1t-21.5 1q-14 2 -37 2z" />
    <glyph glyph-name="Y" unicode="Y" horiz-adv-x="1544"
d="M360 1485l-18 -29q35 -74 73 -159.5t63 -144t69 -166t59 -145t66.5 -166.5t60.5 -151q-1 -9 -9.5 -101.5t-14.5 -141.5l-25 -244h23h24h25h20h72q88 0 123 -2q24 379 35 489q31 54 43 74q8 16 24 43.5t19 32.5q93 163 243 411q135 223 256 402l-78 -6q-86 -10 -159 -13
q-177 -255 -459 -716q-84 187 -164 358q-63 141 -172 354q-120 11 -199 21z" />
    <glyph glyph-name="Z" unicode="Z" horiz-adv-x="1669"
d="M342 1462v-166q265 -22 547 -22q155 0 311 6q-325 -325 -481 -485q-185 -190 -475 -494q-3 -16 -12 -66.5t-15 -80.5q-5 -30 -15 -83.5t-12 -64.5q336 31 613 31q267 0 600 -29q-4 118 -4 197l2 117q-270 18 -559 18q-164 0 -328 -6l40 40t45 44.5t36 36.5
q38 38 111.5 113.5t111.5 113.5l119 123q84 84 252 256q127 127 250 256l14 74q0 15 8 47l6 26q0 9 4 21q-330 -31 -604 -31q-272 0 -542 27z" />
    <glyph glyph-name="bracketleft" unicode="[" horiz-adv-x="958"
d="M385 1542l-29 -16q-55 -916 -155 -1788q122 43 225 43q96 0 209 -43l6 94q6 122 8 148q-93 28 -211 28h-12q75 831 115 1346q8 -3 8 0h6q120 0 219 35l10 92l9 71q-130 -45 -230 -45q-101 0 -178 35z" />
    <glyph glyph-name="backslash" unicode="\" horiz-adv-x="1157"
d="M535 1436l-17 14q-101 17 -170 43q21 -105 39 -213q12 -72 35.5 -218.5t36.5 -219.5q7 -51 35 -215q96 -606 129 -791q71 -4 176 -31l47 -10q-18 85 -86 434q-16 86 -43.5 239t-36.5 200q-110 597 -145 768z" />
    <glyph glyph-name="bracketright" unicode="]" horiz-adv-x="960"
d="M795 1524l-27 18q-96 -35 -201 -35q-100 0 -205 47l-4 -90q-1 -6 -2 -18t-2 -19q0 -26 -2 -36q84 -37 207 -37h19l-31 -342q-10 -111 -30 -335t-30 -335q-5 -59 -14 -173t-14 -169h-13q-96 0 -217 -31l-10 -106l-14 -125q125 43 223 43q96 0 211 -41q50 890 156 1784z
" />
    <glyph glyph-name="asciicircum" unicode="^" horiz-adv-x="1622"
d="M1016 1473h-160q-30 -26 -90 -82q-34 -34 -88 -84q-89 -86 -199 -187q-109 -92 -252 -200q12 0 38 1t42 1q15 1 46 2t46 2q63 2 172 2q18 18 37 38.5t34 36.5t35 39.5t31 36.5t32.5 39.5t29.5 36.5t31.5 39.5t29.5 36.5q48 63 95 119q4 -5 9.5 -15.5t8.5 -13.5
q4 -7 17 -25l14 -24q3 -4 8.5 -14.5t7.5 -14.5q47 -78 69 -113t64.5 -94.5t83.5 -105.5q23 -2 80 -2l185 -6q14 -1 39.5 -2t37.5 -2q-123 99 -227 208q-92 94 -174 197q-11 12 -33 37t-35 39q-13 15 -35.5 40.5t-29.5 33.5z" />
    <glyph glyph-name="underscore" unicode="_" horiz-adv-x="1439"
d="M1051 -299l-15 33q-360 -4 -536 -4q-82 0 -127 2h-135q-103 0 -263 4q52 -58 52 -90q0 -42 -70 -109q43 1 137.5 2t141.5 2h145h133h135h146q47 -1 141 -2t137 -2q-57 54 -57 88q0 46 35 76z" />
    <glyph glyph-name="grave" unicode="`" horiz-adv-x="862"
d="M598 1610l-14 8q-31 0 -105 4q-46 0 -100 4q36 -60 74 -137q20 -44 51 -115l28 -63q6 -13 16 -35t13 -29h45q37 0 60 -2q42 0 65 -2q11 0 34 -1t34 -1q9 -1 29 -2t28 -2q-54 66 -92 125q-37 54 -119 178q-7 13 -47 70z" />
    <glyph glyph-name="a" unicode="a" horiz-adv-x="1275"
d="M1036 633q6 53 6 108q0 172 -86 273q-57 55 -151 82q-71 18 -174 18q-170 0 -375 -63q-4 -29 -4 -84v-17q-2 -8 -2 -24v-23q-2 -8 -2 -18q177 82 352 82q131 -11 213 -74q47 -50 47 -133v-15q-2 -10 -2 -22q-2 -2 -2 -8v-8h-111h-112q-182 0 -314 -66q-93 -47 -149 -158
q-43 -92 -43 -207q0 -120 66 -192q82 -82 239 -82q119 0 209 33q105 40 176 119q-2 -10 -2 -21v-8v-8v-19l-2 -75l98 -7q12 -1 48.5 -4.5t50.5 -5.5l-2 111q0 245 28 516zM750 561v-14q-2 -2 -2 -12l-5 -25q-11 -130 -61 -184q-41 -25 -94 -35q-44 -8 -101 -8q-58 0 -137 14
q-26 6 -39.5 29.5t-13.5 54.5q7 92 72 137q36 18 51 23q56 16 110 16q20 2 58 2q8 0 12 2h12h138z" />
    <glyph glyph-name="b" unicode="b" horiz-adv-x="1372"
d="M553 1509q-80 0 -195 25q-11 -467 -23 -627q-20 -257 -81 -600l121 -141q14 -16 31 -30t40 -27.5t35.5 -20.5t40.5 -20.5t33 -16.5q81 -43 170 -43h8q2 0 4 2h4h17q89 -2 171.5 35.5t141.5 108.5q78 89 117 237q26 112 26 254q0 198 -86 326q-101 149 -280 149h-31
q-86 0 -172 -39q-86 -41 -137 -112q25 248 45 540zM1087 600l3 4q-13 -65 -35 -115q-29 -67 -70 -98l2 2q-73 -52 -184 -59q-49 0 -105 16q-53 18 -94 56q-47 69 -51 186q19 181 100 289q82 98 219 98q119 0 175 -107q43 -82 43 -225v-10q-3 -6 -3 -12v-25z" />
    <glyph glyph-name="c" unicode="c" horiz-adv-x="1214"
d="M1020 1049l16 18q-128 49 -270 49q-131 0 -231 -33q-129 -38 -213 -114q-92 -92 -134 -240q-32 -113 -32 -260q0 -102 18 -170q27 -92 76 -152v3q67 -86 184 -119q97 -31 223 -31q160 0 301 53q-2 35 -2 115q0 59 2 94q0 24 5 92q-87 -41 -150 -41h-10l-148 4h2
q-156 11 -231 60h2q-34 24 -51 78q-15 46 -15 100q6 73 31 156q28 88 76 139q47 59 125 84q70 24 145 24q140 0 279 -71l8 59v-2q2 18 10 55q1 10 11 54z" />
    <glyph glyph-name="d" unicode="d" horiz-adv-x="1333"
d="M647 1120h-29q-84 0 -167 -39q-88 -42 -140 -110v2q-87 -108 -127 -256q-32 -131 -32 -271q0 -176 75 -292q46 -71 122.5 -108.5t166.5 -37.5h10q4 0 6 2h5h14q94 0 178 41q86 42 148 113q-3 -15 -3 -25v-10v-12v-25v-33q-2 -14 -2 -30l64 -6q56 -3 131 -15
q12 735 160 1530q-20 -4 -27 -4l-12 -4q-106 -12 -164 -17q-53 -284 -86 -548q-43 75 -120.5 115t-170.5 40zM297 578q10 95 43 180q38 98 96 153q69 66 162 66h23q71 0 122 -45q54 -51 68 -123q16 -68 16 -156t-12 -139q-22 -90 -74 -129l2 2q-29 -18 -65.5 -28.5t-64 -13
t-70.5 -3.5q-70 0 -101 8q-49 9 -86 43h2q-35 38 -47 84q-11 43 -14 101z" />
    <glyph glyph-name="e" unicode="e" horiz-adv-x="1310"
d="M1116 715v-10q-2 -4 -2 -13v-22h2q-2 -8 -2 -19q0 -12 -2 -16l-4 -39q-162 -4 -498 -4q-44 0 -67 2h-72h-119v-6q-2 -18 -2 -51q0 -59 15 -111q17 -60 55 -86v2q106 -66 285 -66h18q98 0 160 9q94 10 174 51v-33q-2 -25 -2 -76v-32q0 -88 2 -125q-201 -68 -410 -68
q-118 10 -211 41q-119 44 -182 107q-53 59 -80 151q-22 86 -22 170q0 135 38 256q46 150 129 240q72 75 185 112q85 31 209 35q103 -7 170 -27q93 -27 147 -81q47 -50 72 -136q14 -71 14 -155zM479 760h96q129 0 383 4q-13 109 -77 170q-70 70 -174 70q-146 0 -234 -82
q-78 -71 -90 -160q33 -2 96 -2z" />
    <glyph glyph-name="f" unicode="f" horiz-adv-x="950"
d="M627 1174v-39q-3 -16 0 -39q105 0 270 14q0 -13 -4 -45q-8 -68 -10 -107l-6 -45q-176 -8 -265 -8q-33 -518 -45 -868l-80 2q-80 0 -200 -12q45 285 116 880q-19 0 -73 4q-34 0 -74 4l4 70q0 5 1 15.5t1 15.5q2 10 2 33q4 46 4 63q79 -10 154 -14q2 10 4 30t4 31
q11 76 35 133q26 74 78 117q99 70 223 80q8 -2 31 -2h30q28 0 86 4l21 -23l-21 -145q-9 0 -35.5 -1t-35.5 -1q-16 0 -45 1t-45 1q-58 -4 -90 -29q-27 -39 -35 -120z" />
    <glyph glyph-name="g" unicode="g" horiz-adv-x="1296"
d="M1042 117l7 37q52 511 143 960l-135 -16l-66 -4l-26 -109q0 -6 -4 -18q-7 -14 -7 -23q-46 69 -131 117q-82 45 -176 45h-29q-88 0 -172 -35t-145 -102q-78 -94 -111 -228q-28 -118 -28 -241q0 -207 84 -332q41 -64 123 -109q80 -39 161 -39q198 0 330 138q-2 -12 -2 -33
q-26 -94 -106 -174q-40 -48 -115 -72q-65 -18 -133 -18q-164 0 -295 76q-8 -49 -10 -80l-13 -88q-15 -109 -22 -168q140 -39 315 -39q136 0 217 18q118 26 197 105q70 76 111 206q23 84 38 226zM834 575v3q-7 -71 -25 -123q-28 -69 -74 -99q-95 -39 -213 -39q-40 0 -98 7
q-51 6 -88 30q-30 37 -39 88q-8 30 -12 103v14q-2 6 -2 16q7 84 26 150q26 88 66 135q36 44 92 68t115 24q119 0 186 -73q70 -80 70 -230q0 -49 -4 -74z" />
    <glyph glyph-name="h" unicode="h" horiz-adv-x="1419"
d="M1159 672q4 50 4 78q0 135 -51 235q-34 69 -108 105q-73 30 -154 30h-27q-180 0 -319 -159q11 93 28 274q8 86 23 272q-5 0 -98 11l-54 6q-19 0 -47 4q-27 -769 -172 -1522q39 5 121 12l64 7q35 3 55 6q8 65 39 430l6 84q0 24 4 86q14 149 98 246q39 45 96 69.5t115 24.5
q51 0 95 -23.5t71 -66.5q27 -58 27 -150q0 -43 -2 -61q-38 -338 -55 -639q15 0 55 -4l61 -7q15 -1 119 -14q0 18 -1 60.5t-1 64.5q-2 23 -2 66v61q0 182 10 414z" />
    <glyph glyph-name="i" unicode="i" horiz-adv-x="677"
d="M340 1405l-12 -111q43 -32 92 -32q40 0 98 28q0 18 4 68q0 25 4 65v27q2 10 2 35q4 46 4 57q-62 -41 -96 -41q-27 0 -51 17l-33 -13zM344 1104l-25 -17q-9 -103 -29 -304.5t-24 -245.5q-10 -108 -31 -306.5t-26 -244.5q68 53 106 53q36 0 93 -51q2 37 16 243.5t22 319.5
q20 272 46 561q-67 -18 -93 -18q-22 0 -55 10z" />
    <glyph glyph-name="j" unicode="j" horiz-adv-x="724"
d="M479 1483l-12 -90q-8 -61 -14 -90l-7 -48q125 15 197 33q1 6 2 20t2 21q0 9 1 23t1 18l6 84q4 28 4 43q1 5 2.5 19t2.5 20q-81 -25 -166 -39zM418 1081l-19 -16q-17 -110 -39 -277l-11 -88t-13 -102.5t-12 -87.5l-25 -191q-11 -90 -27 -188v-4q-2 -4 -2 -8
q-8 -61 -14 -88q-13 -48 -37 -78q-43 -41 -153 -57l-60 -13q-7 -60 -24 -180l-17 -115l47 17q4 1 68 14l26 6q80 16 125 31q67 24 113 65q52 49 80 136q15 52 27 147q51 464 133 1092q-111 -15 -166 -15z" />
    <glyph glyph-name="k" unicode="k" horiz-adv-x="1476"
d="M375 1526l-23 -19q-21 -733 -172 -1501q124 13 131 14l70 7q46 4 59 4l6 65q0 19 5 64l12 174q4 56 8 172q10 -14 40.5 -57.5t47.5 -65.5q31 -44 89 -122t77 -105l90 -119q190 -6 395 -35q-27 30 -116 128.5t-140 154.5q-25 27 -120.5 127t-141.5 151l-37 37l131 148
l74 86q25 27 80 90l158 176h-58q-20 -2 -65 -2q-45 -2 -121 -2q-20 -21 -84 -89t-98 -106l-183 -196q20 175 37 403q18 227 25 401q-85 3 -176 17z" />
    <glyph glyph-name="l" unicode="l" horiz-adv-x="796"
d="M379 1520l-27 -15q-61 -777 -151 -1505q106 39 172 39t155 -39q1 8 2 28t2 29q0 9 5 66q1 25 4 68.5t4 52.5q-58 18 -115 24q100 1117 111 1235q-9 0 -21 -1t-14 -1h-19q-63 0 -108 19z" />
    <glyph glyph-name="m" unicode="m" horiz-adv-x="2039"
d="M1743 377q0 -192 31 -369q-9 1 -30 2t-32 2q-22 0 -72 4q-12 0 -35 1t-34 1q-23 2 -64 2v50q0 255 66 624l2 31q4 36 4 51q0 8 1 24t1 23q0 81 -30 118.5t-93 37.5q-68 0 -128.5 -26.5t-100.5 -78.5q-80 -95 -94 -249q-36 -309 -54 -594h-270q78 376 131 671v-2
q2 20 2 62q0 92 -31 145l2 -2q-29 47 -77 66q-41 14 -95 14q-122 0 -206 -117q-71 -106 -78 -239q-21 -354 -74 -611q-39 0 -59 -2q-72 0 -140 -6q-12 0 -32 -1t-27 -1q145 466 145 934q0 70 -4 168l99 -6l98 -4q-2 -44 -10 -135q52 73 132 113t167 40q130 0 217 -51
q103 -57 135 -162q69 99 156 156q93 61 243 61q86 0 148 -39q72 -45 92 -118q20 -69 20 -164q0 -45 -8 -131q-14 -171 -14 -293z" />
    <glyph glyph-name="n" unicode="n" horiz-adv-x="1406"
d="M1139 670q0 12 1 36t1 37q0 135 -45 238q-40 73 -113 104t-154 31q-183 0 -368 -129v10q0 4 2 4v5v10l2 88q-6 1 -22 2t-23 2q-8 0 -25.5 1t-25.5 1q-12 1 -48.5 4.5t-50.5 5.5q-9 -583 -129 -1114l64 6q24 2 71 5.5t70 5.5q24 0 64 4q31 308 43 610v-2q11 151 88 237
q43 46 112 66q57 16 129 16q45 0 80 -14q43 -19 64 -57v2q20 -49 20 -123q0 -45 -4 -68v-10v-8q-57 -366 -76 -649q75 -4 138 -9q20 -2 67.5 -5t69.5 -5q-17 192 -17 314q0 129 15 348z" />
    <glyph glyph-name="o" unicode="o" horiz-adv-x="1267"
d="M684 1114q-107 0 -199 -35q-110 -40 -176 -106q-84 -99 -123 -252q-30 -120 -30 -266q0 -198 84 -310q51 -76 151 -110q88 -33 193 -33t200 33q110 37 177 110q83 98 122 254q31 114 31 267q0 190 -82 305q-60 80 -153 112q-82 31 -195 31zM674 967q62 0 115 -25.5
t81 -73.5q50 -82 50 -215q0 -80 -15 -149q-21 -97 -82 -139h2q-82 -48 -213 -48q-134 0 -204 45h2q-54 42 -54 150q0 104 21 184q23 100 78 172q38 49 96.5 74t122.5 25z" />
    <glyph glyph-name="p" unicode="p" horiz-adv-x="1314"
d="M668 -4h26q90 0 170 41q83 39 140 108q84 98 126 254q33 132 33 273q0 175 -76 291q-50 65 -129 104q-84 41 -161 41h-29q-95 0 -176 -37q-95 -42 -148 -108l5 28l16 99q-71 5 -98 8q-12 1 -48 4.5t-51 5.5q-30 -766 -174 -1511q11 0 47 4l54 6q45 5 53 6q8 0 24 1t23 1
q58 352 84 535q40 -75 121 -115q74 -39 168 -39zM1032 586v-6q-2 -4 -2 -9q-8 -74 -24 -120q-19 -63 -66 -105l2 2q-73 -51 -203 -51q-123 0 -200 51l2 -2q-60 48 -60 168q0 101 19 184q24 103 80 170q80 107 229 107q111 0 174 -90q55 -78 55 -207q0 -44 -6 -90v-2z" />
    <glyph glyph-name="q" unicode="q" horiz-adv-x="1370"
d="M821 -381q144 -11 166 -14h6h11q2 -2 10 -2h4q17 722 172 1511q-28 -4 -47 -4l-53 -6q-78 -8 -101 -10l-14 -60l-25 -90q-46 69 -131 119q-85 45 -172 45h-33q-87 0 -170.5 -37.5t-142.5 -105.5q-74 -91 -113 -234q-28 -118 -28 -248q0 -214 82 -338q43 -71 119.5 -110
t164.5 -39h29q90 0 170 41q87 41 139 110q-18 -174 -43 -528zM293 578q7 96 24 151q24 83 68 141q39 49 90 72q58 25 111 25q69 2 125.5 -23.5t87.5 -77.5q49 -78 49 -207q0 -93 -14 -159q-25 -108 -89 -154h3q-85 -47 -211 -47q-131 0 -195 47l2 -2q-53 48 -53 166
q0 31 2 47v10v11z" />
    <glyph glyph-name="r" unicode="r" horiz-adv-x="903"
d="M807 911l27 17q1 15 5.5 46.5l6.5 45.5q4 20 14 90h-51q-72 0 -135 -16q-75 -15 -135 -52l-45 -26q-30 -15 -60 -33l6 100h-22q-10 2 -23 2q-50 3 -131 11q-44 -589 -147 -1090q158 21 252 23q5 56 32 528q15 168 82 260q44 62 123 84q62 21 146 21q33 0 55 -11z" />
    <glyph glyph-name="s" unicode="s" horiz-adv-x="1165"
d="M989 1067l-12 4q-127 43 -338 43q-150 0 -268 -47q-80 -34 -125 -115q-37 -70 -37 -164q0 -122 57 -176q34 -34 105 -61q47 -19 116 -37l37 -8q46 -9 99 -25q61 -18 92 -41q29 -34 39 -73q11 -57 -74 -101q-59 -26 -131 -26h-12q-9 0 -13 2h-22q-172 0 -342 92
q-2 -22 -9 -70t-10 -71q-3 -17 -10 -68t-12 -74q194 -49 364 -49q108 0 179 14q97 16 169 64q69 42 101 115q29 65 29 147q0 119 -66 182q-43 40 -115 72q-60 20 -133 39l-18 4q-107 20 -158 45q-90 44 -90 117q0 89 86 133q66 35 166 35q177 0 328 -68q1 3 2 12t2 13
q4 16 4 26q1 7 4.5 26.5t5.5 27.5z" />
    <glyph glyph-name="t" unicode="t" horiz-adv-x="1122"
d="M682 307q161 -12 182 -14q0 -11 -1 -33.5t-1 -36.5q-2 -25 -2 -73q-4 -102 -4 -144l-82 12q-5 0 -45 5q-28 4 -39 4l-26 4l-33 2q-93 9 -133 18q-72 17 -119 55q-62 62 -62 189q0 17 5 90q12 94 16 141l31 277l12 141q-67 3 -121 10q0 27 2 45q0 10 1 25t1 20v-2l4 70
l45 -6q32 -4 39 -4q20 -4 39 -4q6 66 15 133l12 129q96 -8 184 -8l21 -23q-6 -30 -9 -65q-1 -13 -4 -36t-4 -34v2l-12 -104h16q31 0 113 4q39 0 57 2q9 0 27.5 1t26.5 1l-7 -70q-2 -24 -12 -86q-189 -6 -213 -6h-22q-2 -20 -7.5 -66t-7.5 -69q-3 -25 -8 -76.5t-8 -77.5
q-2 -25 -17 -153v-11v-10q-2 -16 -2 -45q0 -61 21 -90q14 -14 38.5 -21t42 -9t50.5 -3z" />
    <glyph glyph-name="u" unicode="u" horiz-adv-x="1353"
d="M240 449q-7 -58 -7 -103q0 -118 41 -213q36 -69 115 -102q76 -31 158 -31h26q92 0 177.5 43t150.5 117q-2 -21 -5 -68.5t-5 -68.5q21 0 45 -3q72 -4 106 -8q8 0 23 -1t22 -1q0 543 121 1104q-18 -2 -59 -5.5t-55 -4.5q-18 -2 -115 -8q-45 -247 -68 -455
q-25 -151 -102 -238q-79 -84 -219 -84q-103 0 -148 80v-2q-30 64 -30 174v9v10v12q19 257 22 496l-72 6l-20 2q-5 1 -14 2t-13 2q-16 0 -24 2q-17 0 -23 2v-65q0 -15 2 -23v-20q0 -247 -30 -557z" />
    <glyph glyph-name="v" unicode="v" horiz-adv-x="1388"
d="M340 1106l-72 6q26 -62 74 -209q70 -212 117 -403l86 -334q10 -49 35 -137q27 0 43 2h45h69h60q41 0 57 -2l78 184q109 262 192 442q114 244 234 457q-92 -6 -109 -8q-21 0 -57 -4q-8 -1 -25.5 -2t-23.5 -2q-145 -240 -342 -635l-58 -115l-18 49q0 9 -4 21q-5 11 -8 24
q-139 417 -238 656q-58 3 -135 10z" />
    <glyph glyph-name="w" unicode="w" horiz-adv-x="1773"
d="M283 1110l-21 -25q77 -235 123 -518q33 -191 64 -544h24q10 0 32 1t32 1h26q86 4 139 4q110 197 236 452q48 -159 74 -227q29 -94 80 -225h45q16 -2 45 -2q55 0 86 -2q16 0 44 -1t42 -1q69 304 153 546q99 289 236 543q-21 0 -33 -2q-25 0 -37 -2q-37 0 -69 -4l-66 -4
q-88 -165 -156.5 -334.5t-144.5 -388.5q0 1 -78 184q-11 26 -23 56.5t-26.5 68.5t-24.5 62q-44 -3 -96 -3h-149l-41 -67q-7 -14 -20.5 -37t-18.5 -33q-14 -21 -36 -59.5t-32 -54.5q-23 -37 -69 -115q-66 405 -172 721q-78 3 -168 10z" />
    <glyph glyph-name="x" unicode="x" horiz-adv-x="1519"
d="M1278 1075l-16 33q-30 -4 -94 -8t-70 -4q-162 -180 -361 -424q-139 243 -254 422q-85 6 -106 8q-20 0 -60 4q-21 0 -49 4q72 -111 174 -283q80 -133 166 -288q-144 -163 -243 -269q-81 -89 -252 -264l75 6q28 0 86 4q128 9 158 9q178 204 293 356q69 -123 104 -178
q62 -104 109 -178q24 0 80.5 -3t77.5 -4q114 -8 157 -12q-162 206 -200 256q-110 141 -199 264q6 9 8 11l6 8v-2q270 364 410 532z" />
    <glyph glyph-name="y" unicode="y" horiz-adv-x="1390"
d="M786 -70l121 265q268 580 453 919q-28 -4 -49 -4l-60 -6q-59 -9 -108 -12q-164 -271 -344 -605q-5 10 -158 304q-28 54 -164 301q-7 0 -104 10q-83 9 -105 12q84 -195 185 -459l174 -465l26 -71l-18 -33q-38 -61 -66 -113q-60 -64 -94 -92q-22 -16 -52 -25t-51 -11
t-61 -3q-8 -2 -35 -2q-6 -1 -19 -2t-17 -2q-1 -5 -4.5 -22t-4.5 -27q-3 -13 -8 -51q-7 -35 -10 -78q-3 -15 -8 -42.5t-6 -33.5q3 0 10.5 1t11.5 1l60 6q18 0 24 2q82 3 146 17q79 14 137 55q61 48 114 125q39 57 84 141z" />
    <glyph glyph-name="z" unicode="z" horiz-adv-x="1280"
d="M262 1085v-131q181 -14 379 -14q151 0 227 4q-30 -29 -90 -85t-88 -83l-172 -160q-183 -173 -348 -333l-23 -138q-6 -35 -26 -139q263 25 461 25q184 0 434 -23q-2 45 -2 158q0 73 2 102q-203 13 -398 13h-79h-80l100 100q86 86 184 192q29 29 99 103q62 62 123 129
l125 127q1 3 4 18.5t4 24.5q2 8 5 25t5 24q6 46 16 88q-263 -25 -462 -25q-179 0 -377 19z" />
    <glyph glyph-name="braceleft" unicode="{" horiz-adv-x="1179"
d="M852 -127l-21 23q-14 0 -22 4q-8 0 -14 2q-11 0 -17 2l-20 4q-100 12 -137 49q-29 38 -29 129l6 57q0 22 4 58l12 116v35q0 111 -24 164q-27 61 -105 90q81 24 125 82q50 76 66 217l12 117q2 20 7 57.5t7 57.5l5 16q6 38 9.5 56.5t14.5 48t27 47.5l-2 -5q48 38 172 58
q67 12 84 16l6 37q4 15 8 45q4 34 14 82q-18 -4 -65 -12q-7 -2 -37 -8l-33 -7q-185 -28 -282 -86q-57 -49 -84 -129q-16 -50 -29 -149l-12 -113q-10 -84 -11 -110q-7 -55 -18 -97q-13 -44 -47 -86q-68 -51 -184 -51h-9q-6 0 -8 2q-8 0 -12 2h-29l-8 -78q-1 -6 -2 -20t-2 -21
q0 -14 -2 -20v-18h45h6q2 -2 8 -2h6q44 0 91 -13q47 -14 69 -41h-2q33 -51 33 -157q0 -67 -14 -160q-13 -124 -13 -164q0 -141 62 -213q50 -42 139 -70q41 -11 156 -30l90 -15q0 19 2 29q0 21 2 33q0 12 1 33t1 28q1 6 2 19.5t2 19.5v39z" />
    <glyph glyph-name="bar" unicode="|" horiz-adv-x="657"
d="M240 621h20q8 0 25 -1.5t24 -1.5h23q40 0 84 5l30 231q6 41 17.5 123t17.5 123q5 41 16.5 121.5t16.5 121.5q32 216 35 232q-91 -62 -150 -62h-14q-8 4 -31 7q-41 -325 -55 -451zM279 -428l22 16q17 146 54.5 467.5t56.5 485.5h-41q-16 -2 -49 -2h-48h-41
q-25 -202 -69 -510q-13 -82 -38 -254t-38 -256q86 57 150 57q13 0 41 -4z" />
    <glyph glyph-name="braceright" unicode="}" horiz-adv-x="1193"
d="M221 -147l-6 -39q-1 -8 -3 -23.5t-3 -23.5l-6 -50q-3 -21 -6 -39l41 9l38 6q11 4 41 8l41 6q93 17 129 29q66 15 125 57q55 49 78 131q13 41 27 148l4 71l6 76q5 62 6 76q6 46 19 100q18 58 47 90q33 33 90 43q37 9 100 9h51l13 155q-27 0 -37 2h-12h-11q-2 -2 -10 -2
q-49 0 -88 8q-51 14 -76 39q-33 46 -33 127q0 13 5 58l18 225q4 58 4 88q0 131 -59 195q-52 41 -127 63q-48 14 -142 31q-8 0 -28 4l-35 6q-46 8 -62 12l-4 -84l-2 -78l66 -12q46 -6 94 -18q52 -17 80 -39q27 -47 27 -107q0 -66 -15 -184q-10 -102 -10 -188q0 -96 27 -142v2
q30 -60 120 -90q-89 -23 -137 -82q-31 -48 -43 -100q-13 -59 -26 -213q-2 -17 -5.5 -53t-5.5 -54l-2 -20v-4v-4q-6 -39 -9.5 -58.5t-15.5 -50.5t-30 -51q-37 -29 -90 -41q-27 -6 -103 -16z" />
    <glyph glyph-name="asciitilde" unicode="~" horiz-adv-x="1525"
d="M1407 799l6 26q-11 -9 -37 -20q-10 -5 -37 -23q-112 -64 -143 -77q-86 -35 -152 -35q-82 0 -221 55l-22 10l-8 4q-144 60 -263 60q-87 0 -180 -41q-79 -37 -162 -107q-6 -102 -57 -184l25 -23q31 18 64 39.5t81 53.5t64 43v-2q80 57 159 63q89 -4 221 -80l60 -29
q44 -21 69.5 -32t65.5 -22t78 -13q79 0 158 47q60 33 141 96l61 47q12 87 52 150z" />
    <glyph glyph-name="uni00A0" unicode="&#xa0;" horiz-adv-x="1902"
 />
    <glyph glyph-name="exclamdown" unicode="&#xa1;" horiz-adv-x="749"
d="M578 1210l28 283q-79 -39 -137 -39q-53 0 -121 35l-6 -78q0 -27 -2 -41q0 -6 -1 -18t-1 -17l-10 -137q68 -22 118 -22q58 0 117 18zM459 12l28 15q7 144 39 630q4 94 4 148q5 77 5 104q4 74 4 105q-54 -10 -111 -10q-44 0 -96 8l-4.5 -36t-6.5 -45t-6 -40
q-13 -93 -16 -121l-16 -113q-5 -56 -18.5 -168t-18.5 -161q-7 -67 -21.5 -187.5t-17.5 -144.5q78 41 143 41q57 0 109 -25z" />
    <glyph glyph-name="cent" unicode="&#xa2;" horiz-adv-x="1204"
d="M1049 1049l-9 -62l-12 -88q-135 72 -246 78l-43 -371q-4 -46 -17 -174t-20 -199q121 9 263 72q-2 -8 -2 -31l-7 -71q0 -6 -1 -17t-1 -16q-7 -66 -10 -129q-118 -41 -264 -51l-10 -117l-6 -76q0 -6 -1 -20t-1 -21q-1 -5 -2.5 -17.5t-2.5 -17.5h-14q-6 3 -18 3q-13 0 -19 2
h-14q-17 0 -53 4l14 153q4 46 4 60l6 57q-101 14 -180 51q-100 47 -145 113q-84 109 -84 303q0 141 32 254q41 145 131 235q63 69 170 111q81 32 195 43q0 8 12 121l19 151h57q36 0 64 4l-19 -137q-3 -38 -16 -137q139 -3 243 -51l-16 -17zM588 242q57 564 76 729
q-148 -16 -236 -168q-74 -128 -74 -291q0 -112 66 -184q62 -71 168 -86z" />
    <glyph glyph-name="sterling" unicode="&#xa3;" horiz-adv-x="1304"
d="M1149 1415l14 19q-138 41 -258 41q-33 0 -94 -7q-115 -18 -188 -59q-92 -47 -142 -133q-47 -84 -63 -186q-15 -66 -23 -152l-6 -57l-8 -101q-31 2 -90 2q-16 1 -46 2t-46 2l-17 -139q55 -2 183 -2l-13 -100q-8 -67 -10 -96q-5 -27 -14 -95q-6 -47 -15 -98
q-219 -12 -221 -12l-6 -31q-2 -17 -9 -52t-9 -50l-13 -56q-2 -18 -10 -49q230 23 438 23q283 0 553 -35v31v30q5 137 8 172q-256 26 -522 29l47 387l160 -4l197 -2l6 65l8 70q-82 0 -129 2q-90 0 -129 2h-49q-16 2 -49 2l4 29q1 13 4 40t4 40q2 23 10 78q6 65 25 137
q16 71 55 125q41 38 100 57t111 19q105 0 242 -70l6 37q2 12 7 38.5t7 39.5q4 14 8 34l7 37z" />
    <glyph glyph-name="currency" unicode="&#xa4;" horiz-adv-x="1495"
d="M801 1051q-119 0 -223 -66l-103 111l-90 96l-57 -57l-33 -29q-14 -16 -35 -33l191 -209q-84 -119 -84 -250q0 -93 43 -190l-64 -62q-79 -76 -162 -149l41 -47q2 -3 15 -16q18 -24 32 -39q2 -5 8 -11t7 -8l151 137l78 70q107 -63 217 -63t223 65q17 -20 52 -54.5t47 -47.5
q15 -15 98 -103l59 60q26 26 62 57q-159 169 -193 209q86 119 86 258q0 36 -14 94q0 2 -27 92l66 64q5 5 28.5 26t36.5 33l95 86l-103 121l-180 -164l-51 -47q-101 66 -217 66zM1001 647v-2q-6 -103 -79 -170q-75 -72 -174 -72q-91 0 -154 60q-66 60 -66 153q0 111 76 187
q77 80 182 80q89 0 154 -58q64 -61 64 -151v-15q0 -6 -3 -12z" />
    <glyph glyph-name="yen" unicode="&#xa5;" horiz-adv-x="1507"
d="M1333 434l2 70q1 6 2 21.5t2 23.5q0 10 1 25t1 20q-238 4 -378 4q0 16 2 18q0 11 2 19q15 25 18 29q3 6 19 26l49 80l305 4q2 6 2 29q1 5 2 14.5t2 13.5q0 3 1 17.5t1 23.5q2 6 2 23q2 6 2 16l-145 -2q-15 0 -44 -1t-44 -1q246 390 379 580l-86 -8q-6 0 -63 -6t-85 -7
q-210 -317 -412 -655q-28 65 -77.5 178.5t-65.5 151.5q-29 65 -152 323q-41 3 -112 13q-90 9 -115 12q53 -105 137 -289q83 -184 129 -293q-65 0 -233 4q-1 -4 -2 -15.5t-2 -16.5q-3 -50 -6 -70q0 -7 -1 -20t-1 -17q24 0 75 -1t78 -1h154q5 -10 20 -35l21 -35l37 -63l-2 -39
q-181 0 -269 -2l-114 -2q0 -6 -1 -20t-1 -21l-13 -96q-4 -29 -6 -41q202 10 385 10q-12 -81 -33 -195l-17 -102t-15 -92h90h35h32q86 0 119 -2q0 219 8 391q107 0 361 -8z" />
    <glyph glyph-name="brokenbar" unicode="&#xa6;" horiz-adv-x="714"
d="M524 1403l-35 14q-25 -28 -63 -28q-16 0 -37 18q-19 17 -47 55q-11 -162 -31 -395q-12 -134 -16 -205q-5 -81 -16 -190q52 -15 83 -15q36 0 93 11q29 347 69 735zM430 406l-14 20q-40 4 -64 4q-27 0 -47 -2q-9 0 -26 -1t-23 -1l-35 -395q-17 -199 -37 -393q63 63 101 63
q35 0 86 -66q2 27 7 90t7 99q2 33 7 98t7 98q15 164 17 197q6 63 14 189z" />
    <glyph glyph-name="section" unicode="&#xa7;" horiz-adv-x="1124"
d="M926 481q-50 -75 -133 -123q90 -94 90 -200q0 -70 -27 -129q-25 -64 -86 -107v2q-56 -42 -135 -59q-74 -15 -150 -15q-89 0 -303 37l8 80q9 45 11 74q1 7 4.5 34t5.5 40q177 -62 276 -62q76 0 127 15q37 12 56.5 36.5t19.5 55.5q-10 59 -80 121q-51 41 -125 81l-34 21
q-125 76 -172 123q-80 83 -80 188q0 93 51 172q48 79 131 123q-88 88 -88 205q0 68 26 121q26 57 84 94q54 38 136 55q61 13 143 13q145 0 281 -37l-13 -15l23 2q-4 -20 -4 -28q-1 -4 -6 -56q-5 -20 -5 -28l-6 -31q0 -8 -4 -24q-167 61 -282 61q-65 0 -119 -31
q-61 -35 -64 -96q11 -63 82 -127q49 -41 123 -84l37 -20q4 -2 29 -17.5t32 -20.5t27.5 -18.5t31 -21.5t25 -20.5t25.5 -24.5q82 -85 82 -189q0 -94 -51 -170zM770 535q39 49 39 94q0 75 -92 157q-19 16 -45.5 34t-44 28.5t-52 31.5t-45.5 27l-41 23q-56 -44 -81 -76
q-37 -47 -37 -96q0 -71 86 -146q46 -42 170 -114q7 -3 17 -10t13 -9q13 -5 31 -16q36 22 82 72z" />
    <glyph glyph-name="dieresis" unicode="&#xa8;" horiz-adv-x="974"
d="M377 1556l-19 -24q9 -34 9 -70q0 -66 -41 -139q34 0 57 2h66q43 2 120 2q19 93 19 168l-2 57q-68 0 -105 2q-71 0 -104 2zM782 1552l-16 -16q-18 -70 -18 -143q0 -35 4 -64q62 -4 112 -4l125 -2q-22 64 -22 94q0 55 43 139l-129 -2q-17 0 -50 -1t-49 -1z" />
    <glyph glyph-name="copyright" unicode="&#xa9;" horiz-adv-x="1687"
d="M946 1448q-145 0 -276 -49q-142 -52 -244 -154v2q-118 -109 -178 -272q-53 -146 -53 -313q0 -250 145 -424q77 -93 215 -150q127 -51 260 -51q153 0 281 47q144 53 245 154q123 116 179 272q55 152 55 313q0 255 -145 422q-85 100 -218 154q-133 49 -266 49zM938 1329
q259 0 401 -166q121 -136 121 -350q0 -138 -43 -252q-52 -138 -151 -211v2q-192 -123 -428 -123q-96 0 -211 33q-106 29 -193 88q-129 123 -129 332q0 128 51 258q52 133 150 221q174 168 432 168zM1182 1106l14 16q-120 49 -246 49q-213 0 -340 -114q-70 -62 -110 -172
q-33 -87 -33 -201q0 -157 90 -260q110 -115 307 -115q148 0 275 51q0 50 6 91l8 110q-147 -65 -244 -65q-114 0 -186 57q-84 64 -84 168q0 142 94 256q81 90 211 90q119 0 250 -61l6 51q4 37 6 53z" />
    <glyph glyph-name="ordfeminine" unicode="&#xaa;" horiz-adv-x="1069"
d="M936 1143q4 46 4 74q0 129 -72 198q-83 62 -243 62q-151 0 -287 -43v-23q-2 -10 -2 -25v-20v-27q-2 -10 -2 -26v-23q164 57 264 60q75 -4 121 -23q69 -28 69 -108v-9q0 -8 -2 -10q-55 -4 -157 -4q-155 0 -267 -61q-48 -33 -81 -107q-27 -62 -27 -125q0 -105 70 -162
q64 -49 165 -49q155 0 263 105l-9 -86l72 -4q27 0 43 -2q18 0 43 -5q7 158 35 443zM657 1130h11q46 0 84 3h18v-3v-8l-2 -4q-3 -43 -23 -89.5t-49 -80.5q-68 -65 -166 -65q-44 0 -88 28q-39 31 -39 76q0 90 82 121q47 16 162 20q8 0 10 2zM252 602l-19 -16q0 -9 -4 -29
l-6 -33q-7 -41 -10 -61q193 18 342 18q148 0 344 -22v94v14q0 2 1 12.5t1 18.5q-187 16 -334 16q-159 0 -315 -12z" />
    <glyph glyph-name="guillemotleft" unicode="&#xab;" horiz-adv-x="1218"
d="M698 1038l-252 -192q-33 -26 -120.5 -95.5t-130.5 -103.5q-5 -16 -13 -33l-6 -16q-1 -1 -2 -3q-1 -3 -2 -3q0 -2 -4 -10q-5 -15 -12 -29q-6 -19 -13 -29q71 -81 197 -215q91 -99 201 -209l37 129l32 109q-131 138 -241 256q42 34 301 233zM1081 1014l-213 -166
q-55 -45 -137 -109q-106 -83 -139 -108l-25 -58q-12 -24 -14 -30l-14 -33q27 -30 213 -221l108 -115q19 -19 54 -53.5t51 -50.5q30 179 47 245l-246 265q64 52 72 57q12 8 34.5 27t34.5 28l168 133q20 107 35 166z" />
    <glyph glyph-name="logicalnot" unicode="&#xac;" horiz-adv-x="1673"
d="M231 870l-18 -24q15 -82 18 -182q518 0 1022 18q-51 -192 -51 -340v-14v-17v-16h84q15 -1 43 -2t41 -2l98 -2q-38 124 -38 248q0 153 59 333q-311 -12 -643 -12q-304 0 -615 12z" />
    <glyph glyph-name="softhyphen" unicode="&#xad;" horiz-adv-x="860"
d="M190 655l-18 -22q4 -20 4 -37q0 -48 -43 -121q85 4 283 8q98 2 280 2q-12 41 -12 62q0 47 43 119l-100 -2l-185 -7q-118 -4 -184 -4h-33q-12 0 -16 2h-19z" />
    <glyph glyph-name="registered" unicode="&#xae;" horiz-adv-x="1687"
d="M1430 1245q145 -167 145 -422q0 -161 -55 -313q-56 -156 -179 -272q-101 -101 -245 -154q-128 -47 -281 -47q-133 0 -260 51q-138 57 -215 150q-145 174 -145 424q0 167 53 313q60 163 178 272v-2q102 102 244 154q131 49 276 49q133 0 266 -49q133 -54 218 -154z
M1268 401l-2 -2q94 91 146 209.5t52 243.5q0 201 -123 324q-146 153 -403 153q-258 0 -430 -155q-99 -80 -148 -201q-49 -113 -49 -240q0 -220 158 -358q153 -131 375 -131q195 0 356 106h-10q-19 0 -29 2h-22q-62 0 -80 2q-15 24 -31 56l-29 55l-45 88q-2 2 -6 10
q-6 6 -6 10q-21 40 -45 70q-29 37 -59 43h-11h-8h-8h-12l-15 -149l-16 -185h-43h-37h-37h-94q3 34 17.5 178.5t21.5 225.5q21 240 31 401q84 -4 274 -4q148 0 227 -43q86 -56 86 -162q0 -83 -53 -149q-57 -66 -135 -84q9 -7 17.5 -16t14.5 -16t14.5 -20t12 -18.5t12.5 -21.5
t11 -19l12 -29l111 -204q6 5 18.5 15t18.5 15zM813 848h100q94 0 138 29q47 31 47 110q0 61 -54 82q-28 11 -98 16h-8h-31q-10 -2 -30 -2h-43q-3 -36 -9 -79l-6 -80z" />
    <glyph glyph-name="macron" unicode="&#xaf;" horiz-adv-x="937"
d="M371 1516l-19 -29q10 -17 10 -43q0 -34 -43 -92q49 0 78 2h168h76h76h166q27 -2 75 -2q-30 43 -30 69q0 34 45 95q-23 0 -78 -1.5t-84 -1.5h-84q-27 -2 -76 -2q-50 0 -280 5z" />
    <glyph glyph-name="degree" unicode="&#xb0;" horiz-adv-x="907"
d="M614 1499q-139 0 -227 -88q-51 -46 -78 -121q-22 -71 -22 -137q0 -110 61 -186q75 -84 215 -84q135 0 225 84q52 47 77.5 114.5t25.5 139.5q0 121 -78 202q-79 76 -199 76zM610 1403q61 0 105 -35q43 -37 43 -96q0 -73 -53 -123q-50 -47 -125 -47q-64 0 -107 37
q-45 38 -45 98q0 71 57 121q51 45 125 45z" />
    <glyph glyph-name="plusminus" unicode="&#xb1;" horiz-adv-x="1650"
d="M766 1253l-12 -141q-6 -100 -19 -221q-340 4 -512 12q0 -27 -2 -43q0 -8 -1 -24.5t-1 -24.5q-1 -8 -2 -25t-2 -24q0 -10 -1 -24.5t-1 -18.5q252 -6 508 -6q-4 -67 -16 -181q-15 -144 -17 -180h176l31 350v7v4q166 0 510 4q0 11 4 51q0 23 4 47q1 3 2 10t2 11q4 28 4 47
q2 8 2 18q-159 -6 -512 -10q12 148 37 362h-182zM168 215l-21 -16q-4 -29 -16 -95q-8 -37 -10 -51q-8 -33 -10 -45q373 25 645 25q266 0 628 -25q0 7 -1 23t-1 24q-2 18 -2 56q-4 74 -4 102q-328 20 -606 20q-237 0 -602 -18z" />
    <glyph glyph-name="twosuperior" unicode="&#xb2;" horiz-adv-x="993"
d="M551 854l51 45q127 110 174 162q90 104 119 203q2 8 2 32q0 107 -96 158q-77 39 -193 39q-115 0 -266 -41q-4 -32 -4 -63v-19v-20q-2 -8 -2 -23v-16q158 59 258 59q55 0 94 -29q45 -28 45 -79v-7v-8q-34 -74 -108 -155q-51 -53 -146 -136q-36 -31 -49 -41
q-16 -14 -45 -43q-22 -15 -66 -55l-40 -35v-8q-3 -6 -3 -10q0 -5 -4 -25q0 -8 -4 -28l-6 -29q-4 -20 -4 -25q179 19 311 19q124 0 297 -19v29q-2 25 -2 74v31q-153 12 -282 12h-50h-47z" />
    <glyph glyph-name="threesuperior" unicode="&#xb3;" horiz-adv-x="952"
d="M891 1313q0 104 -98 147q-70 33 -191 33q-89 0 -258 -23v-28v-21v-18v-12v-19q-2 -6 -2 -18v-15q152 31 233 31q60 0 101 -16q51 -20 51 -68q0 -62 -51 -92q-51 -31 -111 -31h-16q-6 0 -8 2h-9h-79q0 -5 -1 -19t-1 -22q-1 -4 -2.5 -19t-2.5 -22l-2 -41h95q2 2 10 2h8
q60 0 107 -26q51 -30 51 -86q0 -74 -70 -117q-53 -31 -137 -31q-47 0 -78 2t-76 11.5t-86 27.5l-6 -59q-2 -10 -6 -40t-6 -40q149 -27 252 -27q87 4 139 15q76 13 141 53q54 39 72 90q20 53 20 111q0 61 -36 110q-38 51 -95 72q61 21 105 78q43 56 43 125z" />
    <glyph glyph-name="acute" unicode="&#xb4;" horiz-adv-x="823"
d="M657 1616l-14 -6q-32 -36 -135 -162q-19 -21 -56.5 -65.5t-52.5 -61.5q-23 -26 -62 -70.5t-50 -56.5q6 1 21.5 2t23.5 2q8 0 26 1t27 1q74 4 98 4q65 61 183 187q32 36 53 57l61 63q51 51 121 117q-49 -6 -123 -6q-11 -1 -33 -2t-32 -2q-11 0 -30 -1t-26 -1z" />
    <glyph glyph-name="mu" unicode="&#xb5;" horiz-adv-x="1507"
d="M158 -377l20 -22q98 11 174 14q29 206 54 496q33 -56 98 -86q59 -29 133 -29h22q78 0 146 35q70 36 119 94q13 -58 49 -94q38 -41 94 -41q22 0 48 9.5t43 19t48 28.5q5 3 23.5 14.5t27.5 16.5q0 4 1.5 17t1.5 20q1 7 2 22t2 23q0 7 1 21.5t1 21.5q2 12 2 35l-37 -13
q-23 -10 -37 -10q-37 0 -57 10q-29 15 -29 39v4q43 468 106 828l-77 -4q-61 -7 -121 -7q-52 -359 -60 -423q-20 -148 -88 -232q-78 -72 -192 -72q-62 0 -101 15q-54 16 -86 57q-40 55 -40 156q0 23 2 37q8 146 12 479q-29 0 -45 2q-9 0 -26 1t-25 1l-99 6v-111
q0 -711 -110 -1378z" />
    <glyph glyph-name="paragraph" unicode="&#xb6;" horiz-adv-x="1564"
d="M743 1450q-112 0 -178 -18q-95 -23 -164 -78q-74 -54 -108 -148q-29 -80 -29 -176q0 -155 92 -264q94 -101 189 -123q-78 -466 -156 -805q19 1 78 4t92 4q61 2 170 2q19 245 127 1467q105 0 162 2q-95 -767 -131 -1473q170 -3 370 -28q-77 582 -77 1368q0 44 1 140t1 140
q-194 -14 -348 -14h-46h-45z" />
    <glyph glyph-name="periodcentered" unicode="&#xb7;" horiz-adv-x="557"
d="M229 846l-20 -21q0 -106 -27 -250q96 7 119 7q31 0 113 -7q0 146 26 273q-71 -8 -121 -8q-43 0 -90 6z" />
    <glyph glyph-name="cedilla" unicode="&#xb8;" horiz-adv-x="700"
d="M297 25h-29q-20 -2 -67 -2h-29q48 -88 49 -89q23 -48 23 -86q0 -35 -31 -59q-25 -22 -66 -22h-10h-14q-73 0 -133 32l-6 -47q-4 -30 -19 -102q93 -19 166 -19q106 0 174 31q41 20 64 70q20 41 20 88q0 85 -76 196z" />
    <glyph glyph-name="onesuperior" unicode="&#xb9;" horiz-adv-x="978"
d="M305 770l-6 -37q-3 -18 -6 -39l-2 -35q163 17 270 17q118 0 291 -19q-4 24 -4 60l2 69q-84 9 -193 13q24 346 64 682h-19q-16 -2 -47 -2h-18h-64q-131 -21 -231 -23v-31v-34v-15q-2 -6 -2 -18v-21v-14q26 0 88 8q54 7 88 12l33 5q-3 -55 -23 -275l-12 -135
q-3 -69 -12 -139q-92 -3 -178 -11z" />
    <glyph glyph-name="ordmasculine" unicode="&#xba;" horiz-adv-x="1091"
d="M666 1477q-80 0 -150 -21q-83 -27 -133 -80q-64 -61 -90 -157q-23 -85 -23 -175q0 -154 72 -249q46 -55 113 -76q60 -25 139 -25q85 0 147 21q71 20 131 80q69 69 99 178q24 88 24 192q0 138 -65 211h2q-47 58 -121 80q-59 21 -145 21zM659 1382h9q78 0 125 -47
q49 -49 49 -129q0 -102 -58 -182q-67 -84 -166 -84q-86 0 -135 55q-47 53 -47 142q0 123 68 186q56 59 155 59zM246 537l-10 -72q197 16 346 16q145 0 342 -16v18q-2 10 -2 21v49q0 13 2 25v24q-156 12 -328 12q-160 0 -324 -12l-16 -14z" />
    <glyph glyph-name="guillemotright" unicode="&#xbb;" horiz-adv-x="1253"
d="M256 1051v-27v-29q0 -45 -6 -110l26 -31q56 -66 109 -121l109 -121q-154 -113 -310 -239q-7 -115 -8 -127t-8 -127l65 51q5 4 61 46t85 63q58 45 65 51l252 190q-6 28 -10 66l-10 61q-219 240 -385 416zM676 1016l-8 -51q-4 -32 -9 -54l-8 -59l74 -80q80 -87 115 -129
l45 -51q-229 -176 -303 -232q2 -16 2 -57l6 -129q2 -20 2 -55q67 47 252 186q172 132 248 193l-17 77q0 9 -4 25q0 9 -4 25q-245 282 -356 401z" />
    <glyph glyph-name="onequarter" unicode="&#xbc;" horiz-adv-x="1779"
d="M1247 1120q-164 -240 -272 -401q-296 -440 -502 -723l-43 -4q-4 -1 -15 -2t-16 -2q-13 0 -41 -4q-15 0 -39 -4q-23 -3 -30 -5q114 158 266 379l133 195q14 20 40.5 58.5t39.5 58.5q-127 10 -207 10q-107 0 -270 -17l2 35l6 39q1 6 3 18.5t3 18.5l19 18q86 8 178 11
q9 70 12 139l12 135q20 220 23 275l-33 -5q-34 -5 -88 -12q-62 -8 -88 -8v14v21q0 12 2 18v15v34v31q100 2 231 23h64h18q31 0 47 2h19q-40 -336 -64 -682q109 -4 193 -13q264 395 487 703l15 8q9 0 41 4q13 0 49 4l49 6q35 5 39 5q-41 -55 -86 -118t-107.5 -152t-89.5 -126
zM1505 293h29q8 -2 22 -2q0 -3 -1 -14.5t-1 -20.5q-1 -6 -2 -18.5t-2 -16.5q0 -33 -4 -51h-26h-27q-12 0 -20 2q-7 0 -23 1t-25 1q-4 -55 -4 -176q-23 0 -37 2h-43q-16 0 -43 1t-36 1q4 36 4 68q4 54 4 67l4 39h-60q-125 0 -325 -8q1 4 2 15t2 16q4 23 8 69q4 24 4 31
q182 237 402 494l16 6l168 6q-35 -207 -57 -510h10h8q6 0 25 -1t28 -1zM1217 297h63q16 178 33 346q-35 -41 -101 -123q-78 -96 -102 -125l-80 -100q27 0 43 2h49h52h43z" />
    <glyph glyph-name="onehalf" unicode="&#xbd;" horiz-adv-x="2099"
d="M1530 1516q-41 -55 -86 -118t-107.5 -152t-89.5 -126q-164 -240 -272 -401q-296 -440 -502 -723l-43 -4q-4 -1 -15 -2t-16 -2q-13 0 -41 -4q-15 0 -39 -4q-23 -3 -30 -5q114 158 266 379l133 195q14 20 40.5 58.5t39.5 58.5q-127 10 -207 10q-107 0 -270 -17l2 35l6 39
q1 6 3 18.5t3 18.5l19 18q86 8 178 11q9 70 12 139l12 135q20 220 23 275l-33 -5q-34 -5 -88 -12q-62 -8 -88 -8v14v21q0 12 2 18v15v34v31q100 2 231 23h64h18q31 0 47 2h19q-40 -336 -64 -682q109 -4 193 -13q264 395 487 703l15 8q9 0 41 4q13 0 49 4l49 6q35 5 39 5z
M1516 188l-66 -53q14 2 47 2h47q129 0 285 -12v-31q0 -51 2 -74v-28q-163 18 -297 18q-108 0 -311 -18q0 4 4 24l6 29q4 20 4 29q0 8 4 24v11l2 8l39 35q22 20 66 55l47 43q34 30 49 41q96 83 143 135q73 74 111 156v8v6q0 50 -45 80q-43 29 -94 29q-100 0 -261 -62
q0 11 2 19v20q0 14 3 23v18q0 7 1 30t1 33q154 41 268 41q113 0 190 -39q99 -50 99 -157q0 -8 -1 -19t-1 -14q-32 -102 -119 -203q-47 -52 -174 -162z" />
    <glyph glyph-name="threequarters" unicode="&#xbe;" horiz-adv-x="1746"
d="M1217 1120q-158 -225 -275 -401q-296 -440 -502 -723l-43 -4q-4 -1 -8 -1.5t-10.5 -1t-11.5 -1.5q-15 0 -39 -4q-17 0 -41 -4q-4 -1 -11 -2t-11.5 -1.5t-8.5 -1.5q114 158 266 379q15 22 42.5 61.5t49.5 72t41 61.5l117 172q-57 -33 -131 -47q-52 -11 -139 -15
q-104 0 -252 27q2 10 6 40t6 40l6 59q59 -26 113.5 -33.5t126.5 -7.5q84 0 137 31q70 43 70 117q0 56 -51 86q-47 26 -107 26h-8q-8 0 -10 -2h-95l2 41q1 7 2.5 22t2.5 19q0 8 1 22t1 19h79h9q2 -2 8 -2h16q60 0 111 31q51 30 51 92q0 48 -51 68q-41 16 -101 16
q-81 0 -233 -31v15q0 12 2 18v19v12v18v21v28q169 23 258 23q121 0 191 -33q98 -43 98 -147q0 -69 -43 -125q-44 -57 -105 -78q57 -21 95 -72q36 -49 36 -110q0 -37 -8 -68q248 363 441 629l12 8q9 0 41 4q17 0 49 4l49 6q35 5 39 5q-88 -120 -280 -396zM1473 293h28
q8 -2 25 -2q-1 -4 -1.5 -9t-1 -12.5t-1.5 -13.5q0 -8 -1 -20t-1 -15q0 -15 -4 -51h-29h-25q-14 0 -20 2q-6 0 -23 1t-26 1q-4 -110 -4 -176q-23 0 -35 2h-43q-17 0 -45 1t-35 1q0 14 4 68q0 15 1 37t1 30l4 39h-57q-124 0 -328 -8q1 4 2 15t2 16q2 11 5 34t5 35q0 15 4 31
q182 237 402 494l14 6l168 6q-35 -207 -57 -510h10h10q5 0 23.5 -1t28.5 -1zM1184 297h65q10 147 31 346q-18 -21 -100 -123l-101 -125l-82 -100q27 0 43 2h52h51h41z" />
    <glyph glyph-name="questiondown" unicode="&#xbf;" horiz-adv-x="1103"
d="M719 1214l12 123q4 28 14 123q-29 -4 -106 -4q-20 -2 -59 -2h-52q-3 -29 -6 -61l-6 -70q-3 -29 -8 -129q133 0 192 2zM489 952l-2 -24q-9 -74 -18 -97q-3 -8 -7 -15.5t-7.5 -13.5t-10 -13.5t-10 -12t-11.5 -13t-11 -11.5l-13 -13l-12 -12l-12 -10v2l-41 -39
q-8 -8 -29 -28t-30.5 -29t-27 -26.5t-28 -30t-24 -28t-23.5 -30.5q-70 -99 -70 -221q0 -148 119 -221q99 -58 248 -58q202 0 387 86q0 39 2 64q0 11 1 33.5t1 35.5l6 133q-92 -53 -176 -86q-100 -34 -174 -34q-80 0 -133 34q-64 41 -64 115q0 52 35 113q29 42 82 88
q138 119 185 194q23 40 36 136l13 157h-37h-45h-47h-39z" />
    <glyph glyph-name="Agrave" unicode="&#xc0;" horiz-adv-x="1669"
d="M598 1659q-26 31 -70 86q-6 6 -15.5 18t-14.5 17q38 -6 100 -6q18 -2 55 -2q24 -3 45 -3l15 -8q33 -44 63 -94q8 -14 24.5 -39t22.5 -35q21 -31 74 -94q-18 0 -88 4q-35 0 -49 2h-39q-8 10 -24.5 30t-22.5 28l-45 57q-18 18 -31 39zM1208 545q100 -314 197 -539l-152 12
q-149 11 -153 11q-33 143 -51 233q-102 2 -306 2q-200 0 -309 -2q-6 -16 -51 -119q-6 -13 -27 -53t-30 -61q-40 -4 -68 -4l-78 -7l-39 -3l-39 -3l-67 -6q92 157 190.5 349.5t155 312t158.5 340.5q123 270 209 446h196q46 -154 111 -385q98 -348 153 -524zM999 508l-49 205
q-15 72 -49 205l-37 159q-23 101 -39 162l-118 -297q-91 -221 -183 -434h119h117h67h66h106z" />
    <glyph glyph-name="Aacute" unicode="&#xc1;" horiz-adv-x="1669"
d="M823 1503q-12 -2 -35 -2q-50 -4 -63 -4q40 40 90 98q44 47 68 80l73 88l15 6q17 0 47 3q37 0 55 2q67 0 105 6q-86 -82 -103 -99l-35 -34q-8 -10 -19 -22.5t-29 -32t-31 -33.5q-9 -8 -18.5 -17.5t-20 -20.5t-15.5 -16l-57 -2h-27zM1208 545q100 -314 197 -539l-152 12
q-149 11 -153 11q-33 143 -51 233q-102 2 -306 2q-200 0 -309 -2q-6 -16 -51 -119q-6 -13 -27 -53t-30 -61q-40 -4 -68 -4l-78 -7l-39 -3l-39 -3l-67 -6q92 157 190.5 349.5t155 312t158.5 340.5q123 270 209 446h196q46 -154 111 -385q98 -348 153 -524zM999 508l-49 205
q-15 72 -49 205l-37 159q-23 101 -39 162l-118 -297q-91 -221 -183 -434h119h117h67h66h106z" />
    <glyph glyph-name="Acircumflex" unicode="&#xc2;" horiz-adv-x="1669"
d="M569 1522h-26h-19q81 72 123 116q10 11 84 101l43 53h193l30 -47q38 -66 70 -105q44 -60 107 -118h-19h-25h-26h-17q-25 2 -81 2q-45 42 -119 135l-13 12l-4 5q-4 6 -8 10l-14 -17q-120 -115 -156 -145q-55 0 -80 -2h-16h-27zM1208 545q100 -314 197 -539l-152 12
q-149 11 -153 11q-33 143 -51 233q-102 2 -306 2q-200 0 -309 -2q-6 -16 -51 -119q-6 -13 -27 -53t-30 -61q-40 -4 -68 -4l-78 -7l-39 -3l-39 -3l-67 -6q92 157 190.5 349.5t155 312t158.5 340.5q123 270 209 446h196q46 -154 111 -385q98 -348 153 -524zM999 508l-49 205
q-15 72 -49 205l-37 159q-23 101 -39 162l-118 -297q-91 -221 -183 -434h119h117h67h66h106z" />
    <glyph glyph-name="Atilde" unicode="&#xc3;" horiz-adv-x="1669"
d="M668 1534h-23q-6 -2 -20 -2h-19l27 63q4 8 10.5 23t9.5 22q12 27 23 43q24 37 61 56.5t74 19.5h16q46 0 83.5 -15t86.5 -46v2l13 -10q31 -21 65 -21q2 4 8 8q30 21 56 35q5 2 12 6.5t10 5.5l-10 35q25 2 74 2h14q12 0 18 2h19h14l-24 -53q-35 -79 -68 -117
q-47 -57 -115 -57q-72 0 -149 41q-18 9 -33 18q-52 33 -76 33q-28 0 -49 -31q-18 -26 -28 -61l-35 6q0 -6 -8 -6q-12 -2 -37 -2zM1208 545q100 -314 197 -539l-152 12q-149 11 -153 11q-33 143 -51 233q-102 2 -306 2q-200 0 -309 -2q-6 -16 -51 -119q-6 -13 -27 -53
t-30 -61q-40 -4 -68 -4l-78 -7l-39 -3l-39 -3l-67 -6q92 157 190.5 349.5t155 312t158.5 340.5q123 270 209 446h196q46 -154 111 -385q98 -348 153 -524zM999 508l-49 205q-15 72 -49 205l-37 159q-23 101 -39 162l-118 -297q-91 -221 -183 -434h119h117h67h66h106z" />
    <glyph glyph-name="Adieresis" unicode="&#xc4;" horiz-adv-x="1669"
d="M549 1903l-19 -25q9 -34 9 -70q0 -66 -41 -139q34 0 57 2h66q43 2 120 2q19 93 19 168l-2 57q-50 0 -105 3q-71 0 -104 2zM954 1898l-16 -16q-18 -70 -18 -143q0 -35 4 -64q62 -4 112 -4l125 -2q-22 64 -22 94q0 56 43 140l-129 -2q-17 0 -50 -1.5t-49 -1.5zM944 1454
h-196q-86 -176 -209 -446q-102 -221 -158.5 -340.5t-155 -312t-190.5 -349.5l67 6l39 3l39 3l78 7q28 0 68 4q9 21 30 61t27 53q45 103 51 119q109 2 309 2q204 0 306 -2q18 -90 51 -233q5 0 153 -11l152 -12q-97 225 -197 539q-55 176 -153 524q-65 231 -111 385zM864 1077
l37 -159q34 -133 49 -205l49 -205h-106h-66h-67h-117h-119q92 213 183 434l118 297q16 -62 39 -162z" />
    <glyph glyph-name="Aring" unicode="&#xc5;" horiz-adv-x="1669"
d="M649 1280l-35 -74q-160 -351 -280 -604q-143 -298 -301 -598q45 6 53 8l127 13q27 0 55 4q105 212 176 368q181 6 347 6q178 0 270 -4q54 -192 115 -370q13 0 53 -4l61 -7q82 -8 113 -12q-93 239 -184 543q-71 229 -152 520l-80 285q64 45 100.5 112.5t36.5 143.5
q0 99 -69 168q-68 65 -170 65q-128 0 -211 -80q-88 -85 -88 -204q0 -123 96 -203q-7 -17 -33 -76zM987 1579v-2q-6 -56 -47 -94q-44 -41 -94 -41q-53 0 -88 35q-37 34 -37 86q0 63 45 102q41 41 102 41q50 0 86 -31q35 -30 35 -84v-6q0 -4 -2 -6zM891 995l55 -207
q22 -86 58 -208h-58h-51h-53h-58h-127q-84 0 -127 -2q9 19 52 113t65 143q22 51 58 124q27 64 57 132l63 143z" />
    <glyph glyph-name="AE" unicode="&#xc6;" horiz-adv-x="2144"
d="M1982 1458l-20 25q-431 -29 -887 -29h-145q-26 0 -75.5 1t-72.5 1l-114 -244q-180 -388 -287 -598q-164 -323 -346 -608l94 6q31 2 101.5 6.5t107.5 6.5q34 0 92 4l27 194l6 56q249 6 477 6v-19q-2 -10 -2 -26q-2 -6 -2 -19q-8 -72 -16 -184q235 0 481 -6q131 -5 477 -23
q-1 16 -5 63t-5 74q-8 98 -8 138q-347 15 -707 18l8 119l10 123q431 0 650 -4q6 90 8 104q0 11 2 19v20q2 16 2 41h-647q14 170 26 276q14 156 29 277q371 3 705 20q22 115 36 162zM823 1055l99 231q18 -2 55 -2h51q-12 -129 -35.5 -402t-36.5 -419q-137 0 -200 -2
q-31 0 -97 -1t-102 -1q83 173 266 596z" />
    <glyph glyph-name="Ccedilla" unicode="&#xc7;" horiz-adv-x="1529"
d="M1372 1358l25 -2q-1 -4 -4 -22.5t-4 -28.5q-10 -50 -11 -60q-5 -23 -16 -112q-84 84 -187 128t-210 44q-103 0 -205 -27q-110 -32 -185 -107h3q-94 -99 -134 -241q-32 -113 -32 -258q0 -88 18 -146q22 -71 72 -118v2q67 -56 172 -76q86 -19 192 -19q107 0 219 47
q112 48 213 136q0 -5 -6 -164q-4 -118 -4 -164v-43q-191 -119 -446 -119q-49 0 -74 2q18 -43 18 -92q0 -47 -20 -88q-23 -47 -64 -70q-63 -28 -174 -28q-72 0 -166 16q14 66 19 105l6 47q58 -33 133 -33h15q2 -2 10 -2q40 0 65 22q31 24 31 62q0 36 -23 84q-23 5 -61 16
q-147 51 -238 150q-66 82 -98 202q-26 104 -26 230q0 173 47 342q61 202 172 315q106 103 266 154q129 39 295 39q256 0 416 -113z" />
    <glyph glyph-name="Egrave" unicode="&#xc8;" horiz-adv-x="1531"
d="M625 1761l-15 8q-21 0 -45 3q-37 0 -55 2q-63 0 -100 6q5 -5 14.5 -17t15.5 -18q44 -55 70 -86q13 -21 31 -39q8 -9 24.5 -30t20.5 -27q6 -8 22.5 -28t24.5 -30h39q14 -2 49 -2q70 -4 88 -4q-53 63 -74 94q-6 10 -22.5 35t-24.5 39q-30 50 -63 94zM459 1485l-25 -21
q-6 -729 -129 -1458q267 31 490 31q217 0 471 -31v78q0 55 2 86q0 66 4 160q-243 18 -455 18q-84 0 -252 -4q2 33 10 90q1 16 11 88q7 67 14 180h307h172h172q0 15 2 25v27q7 68 17 133q-411 -6 -430 -6q-39 0 -112.5 1t-111.5 1q9 104 15 200q9 94 12 197q138 -6 264 -6
q229 0 441 22q2 14 8 51.5t8 55.5l14 82q-260 -31 -479 -31q-215 0 -440 31z" />
    <glyph glyph-name="Eacute" unicode="&#xc9;" horiz-adv-x="1441"
d="M913 2322l-14 -6q-32 -36 -135 -162q-19 -22 -60.5 -69.5t-48.5 -56.5q-23 -26 -62 -70.5t-50 -56.5q7 1 22 2t23 2q8 0 26 1t27 1q74 4 98 4q73 68 183 186q32 36 53 57l61 64q51 51 121 117q-50 -6 -123 -6q-10 -1 -32 -2.5t-33 -2.5q-11 0 -30 -1t-26 -1zM367 1485
l-23 -21q-6 -729 -129 -1458q267 31 487 31q217 0 474 -31v78v86q6 156 6 160q-243 18 -457 18q-80 0 -252 -4q8 63 10 90q11 82 11 88q12 120 16 180h307h172h172v25q2 12 2 27q3 67 17 133q-411 -6 -432 -6q-38 0 -111 1t-111 1q6 106 15 200l12 197q138 -6 262 -6
q227 0 442 22q6 46 17 107l12 82q-260 -31 -477 -31t-442 31z" />
    <glyph glyph-name="Ecircumflex" unicode="&#xca;" horiz-adv-x="1441"
d="M641 1772l-43 -54q-55 -67 -84 -98q-44 -49 -123 -119h19h26h27h16q25 2 80 2q47 39 156 148l14 14l12 -12q7 -7 13 -15q76 -97 118 -135q57 0 82 -2h17h26h27h16q-58 53 -106 119q-39 50 -70 104l-30 48h-193zM367 1485l-23 -21q-6 -729 -129 -1458q267 31 487 31
q217 0 474 -31v78v86q6 156 6 160q-243 18 -457 18q-80 0 -252 -4q8 63 10 90q11 82 11 88q12 120 16 180h307h172h172v25q2 12 2 27q3 67 17 133q-411 -6 -432 -6q-38 0 -111 1t-111 1q6 106 15 200l12 197q138 -6 262 -6q227 0 442 22q6 46 17 107l12 82
q-260 -31 -477 -31t-442 31z" />
    <glyph glyph-name="Edieresis" unicode="&#xcb;" horiz-adv-x="1441"
d="M535 1749l-21 -27q10 -25 10 -61q0 -62 -37 -129h35q27 0 39 2h41h33q23 0 39 2h37q18 82 18 158v6q-2 2 -2 8v37q-61 0 -94 2q-67 0 -98 2zM909 1745l-16 -14q-19 -74 -19 -136l3 -59h38q16 -2 39 -2h35h39q12 -2 39 -2h33q-21 65 -21 88q0 45 41 129h-49q-18 -2 -55 -2
q-37 -2 -107 -2zM367 1485l-23 -21q-6 -729 -129 -1458q267 31 487 31q217 0 474 -31v78v86q6 156 6 160q-243 18 -457 18q-80 0 -252 -4q8 63 10 90q11 82 11 88q12 120 16 180h307h172h172v25q2 12 2 27q3 67 17 133q-411 -6 -432 -6q-38 0 -111 1t-111 1q6 106 15 200
l12 197q138 -6 262 -6q227 0 442 22q6 46 17 107l12 82q-260 -31 -477 -31t-442 31z" />
    <glyph glyph-name="Igrave" unicode="&#xcc;" horiz-adv-x="1105"
d="M625 1761l-15 8q-21 0 -45 3q-37 0 -55 2q-63 0 -100 6q5 -5 14.5 -17t15.5 -18q44 -55 70 -86q13 -21 31 -39q8 -9 24.5 -30t20.5 -27q6 -8 22.5 -28t24.5 -30h39q14 -2 49 -2q70 -4 88 -4q-53 63 -74 94q-6 10 -22.5 35t-24.5 39q-30 50 -63 94zM764 1466l-27 -16
q-76 -801 -157 -1454q84 41 135 41q52 0 123 -41q17 341 49 745q20 280 59 746q-78 -33 -112 -33q-24 0 -70 12z" />
    <glyph glyph-name="Iacute" unicode="&#xcd;" horiz-adv-x="940"
d="M602 1864l-74 -88q-21 -28 -65 -80q-42 -49 -90 -99q5 0 14.5 1t23.5 2t23 2q25 0 35 2h27q8 0 28.5 1t28.5 1l53 53q12 13 41 44t39 44q23 23 37 35q31 33 100 96q-50 -4 -102 -4q-20 -2 -57 -2q-20 -2 -48 -2zM598 1466l-27 -16q-76 -801 -157 -1454q84 41 135 41
q52 0 123 -41q17 341 49 745q20 280 59 746q-78 -33 -112 -33q-24 0 -70 12z" />
    <glyph glyph-name="Icircumflex" unicode="&#xce;" horiz-adv-x="1075"
d="M557 1718h2q-42 -51 -86 -98q-42 -50 -123 -119h19h26h29h16q25 2 78 2q61 49 156 148l16 14q4 -6 10 -12q7 -7 13 -15q68 -87 121 -135q56 0 79 -2h19h24h27h16q-52 47 -104 119q-23 29 -72 104l-28 48h-193zM733 1466l-26 -16q-73 -767 -158 -1454q80 41 135 41
q52 0 123 -41q14 283 47 745q25 319 61 746q-78 -33 -112 -33q-24 0 -70 12z" />
    <glyph glyph-name="Idieresis" unicode="&#xcf;" horiz-adv-x="925"
d="M418 1749l-21 -27q11 -27 11 -61q0 -62 -37 -129h35q24 0 38 2h41h33q23 0 37 2h39q18 99 18 158v6q-2 2 -2 8v37q-61 0 -96 2q-65 0 -96 2zM793 1745l-19 -14q-16 -75 -16 -136l2 -59h39q16 -2 39 -2h34h39q12 -2 37 -2h35q-20 62 -20 88q0 45 41 129h-50q-18 -2 -57 -2
q-37 -2 -104 -2zM555 1466l-25 -16q-69 -733 -159 -1454q84 41 137 41t121 -41q17 341 49 745q9 128 61 746q-78 -33 -114 -33q-20 0 -70 12z" />
    <glyph glyph-name="Eth" unicode="&#xd0;" horiz-adv-x="1675"
d="M1536 1106q25 -97 25 -217q0 -116 -17 -232q-16 -137 -63 -247q-55 -133 -148 -211q-122 -95 -301 -133q-116 -25 -319 -29q-67 0 -211 -4q-33 -2 -104.5 -5t-106.5 -5q61 335 92 667h-180q2 10 2 39q1 6 2 19.5t2 17.5v20q2 6 2 23q0 16 2 22v21h41q31 -2 90 -2
q14 -2 51 -2q23 292 23 602l20 18q119 -8 346 -12h27q8 -2 23 -2q213 -4 317 -27q181 -40 281 -135q70 -70 104 -186zM1317 590q26 104 26 268q0 94 -18 160q-22 80 -70 137q-77 74 -186 98q-100 25 -217 25l-221 2l-13 -215q-8 -146 -16 -217h309l-14 -156h-154
q-102 0 -153 -2q-8 -82 -10 -121q-10 -105 -27 -237q-3 -31 -16 -123q18 1 54 2t54 2q145 0 221 6q125 10 221 55q56 27 95 66q90 81 135 250z" />
    <glyph glyph-name="Ntilde" unicode="&#xd1;" horiz-adv-x="1579"
d="M842 1577q77 -41 149 -41q67 0 117 57q32 39 66 117l24 53h-14h-19q-6 -2 -18 -2h-14q-49 0 -74 -2l10 -35l-8 -5q-8 -5 -14 -7q-26 -14 -56 -35l-8 -8q-33 0 -65 21l-13 10v-2q-94 61 -170 61h-14q-39 0 -76 -19.5t-61 -56.5q-11 -16 -23 -43q-11 -29 -20 -45l-27 -63
h18q15 0 23 2h20q25 0 37 2q9 0 9 6l34 -6q10 32 29 61q21 31 49 31q24 0 76 -33q15 -9 33 -18zM358 1450l-22 -18q-18 -711 -168 -1426q2 0 54.5 6t80.5 8q15 0 72 5q46 4 63 4q56 606 62 1163q49 -108 104 -242q17 -42 52 -123t51 -120q184 -432 307 -674q24 -2 75.5 -5
t73.5 -5q31 -2 84.5 -8t65.5 -7l-2 135q0 631 131 1344q-13 0 -45 -4l-56 -6q-36 -4 -55 -4q-45 -5 -47 -5q-103 -538 -145 -1122q-23 47 -54 115q-24 49 -92 203q-8 19 -26 57.5t-25 54.5q-186 430 -303 656q-15 0 -25 2h-24q-122 8 -187 16z" />
    <glyph glyph-name="Ograve" unicode="&#xd2;"
d="M756 1862l-17 8q-27 0 -45 2q-35 0 -53 2q-50 0 -100 4q10 -11 28 -35q14 -15 38.5 -45t33.5 -41q5 -7 29 -37q6 -7 21.5 -26.5t25.5 -30.5q40 -50 47 -57h39q14 -2 49 -2q83 -5 86 -5l-74 95q-7 10 -47 73q-34 59 -61 95zM909 1481q-149 0 -268 -43q-138 -47 -233 -150
h2q-118 -123 -170 -323q-41 -155 -41 -347q0 -117 26 -221q30 -121 90 -194q71 -98 201 -148q116 -45 252 -45q150 0 274 41q140 46 238 150q112 128 166 321q45 160 45 348q0 122 -25 222q-30 115 -92 194q-69 98 -207 150q-116 45 -258 45zM897 1305q93 0 173 -37
t128 -107q76 -123 76 -317q0 -114 -23 -203q-35 -128 -116 -180q-130 -72 -324 -72q-88 0 -162 14q-90 18 -147 56q-50 28 -70 94q-16 49 -16 123q0 129 33 250q38 140 114 231q54 70 152 113q80 35 182 35z" />
    <glyph glyph-name="Oacute" unicode="&#xd3;"
d="M799 1864l-74 -88q-24 -33 -68 -80q-38 -47 -90 -99q5 0 14.5 1t24.5 2t25 2q23 0 35 2h26q8 0 28.5 1t29.5 1q5 5 15.5 16t19.5 20t18 17l80 88l35 35q37 38 102 96q-50 -4 -105 -4q-18 -2 -57 -2q-18 -2 -47 -2zM909 1481q-149 0 -268 -43q-138 -47 -233 -150h2
q-118 -123 -170 -323q-41 -155 -41 -347q0 -117 26 -221q30 -121 90 -194q71 -98 201 -148q116 -45 252 -45q150 0 274 41q140 46 238 150q112 128 166 321q45 160 45 348q0 122 -25 222q-30 115 -92 194q-69 98 -207 150q-116 45 -258 45zM897 1305q93 0 173 -37t128 -107
q76 -123 76 -317q0 -114 -23 -203q-35 -128 -116 -180q-130 -72 -324 -72q-88 0 -162 14q-90 18 -147 56q-50 28 -70 94q-16 49 -16 123q0 129 33 250q38 140 114 231q54 70 152 113q80 35 182 35z" />
    <glyph glyph-name="Ocircumflex" unicode="&#xd4;"
d="M719 1718h2q-10 -11 -26.5 -30.5t-30.5 -35.5t-29 -32q-44 -49 -123 -119h18h27h27h16q25 2 80 2q47 39 156 148l16 14q4 -6 10 -12q3 -3 12 -15q74 -93 119 -135q57 0 82 -2h17h26h27h16q-58 53 -106 119q-39 50 -70 104l-31 48h-190zM909 1481q-149 0 -268 -43
q-138 -47 -233 -150h2q-118 -123 -170 -323q-41 -155 -41 -347q0 -117 26 -221q30 -121 90 -194q71 -98 201 -148q116 -45 252 -45q150 0 274 41q140 46 238 150q112 128 166 321q45 160 45 348q0 122 -25 222q-30 115 -92 194q-69 98 -207 150q-116 45 -258 45zM897 1305
q93 0 173 -37t128 -107q76 -123 76 -317q0 -114 -23 -203q-35 -128 -116 -180q-130 -72 -324 -72q-88 0 -162 14q-90 18 -147 56q-50 28 -70 94q-16 49 -16 123q0 129 33 250q38 140 114 231q54 70 152 113q80 35 182 35z" />
    <glyph glyph-name="Otilde" unicode="&#xd5;"
d="M975 1577h2q77 -41 147 -41t117 57q25 28 68 117l22 53h-12h-19q-8 -2 -20 -2h-12q-51 0 -76 -2l10 -35l-8 -5q-8 -5 -14 -7q-43 -26 -54 -35q-8 -5 -8 -8q-36 0 -67 21q-1 2 -6 5t-7 5l2 -2q-49 31 -86.5 46t-83.5 15h-16q-39 0 -76 -19.5t-61 -56.5q-18 -32 -23 -43
l-18 -45l-27 -63h17q14 0 22 2h21q26 0 36 2q9 0 9 6l37 -6q6 31 26 61q24 31 49 31q7 0 14.5 -1.5t12 -3t13 -6t11.5 -6.5t13 -8.5t12 -7.5q18 -9 33 -18zM909 1481q-149 0 -268 -43q-138 -47 -233 -150h2q-118 -123 -170 -323q-41 -155 -41 -347q0 -117 26 -221
q30 -121 90 -194q71 -98 201 -148q116 -45 252 -45q150 0 274 41q140 46 238 150q112 128 166 321q45 160 45 348q0 122 -25 222q-30 115 -92 194q-69 98 -207 150q-116 45 -258 45zM897 1305q93 0 173 -37t128 -107q76 -123 76 -317q0 -114 -23 -203q-35 -128 -116 -180
q-130 -72 -324 -72q-88 0 -162 14q-90 18 -147 56q-50 28 -70 94q-16 49 -16 123q0 129 33 250q38 140 114 231q54 70 152 113q80 35 182 35z" />
    <glyph glyph-name="Odieresis" unicode="&#xd6;"
d="M655 1749l-20 -27q10 -33 10 -61q0 -63 -39 -129h35q27 0 41 2h41h33q21 0 37 2h36q21 96 21 158v6q-2 2 -2 8v37q-61 0 -96 2q-68 0 -97 2zM1030 1745l-18 -14q-17 -67 -17 -136q0 -47 2 -59h39q16 -2 39 -2h35h39q12 -2 37 -2h35q-21 56 -21 88q0 49 39 129h-47
q-20 -2 -57 -2q-37 -2 -105 -2zM909 1481q-149 0 -268 -43q-138 -47 -233 -150h2q-118 -123 -170 -323q-41 -155 -41 -347q0 -117 26 -221q30 -121 90 -194q71 -98 201 -148q116 -45 252 -45q150 0 274 41q140 46 238 150q112 128 166 321q45 160 45 348q0 122 -25 222
q-30 115 -92 194q-69 98 -207 150q-116 45 -258 45zM897 1305q93 0 173 -37t128 -107q76 -123 76 -317q0 -114 -23 -203q-35 -128 -116 -180q-130 -72 -324 -72q-88 0 -162 14q-90 18 -147 56q-50 28 -70 94q-16 49 -16 123q0 129 33 250q38 140 114 231q54 70 152 113
q80 35 182 35z" />
    <glyph glyph-name="multiply" unicode="&#xd7;" horiz-adv-x="1423"
d="M893 662l401 376q-13 17 -20 29q-9 9 -25 29l-47 53h2l-53 63q-344 -308 -416 -376q-76 88 -106 120l-113 119l-96 107l-58 -56q-5 -5 -16.5 -15.5t-21.5 -21t-19 -20.5q-10 -9 -20.5 -19t-21 -21.5t-15.5 -16.5l203 -236q19 -19 51 -55q10 -12 29.5 -33.5t21.5 -23.5
q-141 -131 -182 -170l-207 -195q2 -3 6 -8t6 -8l17 -19q2 -4 16 -18q2 -4 12 -19l84 -100q196 170 404 362q174 -196 340 -362q18 15 43 43l43 43l43 43l43 43q-150 162 -328 363z" />
    <glyph glyph-name="Oslash" unicode="&#xd8;"
d="M1597 1450l-55 -57q-11 -12 -30 -31.5t-25 -26.5l-86 -90q90 -160 90 -389q0 -178 -47 -342q-54 -184 -166 -313q-95 -100 -236 -150q-124 -41 -270 -41q-240 0 -397 127q-27 -27 -39 -41q-13 -13 -42.5 -43.5t-51.5 -52.5q-28 -32 -54 -55l-20 20l-27 27l-26 26
q-4 4 -8.5 8t-8.5 8.5t-6 6.5q66 70 109 113l84 90q-88 153 -88 381q0 182 43 344q58 202 168 317q90 99 233 150q119 43 266 43q115 0 217 -29q116 -39 187 -100q59 63 188 192q3 -3 7 -6.5t11 -8.5t11 -9q18 -21 28 -29l13 -12q22 -22 28 -27zM389 729q0 -132 96 -260
l293 313q266 287 389 416q-49 78 -108 107q-89 36 -203 36q-93 0 -174 -34q-92 -45 -147 -111q-74 -92 -111 -223q-35 -112 -35 -244zM1278 825q2 20 2 62q0 94 -39 186l-285 -307q-33 -37 -98 -106.5t-90 -96.5q-62 -71 -190 -205q49 -29 92 -34q47 -2 143 -2
q105 16 162 38q87 31 141 82q61 61 105 168q21 58 55 191v12q2 4 2 12z" />
    <glyph glyph-name="Ugrave" unicode="&#xd9;" horiz-adv-x="1523"
d="M715 1862l-15 8q-29 0 -45 2q-37 0 -55 2q-50 0 -100 4l9 -9t11 -13t10 -13q26 -31 70 -86q15 -21 31 -37l45 -57q31 -38 47 -57h39q14 -2 49 -2l88 -5q-50 59 -74 95q-38 57 -47 73q-50 77 -63 95zM342 1464v-69q0 -380 -43 -828q-8 -82 -8 -127q0 -86 20 -159
q24 -91 76 -148q71 -74 182 -100q97 -25 215 -25q124 0 224 27q121 33 206 115q81 87 111 196q28 87 39 217q41 538 117 922l-76 -6q-37 -5 -143 -15q-22 -123 -27 -180q-33 -226 -45 -375q-11 -85 -21 -182q-7 -97 -28 -168q-27 -92 -74 -153q-43 -48 -119 -72
q-64 -19 -141 -19q-76 0 -137 17q-68 18 -109 71h2q-51 76 -51 215q0 35 4 105q36 439 41 739q-66 4 -192 21z" />
    <glyph glyph-name="Uacute" unicode="&#xda;" horiz-adv-x="1523"
d="M1124 2322l-14 -6q-32 -36 -135 -162q-19 -22 -60.5 -69.5t-48.5 -56.5q-23 -26 -62 -70.5t-50 -56.5q7 1 22 2t23 2q8 0 26 1t27 1q74 4 98 4q73 68 183 186q32 36 53 57l61 64q51 51 121 117q-49 -6 -123 -6q-10 -1 -32 -2.5t-33 -2.5q-10 0 -29 -1t-27 -1zM342 1464
v-69q0 -380 -43 -828q-8 -82 -8 -127q0 -86 20 -159q24 -91 76 -148q71 -74 182 -100q97 -25 215 -25q124 0 224 27q121 33 206 115q81 87 111 196q28 87 39 217q41 538 117 922l-76 -6q-37 -5 -143 -15q-22 -123 -27 -180q-33 -226 -45 -375q-11 -85 -21 -182
q-7 -97 -28 -168q-27 -92 -74 -153q-43 -48 -119 -72q-64 -19 -141 -19q-76 0 -137 17q-68 18 -109 71h2q-51 76 -51 215q0 35 4 105q36 439 41 739q-66 4 -192 21z" />
    <glyph glyph-name="Ucircumflex" unicode="&#xdb;" horiz-adv-x="1523"
d="M723 1772l-43 -54q-34 -41 -84 -98q-47 -53 -125 -119h18h27h29h16q25 2 80 2q59 49 154 148l16 14q4 -6 10 -12q7 -7 13 -15q71 -90 120 -135q57 0 80 -2h19h24h27h16q-52 47 -104 119q-23 29 -72 104l-29 48h-192zM342 1464v-69q0 -380 -43 -828q-8 -82 -8 -127
q0 -86 20 -159q24 -91 76 -148q71 -74 182 -100q97 -25 215 -25q124 0 224 27q121 33 206 115q81 87 111 196q28 87 39 217q41 538 117 922l-76 -6q-37 -5 -143 -15q-22 -123 -27 -180q-33 -226 -45 -375q-11 -85 -21 -182q-7 -97 -28 -168q-27 -92 -74 -153
q-43 -48 -119 -72q-64 -19 -141 -19q-76 0 -137 17q-68 18 -109 71h2q-51 76 -51 215q0 35 4 105q36 439 41 739q-66 4 -192 21z" />
    <glyph glyph-name="Udieresis" unicode="&#xdc;" horiz-adv-x="1523"
d="M614 1749l-18 -27q8 -27 8 -61q0 -62 -37 -129h35q27 0 39 2h41h33q23 0 39 2h37q18 82 18 158v6v8v37q-63 0 -96 2q-68 0 -99 2zM989 1745l-16 -14q-19 -74 -19 -136l2 -59h39q16 -2 39 -2h35h39q12 -2 39 -2h33q-21 65 -21 88q0 45 41 129h-49q-18 -2 -55 -2
q-37 -2 -107 -2zM342 1464v-69q0 -380 -43 -828q-8 -82 -8 -127q0 -86 20 -159q24 -91 76 -148q71 -74 182 -100q97 -25 215 -25q124 0 224 27q121 33 206 115q81 87 111 196q28 87 39 217q41 538 117 922l-76 -6q-37 -5 -143 -15q-22 -123 -27 -180q-33 -226 -45 -375
q-11 -85 -21 -182q-7 -97 -28 -168q-27 -92 -74 -153q-43 -48 -119 -72q-64 -19 -141 -19q-76 0 -137 17q-68 18 -109 71h2q-51 76 -51 215q0 35 4 105q36 439 41 739q-66 4 -192 21z" />
    <glyph glyph-name="Yacute" unicode="&#xdd;" horiz-adv-x="1544"
d="M963 1763l-74 -88q-24 -33 -68 -80q-50 -58 -90 -98q10 0 64 4q22 0 34 2h27q8 0 28.5 1t28.5 1q5 5 15.5 16t20 20.5t18.5 17.5l80 88l34 34q17 17 103 99q-37 -6 -105 -6q-18 -2 -55 -2q-30 -3 -47 -3zM360 1485l-18 -29q35 -74 73 -159.5t63 -144t69 -166t59 -145
t66.5 -166.5t60.5 -151q-1 -9 -9.5 -101.5t-14.5 -141.5l-25 -244h23h24h25h20h72q88 0 123 -2q24 379 35 489q31 54 43 74q8 16 24 43.5t19 32.5q93 163 243 411q135 223 256 402l-78 -6q-86 -10 -159 -13q-177 -255 -459 -716q-84 187 -164 358q-63 141 -172 354
q-120 11 -199 21z" />
    <glyph glyph-name="Thorn" unicode="&#xde;" horiz-adv-x="1320"
d="M1190 999q27 -73 27 -151q0 -111 -31 -203q-40 -117 -113 -180q-79 -68 -180 -90q-87 -21 -191 -21q-61 0 -229 -4q-7 -83 -18 -162q-10 -75 -11 -84q-8 -57 -10 -75l-76 -6q-2 -1 -34 -5q-13 0 -37 -4q-16 -1 -43 -4.5t-31 -3.5q125 744 131 1458l23 21q111 -19 192 -21
q-4 -58 -4 -96q-4 -70 -4 -92q-2 -12 -2 -33q-2 -8 -2 -33q76 -4 227 -4q114 -4 166 -14q90 -20 154 -62q66 -52 96 -131zM981 698q18 53 18 121q0 112 -77 168q-61 43 -160 43q-149 0 -225 4q-2 -20 -5.5 -62.5t-5.5 -64.5q-3 -44 -10 -127.5t-10 -122.5l-12 -129
q18 0 55 1t55 1h111q122 0 188 58q56 44 78 110z" />
    <glyph glyph-name="germandbls" unicode="&#xdf;" horiz-adv-x="1359"
d="M276 1112q-67 -613 -176 -1106q49 5 70 8l76 6q18 1 49 4t54.5 4.5t41.5 2.5q45 519 58 1071v-4q26 151 92 219v-2q61 59 186 59q105 0 162 -28q34 -30 56 -75t44 -110q-74 -14 -131 -35q-72 -27 -117 -77q-77 -92 -77 -234q0 -67 32 -129q14 -33 70 -115q22 -13 70 -51
q61 -42 88 -69q41 -44 41 -99q0 -61 -70 -86q-46 -18 -127 -18q-133 0 -287 55l-14 -129q-10 -89 -12 -121q145 -39 270 -45q82 0 143 10q82 14 150 50q77 42 110 127q29 74 29 159q0 107 -70 197q-40 46 -149 129q-9 4 -14 12l-17 10v-2q-55 40 -73 62q-39 42 -39 86
q0 102 108 160q89 50 205 57q4 58 4 88q0 147 -82 254q-54 52 -133 74q-67 20 -152 20q-99 0 -178 -16q-99 -23 -164 -78q-64 -52 -96 -135q-28 -79 -31 -160z" />
    <glyph glyph-name="agrave" unicode="&#xe0;" horiz-adv-x="1275"
d="M623 2040l-15 8q-30 0 -104 4q-47 0 -101 4q36 -60 74 -137q20 -44 51 -115l29 -63q6 -13 16 -35t13 -29h45q36 0 59 -2q43 0 66 -2q12 0 34 -1t33 -1q9 -1 29.5 -2t28.5 -2q-58 71 -93 125q-14 20 -118 178q-7 13 -47 70zM1036 633q6 53 6 108q0 172 -86 273
q-57 55 -151 82q-71 18 -174 18q-170 0 -375 -63q-4 -29 -4 -84v-17q-2 -8 -2 -24v-23q-2 -8 -2 -18q177 82 352 82q131 -11 213 -74q47 -50 47 -133v-15q-2 -10 -2 -22q-2 -2 -2 -8v-8h-111h-112q-182 0 -314 -66q-93 -47 -149 -158q-43 -92 -43 -207q0 -120 66 -192
q82 -82 239 -82q119 0 209 33q105 40 176 119q-2 -10 -2 -21v-8v-8v-19l-2 -75l98 -7q12 -1 48.5 -4.5t50.5 -5.5l-2 111q0 245 28 516zM750 561v-14q-2 -2 -2 -12l-5 -25q-11 -130 -61 -184q-41 -25 -94 -35q-44 -8 -101 -8q-58 0 -137 14q-26 6 -39.5 29.5t-13.5 54.5
q7 92 72 137q36 18 51 23q56 16 110 16q20 2 58 2q8 0 12 2h12h138z" />
    <glyph glyph-name="aacute" unicode="&#xe1;" horiz-adv-x="1275"
d="M891 1976l-14 -6q-45 -50 -136 -162q-18 -20 -54.5 -63.5t-53.5 -63.5q-24 -27 -66.5 -75t-46.5 -52q5 1 12 1.5t17 1.5t16 2q8 0 26 1t27 1q74 4 99 4q65 60 182 186q32 36 53 57l62 64q51 51 121 117q-58 -7 -123 -7q-11 -1 -33.5 -2t-32.5 -2q-10 0 -29 -1t-26 -1z
M1036 633q6 53 6 108q0 172 -86 273q-57 55 -151 82q-71 18 -174 18q-170 0 -375 -63q-4 -29 -4 -84v-17q-2 -8 -2 -24v-23q-2 -8 -2 -18q177 82 352 82q131 -11 213 -74q47 -50 47 -133v-15q-2 -10 -2 -22q-2 -2 -2 -8v-8h-111h-112q-182 0 -314 -66q-93 -47 -149 -158
q-43 -92 -43 -207q0 -120 66 -192q82 -82 239 -82q119 0 209 33q105 40 176 119q-2 -10 -2 -21v-8v-8v-19l-2 -75l98 -7q12 -1 48.5 -4.5t50.5 -5.5l-2 111q0 245 28 516zM750 561v-14q-2 -2 -2 -12l-5 -25q-11 -130 -61 -184q-41 -25 -94 -35q-44 -8 -101 -8q-58 0 -137 14
q-26 6 -39.5 29.5t-13.5 54.5q7 92 72 137q36 18 51 23q56 16 110 16q20 2 58 2q8 0 12 2h12h138z" />
    <glyph glyph-name="acircumflex" unicode="&#xe2;" horiz-adv-x="1380"
d="M588 1618l-41 -59q-4 -6 -19 -27t-22 -31q-12 -17 -40 -57.5t-46 -63.5q-54 -67 -123 -141l100 2l66 2q46 47 166 191h-2l26 32l19 -26q79 -128 135 -197l63 -2l101 -2q-56 68 -109 158q-19 32 -78 143l-39 78h-157zM1036 633q6 53 6 108q0 172 -86 273q-57 55 -151 82
q-71 18 -174 18q-170 0 -375 -63q-4 -29 -4 -84v-17q-2 -8 -2 -24v-23q-2 -8 -2 -18q177 82 352 82q131 -11 213 -74q47 -50 47 -133v-15q-2 -10 -2 -22q-2 -2 -2 -8v-8h-111h-112q-182 0 -314 -66q-93 -47 -149 -158q-43 -92 -43 -207q0 -120 66 -192q82 -82 239 -82
q119 0 209 33q105 40 176 119q-2 -10 -2 -21v-8v-8v-19l-2 -75l98 -7q12 -1 48.5 -4.5t50.5 -5.5l-2 111q0 245 28 516zM750 561v-14q-2 -2 -2 -12l-5 -25q-11 -130 -61 -184q-41 -25 -94 -35q-44 -8 -101 -8q-58 0 -137 14q-26 6 -39.5 29.5t-13.5 54.5q7 92 72 137
q36 18 51 23q56 16 110 16q20 2 58 2q8 0 12 2h12h138z" />
    <glyph glyph-name="atilde" unicode="&#xe3;" horiz-adv-x="1275"
d="M662 1743l45 -51q62 -62 147 -62q70 0 115 58q23 27 65 127q7 21 23 53l12 28q1 4 3.5 9.5t4 9t2.5 6.5h-12h-20q-6 -2 -19 -2h-14h-41h-39q-7 -15 -14 -37q0 -1 -4 -8.5t-5 -13.5q-8 -19 -13 -30t-14 -25.5t-19.5 -23t-22.5 -12.5q-23 5 -51 33l-50 53q-62 62 -147 62
q-42 0 -81 -27.5t-62 -74.5q-23 -52 -33 -78l-2 -6h4v-2q-2 -5 -4 -13q-6 -9 -15 -30q-7 -13 -30 -60h16h25h24h19q29 0 61 4q21 46 23 56v-3q12 39 26 58q23 30 41 35q26 -3 56 -33zM1036 633q6 53 6 108q0 172 -86 273q-57 55 -151 82q-71 18 -174 18q-170 0 -375 -63
q-4 -29 -4 -84v-17q-2 -8 -2 -24v-23q-2 -8 -2 -18q177 82 352 82q131 -11 213 -74q47 -50 47 -133v-15q-2 -10 -2 -22q-2 -2 -2 -8v-8h-111h-112q-182 0 -314 -66q-93 -47 -149 -158q-43 -92 -43 -207q0 -120 66 -192q82 -82 239 -82q119 0 209 33q105 40 176 119
q-2 -10 -2 -21v-8v-8v-19l-2 -75l98 -7q12 -1 48.5 -4.5t50.5 -5.5l-2 111q0 245 28 516zM750 561v-14q-2 -2 -2 -12l-5 -25q-11 -130 -61 -184q-41 -25 -94 -35q-44 -8 -101 -8q-58 0 -137 14q-26 6 -39.5 29.5t-13.5 54.5q7 92 72 137q36 18 51 23q56 16 110 16q20 2 58 2
q8 0 12 2h12h138z" />
    <glyph glyph-name="adieresis" unicode="&#xe4;" horiz-adv-x="1275"
d="M352 1556l-18 -24q8 -31 8 -70q0 -66 -41 -139q34 0 57 2h66q43 2 121 2q18 89 18 168l-2 57q-67 0 -104 2q-72 0 -105 2zM758 1552l-17 -16q-18 -70 -18 -143q0 -35 4 -64q62 -4 113 -4l125 -2q-23 67 -23 94q0 55 43 139l-129 -2q-16 0 -49 -1t-49 -1zM1036 633
q6 53 6 108q0 172 -86 273q-57 55 -151 82q-71 18 -174 18q-170 0 -375 -63q-4 -29 -4 -84v-17q-2 -8 -2 -24v-23q-2 -8 -2 -18q177 82 352 82q131 -11 213 -74q47 -50 47 -133v-15q-2 -10 -2 -22q-2 -2 -2 -8v-8h-111h-112q-182 0 -314 -66q-93 -47 -149 -158
q-43 -92 -43 -207q0 -120 66 -192q82 -82 239 -82q119 0 209 33q105 40 176 119q-2 -10 -2 -21v-8v-8v-19l-2 -75l98 -7q12 -1 48.5 -4.5t50.5 -5.5l-2 111q0 245 28 516zM750 561v-14q-2 -2 -2 -12l-5 -25q-11 -130 -61 -184q-41 -25 -94 -35q-44 -8 -101 -8q-58 0 -137 14
q-26 6 -39.5 29.5t-13.5 54.5q7 92 72 137q36 18 51 23q56 16 110 16q20 2 58 2q8 0 12 2h12h138z" />
    <glyph glyph-name="aring" unicode="&#xe5;" horiz-adv-x="1275"
d="M905 1503v15v18q0 106 -67 170q-66 63 -168 63q-129 0 -211 -88q-78 -84 -78 -208q0 -105 68 -173q63 -63 169 -63q120 0 197 74q78 72 90 192zM772 1511v-6q-13 -60 -47 -94q-41 -41 -96 -41q-50 0 -82.5 31.5t-32.5 83.5q0 62 41 106q40 43 102 43q52 -3 83.5 -33.5
t31.5 -80.5v-4v-5zM1036 633q6 53 6 108q0 172 -86 273q-57 55 -151 82q-71 18 -174 18q-170 0 -375 -63q-4 -29 -4 -84v-17q-2 -8 -2 -24v-23q-2 -8 -2 -18q177 82 352 82q131 -11 213 -74q47 -50 47 -133v-15q-2 -10 -2 -22q-2 -2 -2 -8v-8h-111h-112q-182 0 -314 -66
q-93 -47 -149 -158q-43 -92 -43 -207q0 -120 66 -192q82 -82 239 -82q119 0 209 33q105 40 176 119q-2 -10 -2 -21v-8v-8v-19l-2 -75l98 -7q12 -1 48.5 -4.5t50.5 -5.5l-2 111q0 245 28 516zM750 561v-14q-2 -2 -2 -12l-5 -25q-11 -130 -61 -184q-41 -25 -94 -35
q-44 -8 -101 -8q-58 0 -137 14q-26 6 -39.5 29.5t-13.5 54.5q7 92 72 137q36 18 51 23q56 16 110 16q20 2 58 2q8 0 12 2h12h138z" />
    <glyph glyph-name="ae" unicode="&#xe6;" horiz-adv-x="2007"
d="M1749 983h-2q74 -104 74 -252q0 -26 -9 -96q0 -5 -1 -16t-1 -19q-1 -6 -2 -18.5t-2 -16.5q-128 0 -382 -1t-382 -1q6 -110 82 -196q47 -47 121 -70q68 -23 146 -23q176 0 362 101v-13v-20q-2 -6 -2 -18v-13v-28q0 -95 10 -187l-57 -20q-94 -35 -158 -53q-83 -25 -166 -25
q-152 0 -270 49q-136 61 -203 168q-83 -108 -200 -164q-116 -55 -250 -55q-80 0 -140 16q-73 19 -116 68q-58 66 -58 176q0 35 7 82q21 118 45 178q33 98 104 158q70 51 172 71q86 17 182 17h64q18 -2 59 -2h105q0 4 2 4v4q0 55 -68 139v-2q-73 84 -221 84q-171 0 -332 -84
q0 21 -2 33q0 27 -2 43q0 27 -2 41v31q185 65 348 65q134 0 227 -35q121 -46 177 -135q87 90 206 131q102 39 236 39q99 0 170 -31q80 -31 129 -104zM1063 717h57q342 0 514 4q2 4 2 12v10q0 108 -53 179q-60 79 -153 79q-158 0 -256 -98q-86 -86 -111 -186zM868 606h-174
q-65 -2 -91 -3t-77 -9.5t-90 -24.5q-45 -18 -71 -84q-23 -53 -23 -110q0 -58 53 -90q48 -31 111 -31q160 0 256 82q52 49 76 117q21 56 28 137z" />
    <glyph glyph-name="ccedilla" unicode="&#xe7;" horiz-adv-x="1214"
d="M1020 1049l27 4q-10 -44 -11 -54q-8 -37 -10 -55v2l-8 -59q-139 71 -279 71q-75 0 -145 -24q-78 -25 -125 -84q-48 -51 -76 -139q-25 -83 -31 -156q0 -53 15 -100q17 -54 51 -78h-2q75 -49 231 -60h-2l148 -4h10q63 0 150 41q-5 -68 -5 -92q-2 -35 -2 -94q0 -80 2 -115
q-137 -50 -278 -53q14 -44 14 -80q0 -46 -20 -90q-23 -48 -64 -68q-66 -30 -174 -30q-78 0 -166 18q14 70 19 103l6 47q62 -33 133 -33h14h11q40 0 65 22q31 24 31 60q0 29 -12 59q-44 5 -103 23q-117 33 -184 119v-3q-49 60 -76 152q-18 68 -18 170q0 147 32 260
q42 148 134 240q84 76 213 114q100 33 231 33q142 0 270 -49z" />
    <glyph glyph-name="egrave" unicode="&#xe8;" horiz-adv-x="1310"
d="M539 1311l-29 63q-31 71 -51 115q-39 79 -76 137q58 -4 102 -4q74 -4 103 -4l16 -8q40 -57 47 -70q10 -15 30.5 -47.5t42 -65t44.5 -65.5q31 -48 94 -125q-9 1 -29 2t-30 2q-11 0 -33 1t-35 1q-23 2 -65 2q-23 2 -60 2h-43q-1 1 -28 64zM1116 715v-10q-2 -4 -2 -13v-22h2
q-2 -8 -2 -19q0 -12 -2 -16l-4 -39q-162 -4 -498 -4q-44 0 -67 2h-72h-119v-6q-2 -18 -2 -51q0 -59 15 -111q17 -60 55 -86v2q106 -66 285 -66h18q98 0 160 9q94 10 174 51v-33q-2 -25 -2 -76v-32q0 -88 2 -125q-201 -68 -410 -68q-118 10 -211 41q-119 44 -182 107
q-53 59 -80 151q-22 86 -22 170q0 135 38 256q46 150 129 240q72 75 185 112q85 31 209 35q103 -7 170 -27q93 -27 147 -81q47 -50 72 -136q14 -71 14 -155zM479 760h96q129 0 383 4q-13 109 -77 170q-70 70 -174 70q-146 0 -234 -82q-78 -71 -90 -160q33 -2 96 -2z" />
    <glyph glyph-name="eacute" unicode="&#xe9;" horiz-adv-x="1310"
d="M664 1561q-9 0 -27.5 -1t-26.5 -1q-6 -1 -16 -2t-17 -1.5t-12 -1.5q4 4 46.5 52t66.5 75q17 20 53.5 63.5t54.5 63.5q91 112 136 162l14 6q8 0 26 1t29 1q10 1 32.5 2t33.5 2q65 0 123 7q-70 -66 -121 -117l-62 -64q-21 -21 -53 -57q-117 -126 -182 -186q-24 0 -98 -4z
M1030 1006q47 -50 72 -136q14 -71 14 -155v-10q-2 -4 -2 -13v-22h2q-2 -8 -2 -19q0 -12 -2 -16l-4 -39q-162 -4 -498 -4q-44 0 -67 2h-72h-119v-6q-2 -18 -2 -51q0 -59 15 -111q17 -60 55 -86v2q106 -66 285 -66h18q98 0 160 9q94 10 174 51v-33q-2 -25 -2 -76v-32
q0 -88 2 -125q-201 -68 -410 -68q-118 10 -211 41q-119 44 -182 107q-53 59 -80 151q-22 86 -22 170q0 135 38 256q46 150 129 240q72 75 185 112q85 31 209 35q103 -7 170 -27q93 -27 147 -81zM479 760h96q129 0 383 4q-13 109 -77 170q-70 70 -174 70q-146 0 -234 -82
q-78 -71 -90 -160q33 -2 96 -2z" />
    <glyph glyph-name="ecircumflex" unicode="&#xea;" horiz-adv-x="1310"
d="M381 1143l-102 -2q68 71 122 141q23 30 86 121q8 9 22 28.5t21 28.5q37 53 41 58h156l41 -76q41 -88 78 -146q47 -80 106 -155l-98 2l-66 2q-45 55 -135 194l-16 29l-27 -35q-15 -17 -47 -56t-59.5 -70.5t-57.5 -61.5zM1116 715v-10q-2 -4 -2 -13v-22h2q-2 -8 -2 -19
q0 -12 -2 -16l-4 -39q-162 -4 -498 -4q-44 0 -67 2h-72h-119v-6q-2 -18 -2 -51q0 -59 15 -111q17 -60 55 -86v2q106 -66 285 -66h18q98 0 160 9q94 10 174 51v-33q-2 -25 -2 -76v-32q0 -88 2 -125q-201 -68 -410 -68q-118 10 -211 41q-119 44 -182 107q-53 59 -80 151
q-22 86 -22 170q0 135 38 256q46 150 129 240q72 75 185 112q85 31 209 35q103 -7 170 -27q93 -27 147 -81q47 -50 72 -136q14 -71 14 -155zM479 760h96q129 0 383 4q-13 109 -77 170q-70 70 -174 70q-146 0 -234 -82q-78 -71 -90 -160q33 -2 96 -2z" />
    <glyph glyph-name="edieresis" unicode="&#xeb;" horiz-adv-x="1310"
d="M506 1227h-68q-20 -2 -55 -2q41 73 41 139q0 37 -8 68l18 24q16 0 51 -1t54 -1q71 0 102 -2q2 -10 2 -55q0 -92 -16 -168q-78 0 -121 -2zM1047 1225l-125 2q-51 0 -113 4q-4 29 -4 61q0 72 18 146l17 14q33 2 98 2l129 2q-43 -81 -43 -137q0 -38 23 -94zM1116 715v-10
q-2 -4 -2 -13v-22h2q-2 -8 -2 -19q0 -12 -2 -16l-4 -39q-162 -4 -498 -4q-44 0 -67 2h-72h-119v-6q-2 -18 -2 -51q0 -59 15 -111q17 -60 55 -86v2q106 -66 285 -66h18q98 0 160 9q94 10 174 51v-33q-2 -25 -2 -76v-32q0 -88 2 -125q-201 -68 -410 -68q-118 10 -211 41
q-119 44 -182 107q-53 59 -80 151q-22 86 -22 170q0 135 38 256q46 150 129 240q72 75 185 112q85 31 209 35q103 -7 170 -27q93 -27 147 -81q47 -50 72 -136q14 -71 14 -155zM479 760h96q129 0 383 4q-13 109 -77 170q-70 70 -174 70q-146 0 -234 -82q-78 -71 -90 -160
q33 -2 96 -2z" />
    <glyph glyph-name="igrave" unicode="&#xec;" horiz-adv-x="1177"
d="M598 1610l-14 8q-31 0 -105 4q-46 0 -100 4q36 -60 74 -137q20 -44 51 -115l28 -63q6 -13 16 -35t13 -29h45q37 0 60 -2q42 0 65 -2q11 0 34 -1t34 -1q9 -1 29 -2t28 -2q-54 66 -92 125q-37 54 -119 178q-7 13 -47 70zM838 1108l-31 -16q-40 -569 -98 -1096q68 35 106 35
q36 0 92 -35q7 98 45 565q15 159 56 563q-67 -37 -107 -37q-36 0 -63 21z" />
    <glyph glyph-name="iacute" unicode="&#xed;" horiz-adv-x="677"
d="M657 1784l-14 -6q-32 -36 -135 -162q-19 -21 -56.5 -65.5t-52.5 -61.5q-23 -26 -62 -70.5t-50 -56.5q6 1 21.5 2t23.5 2q8 0 26 1t27 1q74 4 98 4q65 61 183 187q32 36 53 57l61 63q51 51 121 117q-49 -6 -123 -6q-11 -1 -33 -2t-32 -2q-11 0 -30 -1t-26 -1zM295 1108
l-31 -16q-40 -569 -98 -1096q68 35 106 35q37 0 93 -35q7 98 45 565q10 128 55 563q-67 -37 -107 -37q-36 0 -63 21z" />
    <glyph glyph-name="icircumflex" unicode="&#xee;" horiz-adv-x="1099"
d="M588 1618l-41 -59q-4 -6 -19 -27t-22 -31q-12 -17 -40 -57.5t-46 -63.5q-54 -67 -123 -141l100 2l66 2q46 47 166 191h-2l26 32l19 -26q79 -128 135 -197l63 -2l101 -2q-56 68 -109 158q-19 32 -78 143l-39 78h-157zM760 1108l-31 -16q-40 -569 -98 -1096q68 35 106 35
q36 0 92 -35q7 98 45 565q15 159 56 563q-67 -37 -107 -37q-36 0 -63 21z" />
    <glyph glyph-name="idieresis" unicode="&#xef;" horiz-adv-x="974"
d="M371 1528l-19 -27q8 -27 8 -67q0 -67 -41 -140q35 0 58 2h65q43 2 121 2q19 93 19 168l-2 58q-68 0 -105 2q-71 0 -104 2zM776 1524l-16 -17q-19 -78 -19 -143q0 -35 4 -64q62 -4 113 -4l125 -2q-22 61 -22 95q0 55 43 139l-130 -2q-16 0 -49 -1t-49 -1zM580 1108
l-31 -16q-40 -569 -98 -1096q68 35 106 35q36 0 92 -35q7 98 45 565q15 159 56 563q-67 -37 -107 -37q-36 0 -63 21z" />
    <glyph glyph-name="eth" unicode="&#xf0;" horiz-adv-x="1271"
d="M817 1272l125 -160q170 -209 170 -498q0 -137 -33 -243q-38 -137 -123 -224q-69 -66 -172 -104q-90 -33 -194 -33q-108 0 -193 33q-92 30 -157 104q-88 109 -88 299q0 128 36 252q46 142 129 232q56 64 160 108q83 35 185 35h24q6 0 17.5 -1t17.5 -1q2 -1 5 -1.5t8 -1
t9 -1.5l-43 55q-8 9 -19 24t-15 19q-9 13 -35 43q-21 -5 -74 -22q-41 -13 -158 -45q-42 -13 -75 -23q-3 26 -19 68l-10 47q29 7 211 57l51 17l-86 104q-27 35 -43 53q-13 16 -39 47l123 -6q90 -4 123 -4q2 -2 12.5 -14.5t16.5 -20.5q17 -20 26 -34q14 -12 55 -64l15 4
q4 2 78 29q28 9 82 28.5t81 28.5l78 31l23 -111q-111 -45 -285 -106zM893 442q22 87 22 183q0 168 -63 262v2l-6 4l6 -6q-86 28 -164 28q-143 0 -229 -96q-63 -72 -88 -170q-23 -88 -23 -182q0 -122 51 -199q63 -95 209 -92q59 0 115 25t94 69q47 63 76 172z" />
    <glyph glyph-name="ntilde" unicode="&#xf1;" horiz-adv-x="1406"
d="M639 1303l45 -52q58 -61 147 -61q73 0 115 55q26 32 66 129v-2q7 26 22 55l13 29q7 14 10 23h-13h-20h-18h-15h-41q-14 -2 -39 -2q-7 -14 -14 -35q0 -1 -3.5 -9.5t-4.5 -13.5q-10 -25 -17.5 -40t-22 -30.5t-30.5 -19.5q-24 2 -51 33l-49 51q-64 64 -148 64q-42 0 -81 -28
t-62 -75q-23 -52 -33 -78l-2 -8h4l-4 -12q-2 -3 -4 -7.5t-5 -12.5t-5 -13q-13 -19 -31 -57h17h24h25h18q30 0 62 4q19 43 22 53q9 30 27 57q23 30 41 35q29 -6 55 -32zM1139 670q0 12 1 36t1 37q0 135 -45 238q-40 73 -113 104t-154 31q-183 0 -368 -129v10q0 4 2 4v5v10
l2 88q-6 1 -22 2t-23 2q-8 0 -25.5 1t-25.5 1q-12 1 -48.5 4.5t-50.5 5.5q-9 -583 -129 -1114l64 6q24 2 71 5.5t70 5.5q24 0 64 4q31 308 43 610v-2q11 151 88 237q43 46 112 66q57 16 129 16q45 0 80 -14q43 -19 64 -57v2q20 -49 20 -123q0 -45 -4 -68v-10v-8
q-57 -366 -76 -649q75 -4 138 -9q20 -2 67.5 -5t69.5 -5q-17 192 -17 314q0 129 15 348z" />
    <glyph glyph-name="ograve" unicode="&#xf2;" horiz-adv-x="1296"
d="M598 1610l-14 8q-31 0 -105 4q-46 0 -100 4q36 -60 74 -137q20 -44 51 -115l28 -63q6 -13 16 -35t13 -29h45q37 0 60 -2q42 0 65 -2q11 0 34 -1t34 -1q9 -1 29 -2t28 -2q-54 66 -92 125q-37 54 -119 178q-7 13 -47 70zM713 1114q-107 0 -199 -35q-111 -41 -174 -106
q-86 -98 -125 -252q-31 -124 -31 -266q0 -198 84 -310q51 -76 154 -110q85 -33 190 -33q106 0 201 33q108 37 176 110q84 100 123 254q33 121 33 267q0 188 -84 305q-56 79 -154 112q-82 31 -194 31zM702 967q62 0 115.5 -25.5t81.5 -73.5q49 -81 49 -215q0 -83 -12 -149
q-25 -98 -82 -139q-82 -48 -213 -48q-135 0 -205 45h2q-53 41 -53 150q0 104 21 184q23 102 77 172q38 49 96.5 74t122.5 25z" />
    <glyph glyph-name="oacute" unicode="&#xf3;" horiz-adv-x="1267"
d="M930 1976l-15 -6q-32 -36 -135 -162q-18 -20 -54.5 -63.5t-53.5 -63.5q-24 -27 -66.5 -75t-46.5 -52l45 5q8 0 26 1t27 1q74 4 99 4q65 60 182 186q32 36 53 57l62 64q51 51 121 117q-58 -7 -123 -7q-11 -1 -33.5 -2t-32.5 -2q-11 0 -29 -1t-26 -1zM684 1114
q-107 0 -199 -35q-110 -40 -176 -106q-84 -99 -123 -252q-30 -120 -30 -266q0 -198 84 -310q51 -76 151 -110q88 -33 193 -33t200 33q110 37 177 110q83 98 122 254q31 114 31 267q0 190 -82 305q-60 80 -153 112q-82 31 -195 31zM674 967q62 0 115 -25.5t81 -73.5
q50 -82 50 -215q0 -80 -15 -149q-21 -97 -82 -139h2q-82 -48 -213 -48q-134 0 -204 45h2q-54 42 -54 150q0 104 21 184q23 100 78 172q38 49 96.5 74t122.5 25z" />
    <glyph glyph-name="ocircumflex" unicode="&#xf4;" horiz-adv-x="1267"
d="M637 1618l-41 -59q-4 -6 -19 -27t-22 -31q-12 -17 -40 -57.5t-46 -63.5q-59 -72 -125 -141l102 2l66 2q46 47 166 191h-2l26 32l19 -26q79 -127 133 -197l66 -2l100 -2q-56 68 -109 158q-41 69 -77 143l-39 78h-158zM684 1114q-107 0 -199 -35q-110 -40 -176 -106
q-84 -99 -123 -252q-30 -120 -30 -266q0 -198 84 -310q51 -76 151 -110q88 -33 193 -33t200 33q110 37 177 110q83 98 122 254q31 114 31 267q0 190 -82 305q-60 80 -153 112q-82 31 -195 31zM674 967q62 0 115 -25.5t81 -73.5q50 -82 50 -215q0 -80 -15 -149
q-21 -97 -82 -139h2q-82 -48 -213 -48q-134 0 -204 45h2q-54 42 -54 150q0 104 21 184q23 100 78 172q38 49 96.5 74t122.5 25z" />
    <glyph glyph-name="otilde" unicode="&#xf5;" horiz-adv-x="1267"
d="M678 1303l47 -52q58 -61 147 -61q73 0 115 55q32 41 64 129v-2l22 55q10 25 12 29q7 14 13 23h-15h-18h-21h-14h-39q-14 -2 -41 -2q-12 -32 -12 -35q-2 -3 -5 -11.5t-5 -11.5q-29 -81 -70 -90q-22 2 -49 33l-49 51q-64 64 -148 64q-43 0 -81.5 -28t-61.5 -75
q-21 -40 -33 -78q-3 -8 -2 -8q2 0 2 2l2 -2q-1 -1 -2.5 -5t-3.5 -7q-7 -20 -14 -33q-8 -15 -31 -57h19h22h25h18q28 0 64 4q14 31 20 53q13 34 29 57q19 30 41 35q27 -6 53 -32zM684 1114q-107 0 -199 -35q-110 -40 -176 -106q-84 -99 -123 -252q-30 -120 -30 -266
q0 -198 84 -310q51 -76 151 -110q88 -33 193 -33t200 33q110 37 177 110q83 98 122 254q31 114 31 267q0 190 -82 305q-60 80 -153 112q-82 31 -195 31zM674 967q62 0 115 -25.5t81 -73.5q50 -82 50 -215q0 -80 -15 -149q-21 -97 -82 -139h2q-82 -48 -213 -48
q-134 0 -204 45h2q-54 42 -54 150q0 104 21 184q23 100 78 172q38 49 96.5 74t122.5 25z" />
    <glyph glyph-name="odieresis" unicode="&#xf6;" horiz-adv-x="1267"
d="M500 1358l-19 -25q8 -31 8 -67q0 -68 -40 -142q16 2 57 2q42 0 65 2q23 0 64.5 1t56.5 1q19 90 19 166l-2 58q-33 2 -105 2q-19 0 -53.5 1t-50.5 1zM905 1354l-16 -15q-19 -78 -19 -145q0 -35 4 -64l113 -2l125 -2q-22 61 -22 93q0 55 43 139l-129 -2q-66 0 -99 -2z
M684 1114q-107 0 -199 -35q-110 -40 -176 -106q-84 -99 -123 -252q-30 -120 -30 -266q0 -198 84 -310q51 -76 151 -110q88 -33 193 -33t200 33q110 37 177 110q83 98 122 254q31 114 31 267q0 190 -82 305q-60 80 -153 112q-82 31 -195 31zM674 967q62 0 115 -25.5t81 -73.5
q50 -82 50 -215q0 -80 -15 -149q-21 -97 -82 -139h2q-82 -48 -213 -48q-134 0 -204 45h2q-54 42 -54 150q0 104 21 184q23 100 78 172q38 49 96.5 74t122.5 25z" />
    <glyph glyph-name="divide" unicode="&#xf7;" horiz-adv-x="1564"
d="M707 1163l-21 -18q-8 -171 -18 -281h37q12 -2 38 -2h39h35h74q52 0 72 2q1 5 4 30.5t4 41.5q2 14 5 40t5 38q4 52 8 78q1 13 4 36.5t4 34.5h-41q-16 -2 -47 -2h-47h-43h-55q-39 0 -57 2zM205 737l-21 -18q-5 -76 -8 -109q-1 -21 -4 -56.5t-4 -49.5q462 4 715 4
q354 0 522 -4q0 35 8 117l6 61q0 23 4 55q-322 -6 -661 -6q-278 0 -557 6zM610 227l-18 -149h100q27 0 39 2h39q21 0 67.5 -1t65.5 -1q0 41 8 147q2 53 11 150h-86q-23 0 -31 2h-35h-61h-33q-10 -2 -33 -2l-18 -19z" />
    <glyph glyph-name="oslash" unicode="&#xf8;" horiz-adv-x="1267"
d="M1227 1112l-58 -59q-28 -35 -57 -64v2q-15 -18 -27 -30q-3 -4 -7 -8.5t-9.5 -11.5t-9.5 -11q55 -113 55 -275q0 -143 -33 -262q-39 -151 -123 -248q-67 -70 -172 -108q-92 -35 -196 -35q-179 0 -291 88l-47 -49q-14 -15 -40.5 -42.5t-39.5 -41.5q-12 -14 -33 -35l-41 35
q-4 3 -26 25q-23 19 -29 22l59 62q11 13 30.5 33.5t25.5 27.5l57 61q-57 106 -57 279q0 145 30 260q39 150 123 246q66 66 176 106q87 33 201 33q178 0 285 -84l67 70l90 98q8 -6 31 -25.5t31 -25.5h-2zM350 475q0 -74 15 -123l100 113q17 19 50.5 57t49.5 56
q142 160 277 307q-66 63 -178 63q-57 0 -115 -28q-60 -29 -96 -74q-57 -77 -80 -182q-23 -95 -23 -189zM899 457q19 90 19 194q0 67 -15 113l-102 -115q-33 -39 -103 -117q-42 -47 -135 -149q-101 -115 -135 -152q63 -63 176 -63q62 0 118.5 26.5t90.5 75.5q59 70 86 187z
" />
    <glyph glyph-name="ugrave" unicode="&#xf9;" horiz-adv-x="1353"
d="M580 1511l-17 7q-28 0 -102 4l-103 6q33 -52 76 -137l51 -115q3 -7 13 -29t16 -35l29 -63h45q37 0 57 -2q43 0 68 -2q12 0 33.5 -1t31.5 -1q10 -1 30.5 -2t29.5 -2q-67 81 -95 123q-29 43 -67.5 103.5t-48.5 76.5q-7 12 -47 69zM240 449q-7 -58 -7 -103q0 -118 41 -213
q36 -69 115 -102q76 -31 158 -31h26q92 0 177.5 43t150.5 117q-2 -21 -5 -68.5t-5 -68.5q21 0 45 -3q72 -4 106 -8q8 0 23 -1t22 -1q0 543 121 1104q-18 -2 -59 -5.5t-55 -4.5q-18 -2 -115 -8q-45 -247 -68 -455q-25 -151 -102 -238q-79 -84 -219 -84q-103 0 -148 80v-2
q-30 64 -30 174v9v10v12q19 257 22 496l-72 6l-20 2q-5 1 -14 2t-13 2q-16 0 -24 2q-17 0 -23 2v-65q0 -15 2 -23v-20q0 -247 -30 -557z" />
    <glyph glyph-name="uacute" unicode="&#xfa;" horiz-adv-x="1353"
d="M975 1976l-14 -6q-45 -50 -136 -162q-18 -20 -54.5 -63.5t-53.5 -63.5q-24 -27 -66.5 -75t-46.5 -52l45 5q8 0 26 1t27 1q74 4 99 4q65 60 182 186q32 36 53 57l62 64q51 51 121 117q-58 -7 -123 -7q-11 -1 -33.5 -2t-32.5 -2q-10 0 -29 -1t-26 -1zM240 449
q-7 -58 -7 -103q0 -118 41 -213q36 -69 115 -102q76 -31 158 -31h26q92 0 177.5 43t150.5 117q-2 -21 -5 -68.5t-5 -68.5q21 0 45 -3q72 -4 106 -8q8 0 23 -1t22 -1q0 543 121 1104q-18 -2 -59 -5.5t-55 -4.5q-18 -2 -115 -8q-45 -247 -68 -455q-25 -151 -102 -238
q-79 -84 -219 -84q-103 0 -148 80v-2q-30 64 -30 174v9v10v12q19 257 22 496l-72 6l-20 2q-5 1 -14 2t-13 2q-16 0 -24 2q-17 0 -23 2v-65q0 -15 2 -23v-20q0 -247 -30 -557z" />
    <glyph glyph-name="ucircumflex" unicode="&#xfb;" horiz-adv-x="1394"
d="M588 1618l-41 -59q-4 -6 -19 -27t-22 -31q-12 -17 -40 -57.5t-46 -63.5q-54 -67 -123 -141l100 2l66 2q46 47 166 191h-2l26 32l19 -26q79 -128 135 -197l63 -2l101 -2q-56 68 -109 158q-19 32 -78 143l-39 78h-157zM281 449q-7 -58 -7 -103q0 -118 41 -213
q36 -69 115 -102q76 -31 158 -31h26q92 0 177.5 43t150.5 117q-2 -21 -5 -68.5t-5 -68.5q21 0 45 -3q72 -4 106 -8q8 0 23 -1t22 -1q0 543 121 1104q-18 -2 -59 -5.5t-55 -4.5q-18 -2 -115 -8q-45 -247 -68 -455q-25 -151 -102 -238q-79 -84 -219 -84q-103 0 -148 80v-2
q-30 64 -30 174v9v10v12q19 257 22 496l-72 6l-20 2q-5 1 -14 2t-13 2q-16 0 -24 2q-17 0 -23 2v-65q0 -15 2 -23v-20q0 -247 -30 -557z" />
    <glyph glyph-name="udieresis" unicode="&#xfc;" horiz-adv-x="1353"
d="M512 1456l-20 -24q10 -38 10 -68q0 -63 -43 -139q37 0 57 2h66q45 2 120 2q19 90 19 168q0 45 -2 55q-33 2 -105 2q-19 0 -53 1t-49 1zM918 1452l-19 -14q-18 -88 -18 -146q0 -32 4 -61q66 -4 114 -4l123 -2q-20 56 -20 94q0 61 43 137l-131 -2q-65 0 -96 -2zM240 449
q-7 -58 -7 -103q0 -118 41 -213q36 -69 115 -102q76 -31 158 -31h26q92 0 177.5 43t150.5 117q-2 -21 -5 -68.5t-5 -68.5q21 0 45 -3q72 -4 106 -8q8 0 23 -1t22 -1q0 543 121 1104q-18 -2 -59 -5.5t-55 -4.5q-18 -2 -115 -8q-45 -247 -68 -455q-25 -151 -102 -238
q-79 -84 -219 -84q-103 0 -148 80v-2q-30 64 -30 174v9v10v12q19 257 22 496l-72 6l-20 2q-5 1 -14 2t-13 2q-16 0 -24 2q-17 0 -23 2v-65q0 -15 2 -23v-20q0 -247 -30 -557z" />
    <glyph glyph-name="yacute" unicode="&#xfd;" horiz-adv-x="1390"
d="M737 1616l-14 -6q-32 -36 -135 -162q-19 -21 -56.5 -65.5t-52.5 -61.5q-23 -26 -62 -70.5t-50 -56.5q7 1 22 2t23 2q8 0 26 1t27 1q74 4 98 4q57 53 182 187q24 27 54 57l61 63q51 51 121 117q-49 -6 -123 -6q-11 -1 -33 -2t-32 -2q-11 0 -30 -1t-26 -1zM786 -70l121 265
q268 580 453 919q-28 -4 -49 -4l-60 -6q-59 -9 -108 -12q-164 -271 -344 -605q-5 10 -158 304q-28 54 -164 301q-7 0 -104 10q-83 9 -105 12q84 -195 185 -459l174 -465l26 -71l-18 -33q-38 -61 -66 -113q-60 -64 -94 -92q-22 -16 -52 -25t-51 -11t-61 -3q-8 -2 -35 -2
q-6 -1 -19 -2t-17 -2q-1 -5 -4.5 -22t-4.5 -27q-3 -13 -8 -51q-7 -35 -10 -78q-3 -15 -8 -42.5t-6 -33.5q3 0 10.5 1t11.5 1l60 6q18 0 24 2q82 3 146 17q79 14 137 55q61 48 114 125q39 57 84 141z" />
    <glyph glyph-name="thorn" unicode="&#xfe;" horiz-adv-x="1386"
d="M743 2h27q87 0 170 39q81 37 141 109h-2q87 102 123 241q31 119 31 258q0 192 -82 316q-45 69 -121 107t-164 38h-26q-88 0 -172.5 -42t-145.5 -112q8 106 10 144q9 138 15 264q4 90 8 141q-18 1 -98 15q-36 4 -54 8q-30 4 -45 8q-24 -974 -170 -1939q38 2 56 6
q48 9 145 16q24 185 64 533q43 -75 120 -113q75 -37 170 -37zM1036 559q-15 -161 -80 -262q-84 -131 -223 -131q-146 0 -196 98q-52 84 -52 215q0 94 23 189q23 105 82 178q35 47 89 73.5t112 26.5q127 0 190 -92q59 -79 59 -217q0 -24 -4 -78z" />
    <glyph glyph-name="ydieresis" unicode="&#xff;" horiz-adv-x="1390"
d="M573 1456l-18 -24q8 -46 8 -68q0 -67 -43 -139q38 0 58 2h65q45 2 123 2q16 91 16 168q0 45 -2 55q-31 2 -102 2q-19 0 -54.5 1t-50.5 1zM979 1452l-16 -14q-21 -86 -21 -146q0 -32 4 -61q66 -4 115 -4l125 -2q-23 56 -23 94q0 56 43 137l-131 -2q-63 0 -96 -2zM786 -70
l121 265q268 580 453 919q-28 -4 -49 -4l-60 -6q-59 -9 -108 -12q-164 -271 -344 -605q-5 10 -158 304q-28 54 -164 301q-7 0 -104 10q-83 9 -105 12q84 -195 185 -459l174 -465l26 -71l-18 -33q-38 -61 -66 -113q-60 -64 -94 -92q-22 -16 -52 -25t-51 -11t-61 -3
q-8 -2 -35 -2q-6 -1 -19 -2t-17 -2q-1 -5 -4.5 -22t-4.5 -27q-3 -13 -8 -51q-7 -35 -10 -78q-3 -15 -8 -42.5t-6 -33.5q3 0 10.5 1t11.5 1l60 6q18 0 24 2q82 3 146 17q79 14 137 55q61 48 114 125q39 57 84 141z" />
    <glyph glyph-name="Amacron" unicode="&#x100;" horiz-adv-x="1669"
d="M565 1862l-18 -29q10 -17 10 -43q0 -34 -43 -92q49 0 78 2h168h76h75h166q27 -2 76 -2q-31 44 -31 69q0 34 45 95q-23 0 -77 -1t-84 -1h-84q-27 -2 -76 -2q-97 0 -281 4zM944 1454h-196q-86 -176 -209 -446q-102 -221 -158.5 -340.5t-155 -312t-190.5 -349.5l67 6l39 3
l39 3l78 7q28 0 68 4q9 21 30 61t27 53q45 103 51 119q109 2 309 2q204 0 306 -2q18 -90 51 -233q5 0 153 -11l152 -12q-97 225 -197 539q-55 176 -153 524q-65 231 -111 385zM864 1077l37 -159q34 -133 49 -205l49 -205h-106h-66h-67h-117h-119q92 213 183 434l118 297
q16 -62 39 -162z" />
    <glyph glyph-name="amacron" unicode="&#x101;" horiz-adv-x="1275"
d="M369 1516l-19 -29q10 -17 10 -43q0 -34 -43 -92q49 0 78 2h168h76h76h166q27 -2 75 -2q-30 43 -30 69q0 34 45 95q-23 0 -78 -1.5t-84 -1.5h-84q-27 -2 -76 -2q-50 0 -280 5zM1036 633q6 53 6 108q0 172 -86 273q-57 55 -151 82q-71 18 -174 18q-170 0 -375 -63
q-4 -29 -4 -84v-17q-2 -8 -2 -24v-23q-2 -8 -2 -18q177 82 352 82q131 -11 213 -74q47 -50 47 -133v-15q-2 -10 -2 -22q-2 -2 -2 -8v-8h-111h-112q-182 0 -314 -66q-93 -47 -149 -158q-43 -92 -43 -207q0 -120 66 -192q82 -82 239 -82q119 0 209 33q105 40 176 119
q-2 -10 -2 -21v-8v-8v-19l-2 -75l98 -7q12 -1 48.5 -4.5t50.5 -5.5l-2 111q0 245 28 516zM750 561v-14q-2 -2 -2 -12l-5 -25q-11 -130 -61 -184q-41 -25 -94 -35q-44 -8 -101 -8q-58 0 -137 14q-26 6 -39.5 29.5t-13.5 54.5q7 92 72 137q36 18 51 23q56 16 110 16q20 2 58 2
q8 0 12 2h12h138z" />
    <glyph glyph-name="Abreve" unicode="&#x102;" horiz-adv-x="1669"
d="M659 1923l-16 14q-3 0 -9.5 1t-10.5 1q-8 -2 -27 -2q-31 0 -35 -10l-37 -2l6 -20q2 -8 7 -23q24 -114 79 -178q62 -57 199 -57q142 0 223 75q8 9 15.5 17.5t14.5 20t12 18.5t12.5 22l10 20t11 23t10.5 21l33 78h-12h-17q-12 -3 -18 -3h-14q-12 0 -39 -1t-37 -1
q-20 -57 -74 -100q-53 -43 -108 -43h-9q-2 0 -2 2h-4h-2l-4 -2h-6q-57 0 -100 37t-52 92zM944 1454h-196q-86 -176 -209 -446q-102 -221 -158.5 -340.5t-155 -312t-190.5 -349.5l67 6l39 3l39 3l78 7q28 0 68 4q9 21 30 61t27 53q45 103 51 119q109 2 309 2q204 0 306 -2
q18 -90 51 -233q5 0 153 -11l152 -12q-97 225 -197 539q-55 176 -153 524q-65 231 -111 385zM864 1077l37 -159q34 -133 49 -205l49 -205h-106h-66h-67h-117h-119q92 213 183 434l118 297q16 -62 39 -162z" />
    <glyph glyph-name="abreve" unicode="&#x103;" horiz-adv-x="1275"
d="M463 1577l-17 14q-3 0 -9.5 1t-10.5 1q-8 -2 -27 -2q-30 0 -34 -10l-37 -2l6 -20q5 -20 6 -23q24 -113 80 -178q63 -58 198 -58q142 0 224 76q8 9 15.5 17.5t14.5 20t12 18.5t12.5 22l10 20t11 23t10.5 21l33 77h-13h-16q-8 -2 -19 -2h-14q-12 0 -39 -1t-37 -1
q-21 -58 -73 -100q-53 -43 -109 -43h-8q-2 0 -2 2h-4h-2l-4 -2h-7q-57 0 -100 37q-42 36 -51 92zM1036 633q6 53 6 108q0 172 -86 273q-57 55 -151 82q-71 18 -174 18q-170 0 -375 -63q-4 -29 -4 -84v-17q-2 -8 -2 -24v-23q-2 -8 -2 -18q177 82 352 82q131 -11 213 -74
q47 -50 47 -133v-15q-2 -10 -2 -22q-2 -2 -2 -8v-8h-111h-112q-182 0 -314 -66q-93 -47 -149 -158q-43 -92 -43 -207q0 -120 66 -192q82 -82 239 -82q119 0 209 33q105 40 176 119q-2 -10 -2 -21v-8v-8v-19l-2 -75l98 -7q12 -1 48.5 -4.5t50.5 -5.5l-2 111q0 245 28 516z
M750 561v-14q-2 -2 -2 -12l-5 -25q-11 -130 -61 -184q-41 -25 -94 -35q-44 -8 -101 -8q-58 0 -137 14q-26 6 -39.5 29.5t-13.5 54.5q7 92 72 137q36 18 51 23q56 16 110 16q20 2 58 2q8 0 12 2h12h138z" />
    <glyph glyph-name="Aogonek" unicode="&#x104;" horiz-adv-x="1669"
d="M1135 -174q0 -27 21 -44.5t52 -17.5q64 0 140 35v-22q-2 -10 -2 -31v-29q-3 -15 -3 -24q0 -5 3 -8v-9v-30q-96 -15 -142 -15h-6h-8q-97 8 -137 27q-68 37 -68 125q0 63 39 133q16 32 70 100l14 7h31q18 -3 37 -3h38h13q-69 6 -127 9q-33 143 -51 233q-102 2 -306 2
q-200 0 -309 -2q-6 -16 -51 -119q-6 -13 -27 -53t-30 -61q-40 -4 -68 -4l-78 -7l-39 -3l-39 -3l-67 -6q92 157 190.5 349.5t155 312t158.5 340.5q123 270 209 446h196q46 -154 111 -385q98 -348 153 -524q100 -314 197 -539l-152 12h-10q-52 -66 -72 -96q-36 -63 -36 -96z
M999 508l-49 205q-15 72 -49 205l-37 159q-23 101 -39 162l-118 -297q-91 -221 -183 -434h119h117h67h66h106z" />
    <glyph glyph-name="aogonek" unicode="&#x105;" horiz-adv-x="1275"
d="M971 -236q63 0 139 35v-22q-2 -10 -2 -31v-29q-2 -10 -2 -24q0 -6 2 -8v-9v-30q-96 -15 -141 -15h-6h-9q-97 8 -137 27q-67 37 -67 125q0 65 38 133q16 32 70 100l6 2l-49 5l2 75v19v8v8q0 11 2 21q-71 -79 -176 -119q-90 -33 -209 -33q-157 0 -239 82q-66 72 -66 192
q0 115 43 207q56 111 149 158q132 66 314 66h112h111v8q0 6 2 8q0 12 2 22v15q0 83 -47 133q-82 63 -213 74q-175 0 -352 -82q0 10 2 18v23q0 16 2 24v17q0 55 4 84q205 63 375 63q103 0 174 -18q94 -27 151 -82q86 -101 86 -273q0 -55 -6 -108q-28 -271 -28 -516l2 -111
q-2 0 -6.5 1t-6.5 1q-58 -79 -63 -86q-37 -65 -37 -96q0 -27 21.5 -44.5t52.5 -17.5zM750 547v14h-138h-12q-4 -2 -12 -2q-38 0 -58 -2q-54 0 -110 -16q-15 -5 -51 -23q-65 -45 -72 -137q0 -31 13.5 -54.5t39.5 -29.5q79 -14 137 -14q57 0 101 8q53 10 94 35q50 54 61 184
l5 25q0 10 2 12z" />
    <glyph glyph-name="Cacute" unicode="&#x106;" horiz-adv-x="1529"
d="M813 1864l-74 -88q-21 -28 -65 -80q-42 -49 -90 -99q5 0 14.5 1t23.5 2t23 2q25 0 35 2h27q8 0 28.5 1t28.5 1l53 53q64 67 80 88q23 23 37 35q31 33 100 96q-50 -4 -102 -4q-20 -2 -58 -2q-20 -2 -47 -2zM1372 1358l19 10q-160 113 -416 113q-166 0 -295 -39
q-160 -51 -266 -154q-111 -113 -172 -315q-47 -169 -47 -342q0 -126 26 -230q32 -120 98 -202q91 -99 238 -150q127 -41 285 -41q255 0 446 119v43q0 46 4 164q6 159 6 164q-101 -88 -213 -136q-112 -47 -219 -47q-106 0 -192 19q-105 20 -172 76v-2q-50 47 -72 118
q-18 58 -18 146q0 145 32 258q40 142 134 241h-3q75 75 185 107q102 27 205 27q107 0 210 -44t187 -128q11 89 16 112q1 10 11 60q1 10 4 28.5t4 22.5z" />
    <glyph glyph-name="cacute" unicode="&#x107;" horiz-adv-x="1214"
d="M707 1616l-15 -6q-32 -36 -135 -162l-108 -127q-9 -11 -113 -127q7 1 22 2t23 2q8 0 26 1t27 1q74 4 101 4q88 85 180 187l53 57l63 63q84 84 119 117q-47 -6 -121 -6q-11 -1 -33 -2t-32 -2q-12 0 -31 -1t-26 -1zM1020 1049l16 18q-128 49 -270 49q-131 0 -231 -33
q-129 -38 -213 -114q-92 -92 -134 -240q-32 -113 -32 -260q0 -102 18 -170q27 -92 76 -152v3q67 -86 184 -119q97 -31 223 -31q160 0 301 53q-2 35 -2 115q0 59 2 94q0 24 5 92q-87 -41 -150 -41h-10l-148 4h2q-156 11 -231 60h2q-34 24 -51 78q-15 46 -15 100q6 73 31 156
q28 88 76 139q47 59 125 84q70 24 145 24q140 0 279 -71l8 59v-2q2 18 10 55q1 10 11 54z" />
    <glyph glyph-name="Cdotaccent" unicode="&#x10a;" horiz-adv-x="1529"
d="M741 1849v-8v-6q0 -61 -22 -168q17 0 29 2h32q12 0 32.5 1t27.5 1q6 0 24 -1t29 -1h27q10 -2 22 -2v6v10v11v6v12q0 61 23 176q-71 -6 -115 -6q-59 0 -88 4l-21 -18v-19zM1372 1358l19 10q-160 113 -416 113q-166 0 -295 -39q-160 -51 -266 -154q-111 -113 -172 -315
q-47 -169 -47 -342q0 -126 26 -230q32 -120 98 -202q91 -99 238 -150q127 -41 285 -41q255 0 446 119v43q0 46 4 164q6 159 6 164q-101 -88 -213 -136q-112 -47 -219 -47q-106 0 -192 19q-105 20 -172 76v-2q-50 47 -72 118q-18 58 -18 146q0 145 32 258q40 142 134 241h-3
q75 75 185 107q102 27 205 27q107 0 210 -44t187 -128q11 89 16 112q1 10 11 60q1 10 4 28.5t4 22.5z" />
    <glyph glyph-name="cdotaccent" unicode="&#x10b;" horiz-adv-x="1214"
d="M553 1503v-8v-6q0 -56 -23 -168q17 0 29 2h33q12 0 32 1t27 1q6 0 24.5 -1t29.5 -1h26q10 -2 23 -2v6v10v11v6v12q0 66 22 176q-71 -6 -114 -6q-60 0 -89 4l-20 -18v-19zM1020 1049l16 18q-128 49 -270 49q-131 0 -231 -33q-129 -38 -213 -114q-92 -92 -134 -240
q-32 -113 -32 -260q0 -102 18 -170q27 -92 76 -152v3q67 -86 184 -119q97 -31 223 -31q160 0 301 53q-2 35 -2 115q0 59 2 94q0 24 5 92q-87 -41 -150 -41h-10l-148 4h2q-156 11 -231 60h2q-34 24 -51 78q-15 46 -15 100q6 73 31 156q28 88 76 139q47 59 125 84
q70 24 145 24q140 0 279 -71l8 59v-2q2 18 10 55q1 10 11 54z" />
    <glyph glyph-name="Ccaron" unicode="&#x10c;" horiz-adv-x="1529"
d="M930 1591l37 56q4 6 28 39.5t32.5 45t31 42t37.5 49t37.5 46t45 52.5t46.5 51l-109 -4h2l-65 -2q-69 -71 -154 -178l-37 -47l-2 2q-103 162 -149 223h-35q-16 2 -45 2q-46 0 -82 4q89 -123 176 -293l47 -88h158zM1372 1358l19 10q-160 113 -416 113q-166 0 -295 -39
q-160 -51 -266 -154q-111 -113 -172 -315q-47 -169 -47 -342q0 -126 26 -230q32 -120 98 -202q91 -99 238 -150q127 -41 285 -41q255 0 446 119v43q0 46 4 164q6 159 6 164q-101 -88 -213 -136q-112 -47 -219 -47q-106 0 -192 19q-105 20 -172 76v-2q-50 47 -72 118
q-18 58 -18 146q0 145 32 258q40 142 134 241h-3q75 75 185 107q102 27 205 27q107 0 210 -44t187 -128q11 89 16 112q1 10 11 60q1 10 4 28.5t4 22.5z" />
    <glyph glyph-name="ccaron" unicode="&#x10d;" horiz-adv-x="1271"
d="M582 1147h155q17 20 39 55q6 8 33 46t38 53.5t37.5 50.5t45.5 58.5t46.5 55.5t55.5 62l-106 -6h2l-66 -2q-74 -76 -153 -179l-37 -45l-2 2q-9 14 -33.5 52.5t-38 59t-36.5 52t-44 58.5q-21 0 -35 2q-29 0 -45 2q-42 0 -82 4q87 -118 179 -293zM1077 1049l19 18
q-128 49 -273 49q-131 0 -231 -33q-130 -38 -211 -114q-94 -91 -133 -240q-35 -114 -35 -260q0 -104 20 -170q23 -90 74 -152v3q66 -86 185 -119q97 -31 223 -31q160 0 301 53q0 17 -1 57t-1 58q0 11 1 43t1 51q4 70 4 92q-84 -41 -148 -41h-12l-145 4q-159 12 -230 60
q-34 24 -51 78q-14 54 -14 100q11 92 33 156q28 89 73 139q47 59 125 84q71 24 146 24q139 0 278 -71l8 59v-2l11 55q2 8 5 27t5 27z" />
    <glyph glyph-name="Dcaron" unicode="&#x10e;"
d="M739 1591l-47 88q-87 170 -176 293q36 -4 82 -4q29 0 45 -2h35q46 -61 149 -223l2 -2l37 47q85 107 154 178l65 2h-2l109 4q-24 -26 -46.5 -51t-45 -52.5t-37.5 -46t-37.5 -49t-31 -42t-32.5 -45t-28 -39.5l-37 -56h-158zM1462 1104q29 -102 29 -217q0 -202 -41 -357
q-57 -218 -190 -329q-119 -93 -302 -133q-108 -25 -323 -33q-35 -2 -105 -5t-104 -5q-166 -13 -213 -19q131 677 131 1333v64v61l21 21q200 -24 391 -27q8 0 43 -2t47.5 -3t43.5 -3.5t49 -4.5t44 -5t48 -7.5t44 -9.5q179 -40 283 -133q77 -80 104 -186zM1280 768q4 31 4 94
q0 178 -84 285q-72 72 -192 102q-102 28 -224 31q-110 0 -221 6q-16 -472 -67 -883q37 2 215 7h14h16q109 3 189 14q102 13 178 59q61 40 109 127q33 62 63 158z" />
    <glyph glyph-name="dcaron" unicode="&#x10f;" horiz-adv-x="1333"
d="M1520 1722l-13 -188l-24 -59q-8 -24 -28 -73.5t-25 -62.5q-16 -38 -60 -133q20 4 33 4q42 6 82 9q14 2 33 2q44 52 100 125q13 17 46 59t50 65l43 60q2 15 4.5 32.5t6.5 40.5t6 37q2 12 7.5 53t8.5 60q-101 -14 -191 -14h-30q-19 0 -29 2zM647 1120h-29q-84 0 -167 -39
q-88 -42 -140 -110v2q-87 -108 -127 -256q-32 -131 -32 -271q0 -176 75 -292q46 -71 122.5 -108.5t166.5 -37.5h10q4 0 6 2h5h14q94 0 178 41q86 42 148 113q-3 -15 -3 -25v-10v-12v-25v-33q-2 -14 -2 -30l64 -6q56 -3 131 -15q12 735 160 1530q-20 -4 -27 -4l-12 -4
q-106 -12 -164 -17q-53 -284 -86 -548q-43 75 -120.5 115t-170.5 40zM297 578q10 95 43 180q38 98 96 153q69 66 162 66h23q71 0 122 -45q54 -51 68 -123q16 -68 16 -156t-12 -139q-22 -90 -74 -129l2 2q-29 -18 -65.5 -28.5t-64 -13t-70.5 -3.5q-70 0 -101 8q-49 9 -86 43
h2q-35 38 -47 84q-11 43 -14 101z" />
    <glyph glyph-name="Dcroat" unicode="&#x110;"
d="M561 1700q-29 -2 -78 -2q43 58 43 92q0 26 -10 43l19 29q184 -4 280 -4q49 0 76 2h84q29 0 84 1t78 1q-45 -61 -45 -95q0 -26 30 -69q-48 0 -75 2h-166h-76h-76h-168zM1462 1104q29 -102 29 -217q0 -202 -41 -357q-57 -218 -190 -329q-119 -93 -302 -133
q-108 -25 -323 -33q-35 -2 -105 -5t-104 -5q-166 -13 -213 -19q131 677 131 1333v64v61l21 21q200 -24 391 -27q8 0 43 -2t47.5 -3t43.5 -3.5t49 -4.5t44 -5t48 -7.5t44 -9.5q179 -40 283 -133q77 -80 104 -186zM1280 768q4 31 4 94q0 178 -84 285q-72 72 -192 102
q-102 28 -224 31q-110 0 -221 6q-16 -472 -67 -883q37 2 215 7h14h16q109 3 189 14q102 13 178 59q61 40 109 127q33 62 63 158z" />
    <glyph glyph-name="dcroat" unicode="&#x111;" horiz-adv-x="1329"
d="M645 1120h-24q-89 0 -171.5 -39t-138.5 -110l2 2q-87 -105 -129 -260q-30 -120 -30 -271q0 -180 73 -288q41 -69 123 -111q78 -35 162 -35h10h4h6h13q92 0 179 43.5t150 118.5q0 -17 -1 -39t-1 -31v-28v-39q12 0 123 -6l72 -4q5 542 92 1214l119 10h12h13q1 8 6 39l6 39
l8 66l-145 -15q2 27 10 72l12 70l-57 -5q-65 -6 -142 -6l-20 -141q-51 -2 -154 -2h-153l-6 -68q0 -3 -1 -14t-1 -20q-2 -14 -2 -35q205 0 301 4q-2 -16 -7 -58t-6 -63l-12 -119l-2 -26q-43 71 -125 114q-72 41 -168 41zM356 600q18 171 97 266q75 90 202 90q140 0 199 -90
q53 -73 53 -207q0 -90 -18 -161q-27 -93 -78 -152q-80 -92 -225 -92q-58 0 -107.5 22t-77.5 66q-49 73 -49 193q0 42 4 65z" />
    <glyph glyph-name="Emacron" unicode="&#x112;" horiz-adv-x="1441"
d="M391 1862l-18 -29q10 -17 10 -43q0 -34 -43 -92q49 0 78 2h168h76h75h166q27 -2 76 -2q-31 44 -31 69q0 34 45 95q-23 0 -78 -1t-84 -1h-83q-27 -2 -76 -2q-97 0 -281 4zM367 1485l-23 -21q-6 -729 -129 -1458q267 31 487 31q217 0 474 -31v78v86q6 156 6 160
q-243 18 -457 18q-80 0 -252 -4q8 63 10 90q11 82 11 88q12 120 16 180h307h172h172v25q2 12 2 27q3 67 17 133q-411 -6 -432 -6q-38 0 -111 1t-111 1q6 106 15 200l12 197q138 -6 262 -6q227 0 442 22q6 46 17 107l12 82q-260 -31 -477 -31t-442 31z" />
    <glyph glyph-name="emacron" unicode="&#x113;" horiz-adv-x="1310"
d="M440 1354q-29 -2 -78 -2q44 59 44 92q0 24 -11 43l19 29q230 -5 280 -5q49 0 76 2h84q30 0 84 1.5t78 1.5q-45 -61 -45 -95q0 -26 30 -69q-48 0 -75 2h-166h-76h-76h-168zM1116 715v-10q-2 -4 -2 -13v-22h2q-2 -8 -2 -19q0 -12 -2 -16l-4 -39q-162 -4 -498 -4
q-44 0 -67 2h-72h-119v-6q-2 -18 -2 -51q0 -59 15 -111q17 -60 55 -86v2q106 -66 285 -66h18q98 0 160 9q94 10 174 51v-33q-2 -25 -2 -76v-32q0 -88 2 -125q-201 -68 -410 -68q-118 10 -211 41q-119 44 -182 107q-53 59 -80 151q-22 86 -22 170q0 135 38 256
q46 150 129 240q72 75 185 112q85 31 209 35q103 -7 170 -27q93 -27 147 -81q47 -50 72 -136q14 -71 14 -155zM479 760h96q129 0 383 4q-13 109 -77 170q-70 70 -174 70q-146 0 -234 -82q-78 -71 -90 -160q33 -2 96 -2z" />
    <glyph glyph-name="Edotaccent" unicode="&#x116;" horiz-adv-x="1441"
d="M565 1849v-8v-6q0 -61 -22 -168q16 0 28 2h33q12 0 32.5 1t27.5 1q6 0 24 -1t29 -1h26q10 -2 23 -2v6v10v11v6v12q0 66 22 176q-71 -6 -114 -6q-59 0 -88 4l-21 -18v-19zM367 1485l-23 -21q-6 -729 -129 -1458q267 31 487 31q217 0 474 -31v78v86q6 156 6 160
q-243 18 -457 18q-80 0 -252 -4q8 63 10 90q11 82 11 88q12 120 16 180h307h172h172v25q2 12 2 27q3 67 17 133q-411 -6 -432 -6q-38 0 -111 1t-111 1q6 106 15 200l12 197q138 -6 262 -6q227 0 442 22q6 46 17 107l12 82q-260 -31 -477 -31t-442 31z" />
    <glyph glyph-name="edotaccent" unicode="&#x117;" horiz-adv-x="1310"
d="M627 1323h-33q-12 -2 -29 -2q23 112 23 168v6v8v19l20 18q29 -4 88 -4q44 0 115 6q-23 -115 -23 -176v-12v-6v-11v-10v-6q-12 0 -22 2h-27q-11 0 -29 1t-24 1q-7 0 -27 -1t-32 -1zM1116 715v-10q-2 -4 -2 -13v-22h2q-2 -8 -2 -19q0 -12 -2 -16l-4 -39q-162 -4 -498 -4
q-44 0 -67 2h-72h-119v-6q-2 -18 -2 -51q0 -59 15 -111q17 -60 55 -86v2q106 -66 285 -66h18q98 0 160 9q94 10 174 51v-33q-2 -25 -2 -76v-32q0 -88 2 -125q-201 -68 -410 -68q-118 10 -211 41q-119 44 -182 107q-53 59 -80 151q-22 86 -22 170q0 135 38 256
q46 150 129 240q72 75 185 112q85 31 209 35q103 -7 170 -27q93 -27 147 -81q47 -50 72 -136q14 -71 14 -155zM479 760h96q129 0 383 4q-13 109 -77 170q-70 70 -174 70q-146 0 -234 -82q-78 -71 -90 -160q33 -2 96 -2z" />
    <glyph glyph-name="Eogonek" unicode="&#x118;" horiz-adv-x="1441"
d="M809 1454q217 0 477 31l-12 -82q-11 -60 -17 -107q-215 -22 -442 -22q-124 0 -262 6l-12 -197q-9 -94 -15 -200q38 0 111 -1t111 -1q21 0 432 6q-14 -66 -17 -133q0 -15 -2 -27v-25h-172h-172h-307q-4 -60 -16 -180q0 -6 -11 -88q-2 -27 -10 -90q172 4 252 4
q214 0 457 -18q0 -4 -6 -160v-86v-78l-58 6q-53 -67 -67 -90q-37 -65 -37 -96q0 -27 21 -44.5t52 -17.5q64 0 140 35v-22q-2 -10 -2 -31v-29q-2 -10 -2 -24q0 -6 2 -8v-9v-30q-96 -15 -142 -15h-6h-8q-97 8 -137 27q-68 37 -68 125q0 63 39 133q16 32 70 100l14 7h31
q12 -3 24 -3q-202 17 -340 17q-220 0 -487 -31q123 729 129 1458l23 21q225 -31 442 -31z" />
    <glyph glyph-name="eogonek" unicode="&#x119;" horiz-adv-x="1310"
d="M1116 715v-10q-2 -4 -2 -13v-22h2q-2 -8 -2 -19q0 -12 -2 -16l-4 -39q-162 -4 -498 -4q-44 0 -67 2h-72h-119v-6q-2 -18 -2 -51q0 -59 15 -111q17 -60 55 -86v2q106 -66 285 -66h18q98 0 160 9q94 10 174 51v-33q-2 -25 -2 -76v-32q0 -88 2 -125q-180 -60 -346 -66
q-49 -62 -66 -88q-37 -65 -37 -96q0 -27 21.5 -44.5t52.5 -17.5q63 0 139 35v-22q-2 -10 -2 -31v-29q-2 -10 -2 -24q0 -7 2 -9v-8v-30q-96 -15 -141 -15h-6h-8q-98 8 -138 27q-67 37 -67 125q0 63 39 133q17 35 69 100l4 2q-67 9 -135 31q-119 44 -182 107q-53 59 -80 151
q-22 86 -22 170q0 135 38 256q46 150 129 240q72 75 185 112q85 31 209 35q103 -7 170 -27q93 -27 147 -81q47 -50 72 -136q14 -71 14 -155zM479 760h96q129 0 383 4q-13 109 -77 170q-70 70 -174 70q-146 0 -234 -82q-78 -71 -90 -160q33 -2 96 -2z" />
    <glyph glyph-name="Ecaron" unicode="&#x11a;" horiz-adv-x="1441"
d="M754 1591l37 56q4 6 28 39.5t32.5 45t31 42t37.5 49t37.5 46t45 52.5t46.5 51l-109 -4h2l-65 -2q-69 -71 -154 -178l-37 -47l-2 2q-103 162 -149 223h-35q-16 2 -45 2q-46 0 -82 4q89 -123 176 -293l47 -88h158zM367 1485l-23 -21q-6 -729 -129 -1458q267 31 487 31
q217 0 474 -31v78v86q6 156 6 160q-243 18 -457 18q-80 0 -252 -4q8 63 10 90q11 82 11 88q12 120 16 180h307h172h172v25q2 12 2 27q3 67 17 133q-411 -6 -432 -6q-38 0 -111 1t-111 1q6 106 15 200l12 197q138 -6 262 -6q227 0 442 22q6 46 17 107l12 82
q-260 -31 -477 -31t-442 31z" />
    <glyph glyph-name="ecaron" unicode="&#x11b;" horiz-adv-x="1310"
d="M618 1245l-47 88q-87 170 -176 293q36 -4 82 -4q29 0 45 -2h35q52 -69 150 -223l2 -2l36 47q85 107 154 178l66 2h-2l108 4q-28 -30 -56 -62.5t-47 -55t-46.5 -59t-37 -49.5t-38.5 -54t-33 -46l-37 -55h-158zM1116 715v-10q-2 -4 -2 -13v-22h2q-2 -8 -2 -19q0 -12 -2 -16
l-4 -39q-162 -4 -498 -4q-44 0 -67 2h-72h-119v-6q-2 -18 -2 -51q0 -59 15 -111q17 -60 55 -86v2q106 -66 285 -66h18q98 0 160 9q94 10 174 51v-33q-2 -25 -2 -76v-32q0 -88 2 -125q-201 -68 -410 -68q-118 10 -211 41q-119 44 -182 107q-53 59 -80 151q-22 86 -22 170
q0 135 38 256q46 150 129 240q72 75 185 112q85 31 209 35q103 -7 170 -27q93 -27 147 -81q47 -50 72 -136q14 -71 14 -155zM479 760h96q129 0 383 4q-13 109 -77 170q-70 70 -174 70q-146 0 -234 -82q-78 -71 -90 -160q33 -2 96 -2z" />
    <glyph glyph-name="Gbreve" unicode="&#x11e;" horiz-adv-x="1619"
d="M711 1679q-50 42 -74 117q7 32 14 45q12 30 25 33q4 2 10 2q8 2 27 2q6 0 12.5 -1t7.5 -1l15 -14q14 -44 57 -68.5t96 -24.5h6h4h4h5h4h6q52 0 98 27q52 28 80 80q12 0 37 1t37 1h12h18h21h10l-31 -63q-2 -3 -13 -25.5t-15 -29t-14 -23t-20 -27t-22 -20.5
q-50 -39 -110 -52q-46 -10 -111 -10q-131 0 -196 51zM627 1831l10 -35l-2 -6zM1221 1456q124 -24 235 -94l-8 -53l-6 -35q-3 -24 -6 -45q-10 -47 -13 -80q-94 87 -209.5 130.5t-236.5 43.5q-107 0 -209 -29q-111 -28 -188 -100q-87 -94 -129 -238q-33 -114 -33 -254
q0 -98 14 -155q24 -83 76 -127v2q62 -49 172 -70q81 -16 190 -16q49 0 76 2q90 0 152 22q31 9 55 33l2 2q4 50 4 72q4 46 4 68q-47 2 -145 2h-148l21 223h260q84 0 131 2h131q-29 -337 -29 -612q-223 -140 -528 -140q-162 0 -291 37q-152 48 -243 150q-64 78 -97 196
q-28 104 -28 223q0 195 43 353q58 208 178 323q104 98 262 146q133 43 291 43q136 0 250 -25zM1155 391l-2 -2z" />
    <glyph glyph-name="gbreve" unicode="&#x11f;" horiz-adv-x="1296"
d="M524 1577l-16 14q-2 0 -9 1t-12 1q-8 -2 -24 -2q-33 0 -37 -10l-37 -2l6 -20q5 -20 6 -23q10 -39 16 -60.5t23 -56t41 -61.5q63 -58 199 -58q141 0 223 76q42 44 86 142l35 77h-12h-19q-8 -2 -18 -2h-12q-13 0 -40.5 -1t-35.5 -1q-25 -62 -76 -100q-53 -43 -109 -43h-8
q-2 0 -2 2h-4h-2l-4 -2h-6q-58 0 -98 37q-45 39 -54 92zM1042 117l7 37q52 511 143 960l-135 -16l-66 -4l-26 -109q0 -6 -4 -18q-7 -14 -7 -23q-46 69 -131 117q-82 45 -176 45h-29q-88 0 -172 -35t-145 -102q-78 -94 -111 -228q-28 -118 -28 -241q0 -207 84 -332
q41 -64 123 -109q80 -39 161 -39q198 0 330 138q-2 -12 -2 -33q-26 -94 -106 -174q-40 -48 -115 -72q-65 -18 -133 -18q-164 0 -295 76q-8 -49 -10 -80l-13 -88q-15 -109 -22 -168q140 -39 315 -39q136 0 217 18q118 26 197 105q70 76 111 206q23 84 38 226zM834 575v3
q-7 -71 -25 -123q-28 -69 -74 -99q-95 -39 -213 -39q-40 0 -98 7q-51 6 -88 30q-30 37 -39 88q-8 30 -12 103v14q-2 6 -2 16q7 84 26 150q26 88 66 135q36 44 92 68t115 24q119 0 186 -73q70 -80 70 -230q0 -49 -4 -74z" />
    <glyph glyph-name="Gdotaccent" unicode="&#x120;" horiz-adv-x="1619"
d="M823 1669h-32q-12 -2 -29 -2q22 107 22 168v6v8v19l21 18q29 -4 88 -4q45 0 115 6q-23 -115 -23 -176v-12v-6v-11v-10v-6q-12 0 -22 2h-27q-11 0 -29 1t-24 1q-7 0 -27.5 -1t-32.5 -1zM1221 1456q124 -24 235 -94l-8 -53l-6 -35q-3 -24 -6 -45q-10 -47 -13 -80
q-94 87 -209.5 130.5t-236.5 43.5q-107 0 -209 -29q-111 -28 -188 -100q-87 -94 -129 -238q-33 -114 -33 -254q0 -98 14 -155q24 -83 76 -127v2q62 -49 172 -70q81 -16 190 -16q49 0 76 2q90 0 152 22q31 9 55 33l2 2q4 50 4 72q4 46 4 68q-47 2 -145 2h-148l21 223h260
q84 0 131 2h131q-29 -337 -29 -612q-223 -140 -528 -140q-162 0 -291 37q-152 48 -243 150q-64 78 -97 196q-28 104 -28 223q0 195 43 353q58 208 178 323q104 98 262 146q133 43 291 43q136 0 250 -25zM1155 391l-2 -2z" />
    <glyph glyph-name="gdotaccent" unicode="&#x121;" horiz-adv-x="1296"
d="M606 1503v-8v-6q0 -61 -22 -168q16 0 28 2h33q12 0 32.5 1t27.5 1q6 0 24 -1t29 -1h26q10 -2 23 -2v6v10v11v6v12q0 66 22 176q-70 -6 -114 -6q-59 0 -88 4l-21 -18v-19zM1042 117l7 37q52 511 143 960l-135 -16l-66 -4l-26 -109q0 -6 -4 -18q-7 -14 -7 -23
q-46 69 -131 117q-82 45 -176 45h-29q-88 0 -172 -35t-145 -102q-78 -94 -111 -228q-28 -118 -28 -241q0 -207 84 -332q41 -64 123 -109q80 -39 161 -39q198 0 330 138q-2 -12 -2 -33q-26 -94 -106 -174q-40 -48 -115 -72q-65 -18 -133 -18q-164 0 -295 76q-8 -49 -10 -80
l-13 -88q-15 -109 -22 -168q140 -39 315 -39q136 0 217 18q118 26 197 105q70 76 111 206q23 84 38 226zM834 575v3q-7 -71 -25 -123q-28 -69 -74 -99q-95 -39 -213 -39q-40 0 -98 7q-51 6 -88 30q-30 37 -39 88q-8 30 -12 103v14q-2 6 -2 16q7 84 26 150q26 88 66 135
q36 44 92 68t115 24q119 0 186 -73q70 -80 70 -230q0 -49 -4 -74z" />
    <glyph glyph-name="Gcommaaccent" unicode="&#x122;" horiz-adv-x="1619"
d="M1221 1456q124 -24 235 -94l-8 -53l-6 -35q-3 -24 -6 -45q-10 -47 -13 -80q-94 87 -209.5 130.5t-236.5 43.5q-107 0 -209 -29q-111 -28 -188 -100q-87 -94 -129 -238q-33 -114 -33 -254q0 -98 14 -155q24 -83 76 -127v2q62 -49 172 -70q81 -16 190 -16q49 0 76 2
q90 0 152 22q31 9 55 33l2 2q4 50 4 72q4 46 4 68q-47 2 -145 2h-148l21 223h260q84 0 131 2h131q-29 -337 -29 -612q-223 -140 -528 -140q-162 0 -291 37q-152 48 -243 150q-64 78 -97 196q-28 104 -28 223q0 195 43 353q58 208 178 323q104 98 262 146q133 43 291 43
q136 0 250 -25zM1155 391l-2 -2zM768 -76h31q82 0 190 15q-3 -19 -8.5 -60t-7.5 -53q-17 -109 -17 -111l-43 -59q-18 -24 -55 -71.5t-41 -53.5q-56 -73 -100 -125q-19 0 -33 -2q-57 -5 -82 -8q-13 0 -33 -4q44 95 60 133q6 15 25.5 63.5t27.5 71.5l25 59l12 189l20 18
q10 -2 29 -2z" />
    <glyph glyph-name="gcommaaccent" unicode="&#x123;" horiz-adv-x="1296"
d="M1042 117l7 37q52 511 143 960l-135 -16l-66 -4l-26 -109q0 -6 -4 -18q-7 -14 -7 -23q-46 69 -131 117q-82 45 -176 45h-29q-88 0 -172 -35t-145 -102q-78 -94 -111 -228q-28 -118 -28 -241q0 -207 84 -332q41 -64 123 -109q80 -39 161 -39q198 0 330 138q-2 -12 -2 -33
q-26 -94 -106 -174q-40 -48 -115 -72q-65 -18 -133 -18q-164 0 -295 76q-8 -49 -10 -80l-13 -88q-15 -109 -22 -168q140 -39 315 -39q136 0 217 18q118 26 197 105q70 76 111 206q23 84 38 226zM834 575v3q-7 -71 -25 -123q-28 -69 -74 -99q-95 -39 -213 -39q-40 0 -98 7
q-51 6 -88 30q-30 37 -39 88q-8 30 -12 103v14q-2 6 -2 16q7 84 26 150q26 88 66 135q36 44 92 68t115 24q119 0 186 -73q70 -80 70 -230q0 -49 -4 -74zM369 -565l-13 -189l-24 -59q-8 -23 -27.5 -71.5t-25.5 -63.5q-16 -38 -60 -133q20 4 33 4q25 3 82 8q14 2 33 2
q44 52 100 125q4 6 41 53.5t55 71.5l43 59q0 2 17 111q2 10 7.5 51.5t8.5 60.5q-101 -14 -190 -14h-31q-19 0 -29 2z" />
    <glyph glyph-name="Hbar" unicode="&#x126;" horiz-adv-x="1611"
d="M1421 1274h80q-24 -16 -32 -77t22 -85h-92q-58 -466 -58 -872q0 -54 5 -234q-39 5 -121 12l-66 7q-25 0 -57 4q3 274 16 475q-51 2 -151 2h-154h-156q-100 0 -153 -2q-34 -287 -62 -475q-15 -2 -35.5 -3.5t-47 -4t-42.5 -3.5l-65 -6q-23 -2 -59 -6q111 535 139 1108
q-43 -2 -123 -2q20 37 31 58.5t15.5 31t13 31.5t16.5 41h53q4 126 4 188l25 21q95 -16 200 -19l-8 -190h639q5 31 14.5 95t14.5 95l92 9q29 0 67 6q13 0 37 4q7 0 18 1t15 1q-34 -204 -35 -211zM1145 791q6 77 33 323h-627q-10 -182 -23 -326h37h37h96q213 0 447 3z" />
    <glyph glyph-name="hbar" unicode="&#x127;" horiz-adv-x="1419"
d="M557 1198h-29q-8 -101 -24 -237q139 159 319 159h27q80 0 154 -30q74 -36 108 -105q51 -100 51 -235q0 -28 -4 -78q-10 -232 -10 -414v-61q0 -43 2 -66q0 -22 1 -64.5t1 -60.5q-104 13 -119 14l-61 7q-40 4 -55 4q17 301 55 639q2 18 2 61q0 92 -27 150q-27 43 -71 66.5
t-95 23.5q-58 0 -115 -24.5t-96 -69.5q-84 -97 -98 -246q-4 -62 -4 -86l-6 -84q-31 -365 -39 -430l-55 -6q-10 -1 -32 -3.5t-32 -3.5q-82 -7 -121 -12q110 563 156 1192h-72q-47 -2 -133 -2q82 55 82 86q0 26 -18 41l14 33l135 -2q4 58 8 174q28 -4 47 -4l54 -6
q93 -11 98 -11l-12 -153h157h134q96 0 145 2q196 0 278 2q-44 -29 -63 -51q-23 -26 -23 -39q0 -26 76 -72q-86 0 -133 2h-291h-133h-133z" />
    <glyph glyph-name="Itilde" unicode="&#x128;" horiz-adv-x="708"
d="M483 2089l45 -51q62 -62 148 -62q70 0 115 58q23 27 65 127q7 21 23 53l12 29q2 4 5.5 12.5t4.5 11.5h-12h-21q-6 -2 -18 -2h-14h-41h-39q-11 -24 -15 -37q0 -1 -3.5 -8.5t-4.5 -13.5q-10 -25 -17.5 -39.5t-21.5 -30t-30 -20.5q-25 5 -52 32l-49 54q-61 61 -147 61
q-42 0 -81.5 -27.5t-62.5 -74.5q-10 -23 -32 -78l-2 -6h4v-2q-2 -5 -4 -13q-6 -9 -15 -30q-7 -13 -30 -60h16h24h25h18q30 0 62 4q18 41 22 56v-2q10 35 27 57q23 30 41 35q24 -2 55 -33zM367 1466l-25 -16q-66 -699 -160 -1454q84 41 135 41q52 0 123 -41q17 341 49 745
q28 392 62 746q-78 -33 -115 -33q-23 0 -69 12z" />
    <glyph glyph-name="itilde" unicode="&#x129;" horiz-adv-x="634"
d="M301 1743l45 -51q62 -62 148 -62q69 0 114 58q25 30 66 127q9 27 22 53l13 28q1 4 3.5 9.5t4 9t2.5 6.5h-12h-21q-6 -2 -18 -2h-15h-41h-39q-7 -15 -14 -37q0 -1 -3.5 -8.5t-4.5 -13.5q-10 -25 -17.5 -40t-22 -30.5t-30.5 -20.5q-23 5 -51 33l-49 53q-62 62 -148 62
q-42 0 -81 -27.5t-62 -74.5q-23 -52 -33 -78l-2 -6h4v-2q-2 -5 -4 -13q-3 -5 -14 -30q-14 -24 -31 -60h17h24h25h18q30 0 62 4q18 41 22 56v-3q11 37 27 58q23 30 41 35q24 -2 55 -33zM295 1108l-31 -16q-40 -569 -98 -1096q68 35 106 35q37 0 93 -35q7 98 45 565
q10 128 55 563q-67 -37 -107 -37q-36 0 -63 21z" />
    <glyph glyph-name="Imacron" unicode="&#x12a;" horiz-adv-x="708"
d="M190 1862l-18 -29q10 -17 10 -43q0 -34 -43 -92q49 0 78 2h168h76h76h165q27 -2 76 -2q-30 43 -30 69q0 34 45 95q-23 0 -78 -1t-84 -1h-84q-27 -2 -76 -2q-97 0 -281 4zM367 1466l-25 -16q-66 -699 -160 -1454q84 41 135 41q52 0 123 -41q17 341 49 745q28 392 62 746
q-78 -33 -115 -33q-23 0 -69 12z" />
    <glyph glyph-name="imacron" unicode="&#x12b;" horiz-adv-x="634"
d="M8 1516l-18 -29q10 -17 10 -43q0 -34 -43 -92q49 0 78 2h168h76h75h166q27 -2 76 -2q-31 44 -31 69q0 34 45 95q-24 0 -78 -1.5t-83 -1.5h-84q-27 -2 -76 -2q-51 0 -281 5zM295 1108l-31 -16q-40 -569 -98 -1096q68 35 106 35q37 0 93 -35q7 98 45 565q10 128 55 563
q-67 -37 -107 -37q-36 0 -63 21z" />
    <glyph glyph-name="Iogonek" unicode="&#x12e;" horiz-adv-x="708"
d="M322 -141q0 -27 21 -44.5t52 -17.5q64 0 140 35v-22q-3 -15 -3 -31v-29q-2 -10 -2 -24q0 -7 2 -9v-8v-31q-89 -14 -141 -14h-6h-8q-97 8 -137 27q-68 37 -68 125q0 63 39 133q13 29 53 80q-31 -10 -82 -33q94 755 160 1454l25 16q46 -12 69 -12q37 0 115 33
q-34 -354 -62 -746q-32 -404 -49 -745q-3 2 -39 20q-7 -10 -21.5 -30.5t-21.5 -30.5q-36 -63 -36 -96z" />
    <glyph glyph-name="iogonek" unicode="&#x12f;" horiz-adv-x="634"
d="M221 1323h-33q-12 -2 -28 -2q22 107 22 168v6v8v19l21 18q29 -4 88 -4q45 0 115 6q-23 -115 -23 -176v-12v-6v-11v-10v-6q-13 0 -23 2h-26q-11 0 -29 1t-24 1q-7 0 -27.5 -1t-32.5 -1zM334 -209q63 0 139 35v-23q-2 -10 -2 -30v-29q-2 -10 -2 -25q0 -6 2 -8v-8v-31
q-89 -14 -141 -14h-6h-9q-97 8 -137 27q-67 37 -67 125q0 63 39 133q12 25 40 65l-24 -12q58 527 98 1096l31 16q27 -21 63 -21q40 0 107 37q-45 -435 -55 -563q-5 -61 -13.5 -166.5t-15.5 -190.5t-12 -157h2q0 -1 -1 -2t-1 -2l-4 -47q-4 2 -12.5 7t-12.5 7
q-7 -10 -21.5 -30.5t-21.5 -30.5q-37 -65 -37 -96q0 -27 21.5 -44.5t52.5 -17.5z" />
    <glyph glyph-name="Idotaccent" unicode="&#x130;" horiz-adv-x="727"
d="M422 1831v-27q0 -55 -21 -174q17 0 27 2h33q20 2 57 2q49 0 107 -4q-4 24 -4 58q0 66 22 165q-63 -8 -115 -8q-28 0 -86 4zM385 1466l-27 -16q-76 -801 -157 -1454q84 41 135 41q52 0 123 -41q17 341 49 745q20 280 59 746q-78 -33 -112 -33q-24 0 -70 12z" />
    <glyph glyph-name="dotlessi" unicode="&#x131;" horiz-adv-x="634"
d="M295 1108l-31 -16q-40 -569 -98 -1096q68 35 106 35q37 0 93 -35q7 98 45 565q10 128 55 563q-67 -37 -107 -37q-36 0 -63 21z" />
    <glyph glyph-name="IJ" unicode="&#x132;" horiz-adv-x="1552"
d="M367 1466l-25 -16q-66 -699 -160 -1454q84 41 135 41q52 0 123 -41q17 341 49 745q28 392 62 746q-78 -33 -115 -33q-23 0 -69 12zM1270 1452l-19 -16q-23 -156 -48.5 -347t-39.5 -300t-45 -360.5t-39 -315.5q-11 -80 -92 -127q-63 -37 -158 -52l-41 3l-59 6
q-4 -24 -4 -47q-3 -30 -6 -48q-21 -196 -29 -249q5 0 15 1t16 1q24 4 35 4q38 6 67 6l49 8q90 15 152 35q74 21 139 74q69 69 99 170q13 45 32 188q91 816 187 1393q-81 -19 -211 -27z" />
    <glyph glyph-name="ij" unicode="&#x133;" horiz-adv-x="1402"
d="M340 1405l-12 -111q43 -32 92 -32q40 0 98 28q0 18 4 68q0 25 4 65v27q2 10 2 35q4 46 4 57q-62 -41 -96 -41q-27 0 -51 17l-33 -13zM1157 1483l-12 -90q-6 -43 -15 -90l-6 -48q125 15 197 33q1 6 2 20t2 21q0 9 1 23t1 18l6 84q4 28 4 43q1 6 2 20t2 19
q-82 -25 -165 -39zM344 1104l-25 -17q-9 -103 -29 -304.5t-24 -245.5q-10 -108 -31 -306.5t-26 -244.5q68 53 106 53q36 0 93 -51q2 37 16 243.5t22 319.5q20 272 46 561q-67 -18 -93 -18q-22 0 -55 10zM1096 1081l-19 -16q-17 -110 -39 -277q-32 -244 -37 -278l-24 -191
q-11 -90 -27 -188v-4q-2 -4 -2 -8q-8 -61 -14 -88q-13 -48 -37 -78q-43 -41 -154 -57l-59 -13q-4 -33 -25 -180l-16 -115l47 17q4 1 68 14l26 6q80 16 125 31q67 24 113 65q52 49 80 136q13 46 26 147q46 419 134 1092q-111 -15 -166 -15z" />
    <glyph glyph-name="Kcommaaccent" unicode="&#x136;" horiz-adv-x="1658"
d="M365 1479l-23 -19q-12 -706 -168 -1454q127 13 139 14q11 0 74 5q50 4 66 4q33 394 43 655q118 -198 196 -326q99 -163 205 -321q223 -6 494 -33q-199 215 -326 358q-236 261 -326 363q-6 6 -15.5 18.5t-12.5 16.5q-13 13 -29 33q50 45 242 213l241 213l303 262l-106 -6
q-22 -2 -182 -13q-16 -13 -47.5 -40t-47.5 -40q-86 -75 -94 -82q-224 -189 -479 -417q16 138 29 291q17 269 18 290q-70 2 -194 15zM571 -92l-12 -189l-24 -59q-8 -23 -27.5 -70t-26.5 -65q-28 -66 -59 -133q20 4 33 4q25 3 82 8q14 2 32 2q55 64 101 125q4 6 41 53.5
t55 71.5l43 59q4 33 16 111q15 100 17 113q-108 -15 -191 -15h-30q-19 0 -29 2z" />
    <glyph glyph-name="kcommaaccent" unicode="&#x137;" horiz-adv-x="1476"
d="M375 1526l-23 -19q-21 -733 -172 -1501q124 13 131 14l70 7q46 4 59 4l6 65q0 19 5 64l12 174q4 56 8 172q10 -14 40.5 -57.5t47.5 -65.5q31 -44 89 -122t77 -105l90 -119q190 -6 395 -35q-27 30 -116 128.5t-140 154.5q-25 27 -120.5 127t-141.5 151l-37 37l131 148
l74 86q25 27 80 90l158 176h-58q-20 -2 -65 -2q-45 -2 -121 -2q-20 -21 -84 -89t-98 -106l-183 -196q20 175 37 403q18 227 25 401q-85 3 -176 17zM422 -92l-12 -189l-25 -59q-8 -23 -27.5 -71.5t-25.5 -63.5q-16 -38 -60 -133q20 4 33 4q25 3 82 8q14 2 33 2q44 52 100 125
q4 6 41 53.5t55 71.5l43 59q0 2 17 111q2 12 7.5 53t8.5 60q-108 -15 -190 -15h-31q-19 0 -29 2z" />
    <glyph glyph-name="Lacute" unicode="&#x139;" horiz-adv-x="1378"
d="M803 2322l-15 -6q-32 -36 -135 -162q-18 -21 -55.5 -64.5t-52.5 -61.5q-24 -27 -66.5 -75t-46.5 -52q7 1 22 2t23 2q8 0 26 1t27 1q74 4 99 4q65 60 182 186q32 36 53 57l62 64q51 51 121 117q-49 -6 -123 -6q-10 -1 -32.5 -2.5t-33.5 -2.5q-10 0 -29 -1t-26 -1z
M367 1481l-25 -19q-16 -740 -149 -1456q260 31 477 31q214 0 442 -27l12 160q4 60 17 160q-237 18 -439 18q-79 0 -239 -4q65 522 94 1118q-63 2 -190 19z" />
    <glyph glyph-name="lacute" unicode="&#x13a;" horiz-adv-x="796"
d="M694 2322l-14 -6q-32 -36 -135 -162q-19 -22 -60.5 -69.5t-48.5 -56.5q-23 -26 -62 -70.5t-50 -56.5q6 1 21.5 2t23.5 2q8 0 26 1t27 1q74 4 98 4q65 60 182 186q24 27 54 57l61 64q51 51 121 117q-50 -6 -123 -6q-10 -1 -32 -2.5t-33 -2.5q-10 0 -29 -1t-27 -1z
M379 1520l-27 -15q-61 -777 -151 -1505q106 39 172 39t155 -39q1 8 2 28t2 29q0 9 5 66q1 25 4 68.5t4 52.5q-58 18 -115 24q100 1117 111 1235q-9 0 -21 -1t-14 -1h-19q-63 0 -108 19z" />
    <glyph glyph-name="Lcommaaccent" unicode="&#x13b;" horiz-adv-x="1378"
d="M367 1481l-25 -19q-16 -740 -149 -1456q260 31 477 31q214 0 442 -27l12 160q4 60 17 160q-237 18 -439 18q-79 0 -239 -4q65 522 94 1118q-63 2 -190 19zM446 -92l-12 -189l-24 -59q-8 -23 -27.5 -70t-26.5 -65q-28 -66 -59 -133q20 4 33 4q25 3 82 8q14 2 32 2
q55 64 101 125q4 6 41 53.5t55 71.5l43 59q4 33 16 111q15 100 17 113q-108 -15 -191 -15h-30q-19 0 -29 2z" />
    <glyph glyph-name="lcommaaccent" unicode="&#x13c;" horiz-adv-x="796"
d="M379 1520l-27 -15q-61 -777 -151 -1505q106 39 172 39t155 -39q1 8 2 28t2 29q0 9 5 66q1 25 4 68.5t4 52.5q-58 18 -115 24q100 1117 111 1235q-9 0 -21 -1t-14 -1h-19q-63 0 -108 19zM133 -92l-12 -189l-25 -59q-8 -23 -27.5 -71.5t-25.5 -63.5q-28 -66 -59 -133
q20 4 32 4q25 3 82 8q14 2 33 2q44 52 100 125q14 18 47 60t50 65l43 59q4 33 16 111q2 12 7.5 53t8.5 60q-108 -15 -190 -15h-31q-18 0 -28 2z" />
    <glyph glyph-name="Lcaron" unicode="&#x13d;" horiz-adv-x="1378"
d="M952 1686l-6 -82q-1 -14 -3 -41t-3 -41l-18 -62q-8 -25 -28.5 -81t-29.5 -85q-12 -29 -32.5 -84.5t-30.5 -79.5q25 5 53 9q47 6 68 6q16 0 24 2h15h14q26 39 69 115l111 186q9 17 43 72l6 47q2 17 7.5 52t7.5 52q1 6 8 45q-91 -12 -189 -12h-34h-33zM367 1481l-25 -19
q-16 -740 -149 -1456q260 31 477 31q214 0 442 -27l12 160q4 60 17 160q-237 18 -439 18q-79 0 -239 -4q65 522 94 1118q-63 2 -190 19z" />
    <glyph glyph-name="lcaron" unicode="&#x13e;" horiz-adv-x="796"
d="M799 1735l-6 -82q-1 -14 -3.5 -41t-3.5 -41l-18 -62q-8 -25 -28 -81t-29 -85q-11 -28 -32.5 -83t-31.5 -80q8 2 53 8q46 6 68 6q17 0 25 2h14h14q32 48 70 115l110 186q9 17 43 72l7 47q2 17 7 52t7 52q1 6 8 45q-91 -12 -188 -12h-35h-33zM379 1520l-27 -15
q-61 -777 -151 -1505q106 39 172 39t155 -39q1 8 2 28t2 29q0 9 5 66q1 25 4 68.5t4 52.5q-58 18 -115 24q100 1117 111 1235q-9 0 -21 -1t-14 -1h-19q-63 0 -108 19z" />
    <glyph glyph-name="Ldot" unicode="&#x13f;" horiz-adv-x="1378"
d="M367 1481l-25 -19q-16 -740 -149 -1456q260 31 477 31q214 0 442 -27l12 160q4 60 17 160q-237 18 -439 18q-79 0 -239 -4q65 522 94 1118q-63 2 -190 19zM770 985l-20 -20q0 -106 -27 -250q83 6 119 6q42 0 112 -6q0 140 27 272q-71 -8 -121 -8q-44 0 -90 6z" />
    <glyph glyph-name="ldot" unicode="&#x140;" horiz-adv-x="796"
d="M379 1520l-27 -15q-61 -777 -151 -1505q106 39 172 39t155 -39q1 8 2 28t2 29q0 9 5 66q1 25 4 68.5t4 52.5q-58 18 -115 24q100 1117 111 1235q-9 0 -21 -1t-14 -1h-19q-63 0 -108 19zM623 973l-21 -21q0 -106 -27 -250q96 7 119 7q31 0 113 -7q0 141 27 273
q-71 -8 -121 -8q-43 0 -90 6z" />
    <glyph glyph-name="Lslash" unicode="&#x141;" horiz-adv-x="1490"
d="M440 1464l-20 -20q-9 -378 -41 -707q-55 -37 -111 -78l-112 -77l32 -56q1 -4 17 -28l20 -37q3 2 9.5 6t9.5 6q27 19 41 31q7 4 23 15.5t26 17.5q8 8 28 20q-33 -302 -67 -530q195 10 371 10q248 0 559 -29l-2 94v45v48q-271 22 -555 22h-68h-65q6 43 14 125
q16 160 22 240l13 123q38 27 75 51l74 51l238 160l-37 59l-39 61q-15 -12 -35 -22q-14 -11 -41 -27q-14 -12 -39 -26q-14 -12 -37 -27l-145 -94q19 203 41 565q-159 5 -199 8z" />
    <glyph glyph-name="lslash" unicode="&#x142;" horiz-adv-x="827"
d="M444 1503l-20 -18q-27 -375 -53 -666l-43 -31l-74 -51q-12 -7 -78 -55l29 -47q32 -58 39 -72q10 7 55 39q27 21 57 41q-15 -196 -26 -303l-17 -152q-2 -26 -7 -77t-7 -76q58 4 107 4q42 0 92 -4q21 363 57 745q125 85 201 142l-29 43q-29 44 -41 71l-96 -69l-19 -13
l13 140q14 164 26 272q6 71 15 139q-27 -4 -103 -4h-39q-25 0 -39 2z" />
    <glyph glyph-name="Nacute" unicode="&#x143;" horiz-adv-x="1579"
d="M1022 2322l-14 -6q-45 -50 -136 -162q-18 -21 -55.5 -64.5t-52.5 -61.5q-24 -27 -66.5 -75t-46.5 -52q7 1 22 2t23 2q8 0 26.5 1t27.5 1q74 4 98 4q65 60 182 186q32 36 53 57l62 64q51 51 121 117q-49 -6 -123 -6q-10 -1 -32.5 -2.5t-33.5 -2.5q-11 0 -29 -1t-26 -1z
M358 1450l-22 -18q-18 -711 -168 -1426q2 0 54.5 6t80.5 8q15 0 72 5q46 4 63 4q56 606 62 1163q49 -108 104 -242q17 -42 52 -123t51 -120q184 -432 307 -674q24 -2 75.5 -5t73.5 -5q31 -2 84.5 -8t65.5 -7l-2 135q0 631 131 1344q-13 0 -45 -4l-56 -6q-36 -4 -55 -4
q-45 -5 -47 -5q-103 -538 -145 -1122q-23 47 -54 115q-24 49 -92 203q-8 19 -26 57.5t-25 54.5q-186 430 -303 656q-15 0 -25 2h-24q-122 8 -187 16z" />
    <glyph glyph-name="nacute" unicode="&#x144;" horiz-adv-x="1406"
d="M893 1976l-14 -6q-45 -50 -136 -162q-18 -20 -54.5 -63.5t-53.5 -63.5q-24 -27 -66.5 -75t-46.5 -52l45 5q8 0 26.5 1t27.5 1q74 4 98 4q65 60 182 186q32 36 53 57l62 64q51 51 121 117q-58 -7 -123 -7q-11 -1 -33.5 -2t-32.5 -2q-10 0 -29 -1t-26 -1zM1139 670
q0 12 1 36t1 37q0 135 -45 238q-40 73 -113 104t-154 31q-183 0 -368 -129v10q0 4 2 4v5v10l2 88q-6 1 -22 2t-23 2q-8 0 -25.5 1t-25.5 1q-12 1 -48.5 4.5t-50.5 5.5q-9 -583 -129 -1114l64 6q24 2 71 5.5t70 5.5q24 0 64 4q31 308 43 610v-2q11 151 88 237q43 46 112 66
q57 16 129 16q45 0 80 -14q43 -19 64 -57v2q20 -49 20 -123q0 -45 -4 -68v-10v-8q-57 -366 -76 -649q75 -4 138 -9q20 -2 67.5 -5t69.5 -5q-17 192 -17 314q0 129 15 348z" />
    <glyph glyph-name="Ncommaaccent" unicode="&#x145;" horiz-adv-x="1579"
d="M358 1450l-22 -18q-18 -711 -168 -1426q2 0 54.5 6t80.5 8q15 0 72 5q46 4 63 4q56 606 62 1163q49 -108 104 -242q17 -42 52 -123t51 -120q184 -432 307 -674q24 -2 75.5 -5t73.5 -5q31 -2 84.5 -8t65.5 -7l-2 135q0 631 131 1344q-13 0 -45 -4l-56 -6q-36 -4 -55 -4
q-45 -5 -47 -5q-103 -538 -145 -1122q-23 47 -54 115q-24 49 -92 203q-8 19 -26 57.5t-25 54.5q-186 430 -303 656q-15 0 -25 2h-24q-122 8 -187 16zM608 -92l-12 -189l-25 -59q-8 -23 -27.5 -71.5t-25.5 -63.5q-28 -66 -59 -133q20 4 33 4q26 4 81 8q14 2 33 2
q55 64 101 125q4 6 41 53.5t55 71.5l43 59q4 33 16 111q15 100 17 113q-108 -15 -191 -15h-31q-18 0 -28 2z" />
    <glyph glyph-name="ncommaaccent" unicode="&#x146;" horiz-adv-x="1406"
d="M1139 670q0 12 1 36t1 37q0 135 -45 238q-40 73 -113 104t-154 31q-183 0 -368 -129v10q0 4 2 4v5v10l2 88q-6 1 -22 2t-23 2q-8 0 -25.5 1t-25.5 1q-12 1 -48.5 4.5t-50.5 5.5q-9 -583 -129 -1114l64 6q24 2 71 5.5t70 5.5q24 0 64 4q31 308 43 610v-2q11 151 88 237
q43 46 112 66q57 16 129 16q45 0 80 -14q43 -19 64 -57v2q20 -49 20 -123q0 -45 -4 -68v-10v-8q-57 -366 -76 -649q75 -4 138 -9q20 -2 67.5 -5t69.5 -5q-17 192 -17 314q0 129 15 348zM479 -92l-12 -189l-25 -59q-8 -23 -27.5 -71.5t-25.5 -63.5q-28 -66 -59 -133
q20 4 32 4q25 3 82 8q14 2 33 2q55 64 101 125q4 6 41 53.5t55 71.5l43 59q4 33 16 111q15 100 17 113q-108 -15 -191 -15h-31q-18 0 -28 2z" />
    <glyph glyph-name="Ncaron" unicode="&#x147;" horiz-adv-x="1579"
d="M862 1591l37 56q4 6 28 39.5t32.5 45t31 42t37.5 49t37.5 46t45 52.5t46.5 51l-108 -4h2l-66 -2q-69 -71 -154 -178l-36 -47l-2 2q-98 154 -150 223h-35q-16 2 -45 2q-46 0 -82 4q89 -123 176 -293l48 -88h157zM358 1450l-22 -18q-18 -711 -168 -1426q2 0 54.5 6t80.5 8
q15 0 72 5q46 4 63 4q56 606 62 1163q49 -108 104 -242q17 -42 52 -123t51 -120q184 -432 307 -674q24 -2 75.5 -5t73.5 -5q31 -2 84.5 -8t65.5 -7l-2 135q0 631 131 1344q-13 0 -45 -4l-56 -6q-36 -4 -55 -4q-45 -5 -47 -5q-103 -538 -145 -1122q-23 47 -54 115
q-24 49 -92 203q-8 19 -26 57.5t-25 54.5q-186 430 -303 656q-15 0 -25 2h-24q-122 8 -187 16z" />
    <glyph glyph-name="ncaron" unicode="&#x148;" horiz-adv-x="1406"
d="M733 1245l37 55q4 5 33 46t38.5 54t37 49.5t46.5 59t47 55t56 62.5l-108 -4h2l-66 -2q-69 -71 -154 -178l-36 -47l-2 2q-98 154 -150 223h-35q-16 2 -45 2q-46 0 -82 4q89 -123 176 -293l47 -88h158zM1139 670q0 12 1 36t1 37q0 135 -45 238q-40 73 -113 104t-154 31
q-183 0 -368 -129v10q0 4 2 4v5v10l2 88q-6 1 -22 2t-23 2q-8 0 -25.5 1t-25.5 1q-12 1 -48.5 4.5t-50.5 5.5q-9 -583 -129 -1114l64 6q24 2 71 5.5t70 5.5q24 0 64 4q31 308 43 610v-2q11 151 88 237q43 46 112 66q57 16 129 16q45 0 80 -14q43 -19 64 -57v2
q20 -49 20 -123q0 -45 -4 -68v-10v-8q-57 -366 -76 -649q75 -4 138 -9q20 -2 67.5 -5t69.5 -5q-17 192 -17 314q0 129 15 348z" />
    <glyph glyph-name="Eng" unicode="&#x14a;" horiz-adv-x="1579"
d="M1311 143l2 -135h-4q0 -100 -69.5 -171t-182.5 -113q-31 -12 -123 -31l-29 -6q-38 -9 -67 -17q-4 -1 -20 -6t-25 -8l16 115q4 33 25 180l59 10q36 7 61.5 23.5t59.5 48.5q-123 242 -307 674q-16 39 -51 120t-52 123q-55 134 -104 242q-6 -557 -62 -1163q-17 0 -63 -4
q-57 -5 -72 -5q-28 -2 -80.5 -8t-54.5 -6q150 715 168 1426l22 18q65 -8 187 -16h24q10 -2 25 -2q117 -226 303 -656q7 -16 25 -54.5t26 -57.5q68 -154 92 -203q31 -68 54 -115q42 584 145 1122q2 0 47 5q19 0 55 4l56 6q32 4 45 4q-131 -713 -131 -1344z" />
    <glyph glyph-name="eng" unicode="&#x14b;" horiz-adv-x="1406"
d="M1139 27q4 -32 4 -56q0 -180 -248 -274q-45 -15 -125 -31l-29 -6q-28 -3 -65 -14q-7 -2 -47 -17l16 115q21 147 25 180l59 13q12 2 21.5 4t19.5 7.5t15.5 8t16 11t13.5 10.5t15.5 14t15.5 14l22 21h-2q19 283 76 649v8v10q4 23 4 68q0 74 -20 123v-2q-21 38 -64 57
q-35 14 -80 14q-72 0 -129 -16q-69 -20 -112 -66q-77 -86 -88 -237v2q-12 -302 -43 -610q-40 -4 -64 -4q-23 -2 -70 -5.5t-71 -5.5l-64 -6q120 531 129 1114q14 -2 50.5 -5.5t48.5 -4.5q8 0 25.5 -1t25.5 -1q7 -1 23 -2t22 -2l-2 -88v-10v-5q-2 0 -2 -4v-10q185 129 368 129
q81 0 154 -31t113 -104q45 -103 45 -238q0 -13 -1 -37t-1 -36q-15 -219 -15 -348q0 -100 15 -295z" />
    <glyph glyph-name="Omacron" unicode="&#x14c;"
d="M627 1862l-19 -29q10 -17 10 -43q0 -34 -43 -92q49 0 78 2h168h76h76h166q27 -2 75 -2q-30 43 -30 69q0 34 45 95q-23 0 -78 -1t-84 -1h-84q-27 -2 -76 -2q-96 0 -280 4zM909 1481q-149 0 -268 -43q-138 -47 -233 -150h2q-118 -123 -170 -323q-41 -155 -41 -347
q0 -117 26 -221q30 -121 90 -194q71 -98 201 -148q116 -45 252 -45q150 0 274 41q140 46 238 150q112 128 166 321q45 160 45 348q0 122 -25 222q-30 115 -92 194q-69 98 -207 150q-116 45 -258 45zM897 1305q93 0 173 -37t128 -107q76 -123 76 -317q0 -114 -23 -203
q-35 -128 -116 -180q-130 -72 -324 -72q-88 0 -162 14q-90 18 -147 56q-50 28 -70 94q-16 49 -16 123q0 129 33 250q38 140 114 231q54 70 152 113q80 35 182 35z" />
    <glyph glyph-name="omacron" unicode="&#x14d;" horiz-adv-x="1267"
d="M408 1516l-19 -29q10 -17 10 -43q0 -34 -43 -92q49 0 78 2h168h76h76h166q27 -2 75 -2q-30 43 -30 69q0 34 45 95q-24 0 -78 -1.5t-84 -1.5h-84q-27 -2 -76 -2q-50 0 -280 5zM684 1114q-107 0 -199 -35q-110 -40 -176 -106q-84 -99 -123 -252q-30 -120 -30 -266
q0 -198 84 -310q51 -76 151 -110q88 -33 193 -33t200 33q110 37 177 110q83 98 122 254q31 114 31 267q0 190 -82 305q-60 80 -153 112q-82 31 -195 31zM674 967q62 0 115 -25.5t81 -73.5q50 -82 50 -215q0 -80 -15 -149q-21 -97 -82 -139h2q-82 -48 -213 -48
q-134 0 -204 45h2q-54 42 -54 150q0 104 21 184q23 100 78 172q38 49 96.5 74t122.5 25z" />
    <glyph glyph-name="Ohungarumlaut" unicode="&#x150;"
d="M834 1591l84 131l36 58.5t41 66t35.5 53.5t42.5 58l17 8q73 0 110 2q17 0 27 2h59q-60 -62 -119 -136t-88.5 -116t-89.5 -129l-49 2h-106zM641 1587h-45q-66 -4 -82 -4q128 156 229 371l19 10h41h49h49h41q-39 -56 -47 -70q-15 -18 -27 -36q-5 -8 -12 -19.5t-8 -13.5
q-109 -163 -170 -236q-23 0 -37 -2zM1466 1092q25 -100 25 -222q0 -188 -45 -348q-54 -193 -166 -321q-98 -104 -238 -150q-124 -41 -274 -41q-136 0 -252 45q-130 50 -201 148q-60 73 -90 194q-26 104 -26 221q0 192 41 347q52 200 170 323h-2q95 103 233 150
q119 43 268 43q142 0 258 -45q138 -52 207 -150q62 -79 92 -194zM1251 641q23 89 23 203q0 194 -76 317q-48 70 -128 107t-173 37q-102 0 -182 -35q-98 -43 -152 -113q-76 -91 -114 -231q-33 -121 -33 -250q0 -74 16 -123q20 -66 70 -94q57 -38 147 -56q74 -14 162 -14
q194 0 324 72q81 52 116 180z" />
    <glyph glyph-name="ohungarumlaut" unicode="&#x151;" horiz-adv-x="1267"
d="M614 1245l84 131q113 182 156 236l16 8q74 0 111 2q17 0 27 2h59q-60 -62 -119 -136t-88.5 -116t-89.5 -129l-49 2h-107zM422 1241h-45q-66 -4 -82 -4q128 156 229 371l19 10h41h49h49h41q-39 -56 -47 -70q-12 -14 -27 -37q-5 -8 -11.5 -18.5t-8.5 -13.5
q-109 -163 -170 -236q-23 0 -37 -2zM1032 971q82 -115 82 -305q0 -153 -31 -267q-39 -156 -122 -254q-67 -73 -177 -110q-95 -33 -200 -33t-193 33q-100 34 -151 110q-84 112 -84 310q0 146 30 266q39 153 123 252q66 66 176 106q92 35 199 35q113 0 195 -31
q93 -32 153 -112zM905 504q15 69 15 149q0 133 -50 215q-28 48 -81 73.5t-115 25.5q-64 0 -122.5 -25t-96.5 -74q-55 -72 -78 -172q-21 -80 -21 -184q0 -108 54 -150h-2q70 -45 204 -45q131 0 213 48h-2q61 42 82 139z" />
    <glyph glyph-name="OE" unicode="&#x152;" horiz-adv-x="2263"
d="M2101 1458l-18 25q-467 -29 -950 -29q-245 0 -363 -22q-209 -42 -352 -158q-121 -108 -178 -305q-41 -152 -41 -336q0 -135 30 -234q37 -120 119 -202q115 -98 285 -131q129 -29 317 -29q615 0 1049 -29q-15 119 -23 293q-166 9 -704 18l6 115q6 111 18 219q1 16 11 115
l665 2q0 11 4 43l6 49q1 8 2 16.5t2.5 18.5t2.5 14q0 17 4 41q-212 -4 -334 -4q-115 0 -172 -2h-164q4 60 8 94q2 27 10 90q9 88 21 183q419 7 711 24l6 23q6 24 8 39q2 10 14 59zM1036 1313h113q-22 -237 -23 -250q-17 -175 -22 -248q-2 -29 -19 -213t-24 -283h-113
q-124 0 -227 25q-124 29 -197 102q-110 110 -110 263q0 6 1 18t1 18q16 152 45 236q43 130 121 203q84 68 219 102q117 27 235 27z" />
    <glyph glyph-name="oe" unicode="&#x153;" horiz-adv-x="2091"
d="M1876 887q25 -66 25 -115v-12v-15v-2q-1 -3 -2.5 -9t-2.5 -9q0 -12 -2 -18l-6 -56q-512 -4 -766 -4v-22q0 -7 -1 -26t-1 -30v-32q0 -73 15 -138q15 -69 55 -114q93 -66 266 -66q188 0 371 98v-53q0 -81 10 -194q-187 -72 -371 -72q-161 0 -268 43q-134 51 -209 158
q-78 -99 -203 -152q-116 -49 -243 -49q-105 0 -178 33q-94 38 -136 112q-69 102 -69 291q0 158 22 275q34 161 117 268q62 74 158 110q77 31 184 31q132 0 233 -49q117 -55 173 -154q85 98 219 154q115 49 256 49q101 0 172 -31q80 -31 129 -104q47 -81 53 -96zM1145 791
q309 0 467 4h104q0 21 -16 67q-2 7 -33 62q-29 35 -74.5 55t-93.5 20q-150 0 -250 -84q-80 -69 -104 -124zM899 502q25 83 25 160q0 125 -58 219q-79 98 -207 98h-10q-131 0 -200 -92q-52 -69 -72 -164q-17 -86 -17 -174q0 -119 48 -203q27 -43 75 -66.5t105 -23.5
q148 0 233 98q53 65 78 148z" />
    <glyph glyph-name="Racute" unicode="&#x154;" horiz-adv-x="1648"
d="M707 1907q-9 0 -27.5 -1t-26.5 -1q-8 -1 -23.5 -2t-21.5 -2q4 4 46.5 52t66.5 75q15 18 52.5 61.5t55.5 64.5q91 112 136 162l14 6q7 0 26 1t29 1q11 1 33.5 2.5t32.5 2.5q74 0 123 6q-70 -66 -121 -117l-62 -64q-21 -21 -53 -57q-117 -126 -182 -186q-24 0 -98 -4z
M1284 215q17 -35 49.5 -106t48.5 -103q-1 0 -59 6t-90 8q-136 10 -152 11q-61 165 -127 372v-2q-19 45 -31 70t-34 59t-47 56v-2q-61 43 -164 43h-64h-63q-32 -316 -74 -598q-16 -1 -37 -2.5t-48.5 -4.5t-43.5 -4q-94 -8 -131 -12q131 710 131 1397v84q226 -28 453 -31
q188 -8 291 -67q72 -50 104 -127q31 -66 31 -154q0 -128 -51 -236q-63 -129 -177 -172q60 -33 109 -106q12 -19 23.5 -41t25.5 -51t21 -43l12 -31q43 -106 94 -213zM664 840h110q99 0 187 57q100 65 108 147q0 7 2 11v8q0 7 1 21.5t1 21.5q0 121 -65 168q-80 58 -195 61
q-78 0 -117 2q-36 0 -118 4q-1 -45 -11 -249q-3 -69 -16 -250q37 -2 113 -2z" />
    <glyph glyph-name="racute" unicode="&#x155;" horiz-adv-x="903"
d="M606 1976l-14 -6q-32 -36 -135 -162q-19 -21 -56.5 -65.5t-52.5 -61.5q-23 -26 -62 -70.5t-50 -56.5q5 1 12 1.5t17 1.5t16 2q8 0 26 1t27 1q74 4 98 4q65 60 182 186q24 27 54 57l61 64q51 51 121 117q-58 -7 -123 -7q-11 -1 -33 -2t-32 -2q-10 0 -29 -1t-27 -1z
M807 911l27 17q1 15 5.5 46.5l6.5 45.5q4 20 14 90h-51q-72 0 -135 -16q-75 -15 -135 -52l-45 -26q-30 -15 -60 -33l6 100h-22q-10 2 -23 2q-50 3 -131 11q-44 -589 -147 -1090q158 21 252 23q5 56 32 528q15 168 82 260q44 62 123 84q62 21 146 21q33 0 55 -11z" />
    <glyph glyph-name="Rcommaaccent" unicode="&#x156;" horiz-adv-x="1648"
d="M1284 215q17 -35 49.5 -106t48.5 -103q-1 0 -59 6t-90 8q-136 10 -152 11q-61 165 -127 372v-2q-19 45 -31 70t-34 59t-47 56v-2q-61 43 -164 43h-64h-63q-32 -316 -74 -598q-16 -1 -37 -2.5t-48.5 -4.5t-43.5 -4q-94 -8 -131 -12q131 710 131 1397v84q226 -28 453 -31
q188 -8 291 -67q72 -50 104 -127q31 -66 31 -154q0 -128 -51 -236q-63 -129 -177 -172q60 -33 109 -106q12 -19 23.5 -41t25.5 -51t21 -43l12 -31q43 -106 94 -213zM664 840h110q99 0 187 57q100 65 108 147q0 7 2 11v8q0 7 1 21.5t1 21.5q0 121 -65 168q-80 58 -195 61
q-78 0 -117 2q-36 0 -118 4q-1 -45 -11 -249q-3 -69 -16 -250q37 -2 113 -2zM614 -76h31q83 0 191 15q-2 -13 -17 -113q-12 -78 -16 -111l-43 -59q-18 -24 -55 -71.5t-41 -53.5q-47 -61 -101 -125q-19 0 -33 -2q-55 -4 -81 -8q-13 0 -33 -4q31 67 59 133q6 15 25.5 63.5
t27.5 71.5l25 59l12 189l21 18q10 -2 28 -2z" />
    <glyph glyph-name="rcommaaccent" unicode="&#x157;" horiz-adv-x="903"
d="M807 911l27 17q1 15 5.5 46.5l6.5 45.5q4 20 14 90h-51q-72 0 -135 -16q-75 -15 -135 -52l-45 -26q-30 -15 -60 -33l6 100h-22q-10 2 -23 2q-50 3 -131 11q-44 -589 -147 -1090q158 21 252 23q5 56 32 528q15 168 82 260q44 62 123 84q62 21 146 21q33 0 55 -11zM193 -92
l-13 -189l-24 -59q-8 -23 -27.5 -70t-26.5 -65q-28 -66 -59 -133q20 4 33 4q25 3 82 8q14 2 32 2q55 64 101 125q4 6 41 53.5t55 71.5l43 59q4 33 16 111q15 100 17 113q-108 -15 -191 -15h-30q-19 0 -29 2z" />
    <glyph glyph-name="Rcaron" unicode="&#x158;" horiz-adv-x="1648"
d="M662 1591l-48 88q-87 170 -176 293q36 -4 82 -4q29 0 45 -2h35q52 -69 150 -223l2 -2l36 47q85 107 154 178l66 2h-2l108 4q-24 -26 -46.5 -51t-45 -52.5t-37.5 -46t-37.5 -49t-31 -42t-32.5 -45t-28 -39.5l-37 -56h-157zM1284 215q17 -35 49.5 -106t48.5 -103
q-1 0 -59 6t-90 8q-136 10 -152 11q-61 165 -127 372v-2q-19 45 -31 70t-34 59t-47 56v-2q-61 43 -164 43h-64h-63q-32 -316 -74 -598q-16 -1 -37 -2.5t-48.5 -4.5t-43.5 -4q-94 -8 -131 -12q131 710 131 1397v84q226 -28 453 -31q188 -8 291 -67q72 -50 104 -127
q31 -66 31 -154q0 -128 -51 -236q-63 -129 -177 -172q60 -33 109 -106q12 -19 23.5 -41t25.5 -51t21 -43l12 -31q43 -106 94 -213zM664 840h110q99 0 187 57q100 65 108 147q0 7 2 11v8q0 7 1 21.5t1 21.5q0 121 -65 168q-80 58 -195 61q-78 0 -117 2q-36 0 -118 4
q-1 -45 -11 -249q-3 -69 -16 -250q37 -2 113 -2z" />
    <glyph glyph-name="rcaron" unicode="&#x159;" horiz-adv-x="903"
d="M446 1245l37 55q4 5 33 46t38.5 54t37 49.5t46.5 59t47 55t56 62.5l-108 -4h2l-66 -2q-63 -65 -153 -178l-37 -47l-2 2q-98 154 -150 223h-34q-16 2 -46 2q-45 0 -81 4q89 -123 176 -293l47 -88h157zM807 911l27 17q1 15 5.5 46.5l6.5 45.5q4 20 14 90h-51
q-72 0 -135 -16q-75 -15 -135 -52l-45 -26q-30 -15 -60 -33l6 100h-22q-10 2 -23 2q-50 3 -131 11q-44 -589 -147 -1090q158 21 252 23q5 56 32 528q15 168 82 260q44 62 123 84q62 21 146 21q33 0 55 -11z" />
    <glyph glyph-name="Sacute" unicode="&#x15a;" horiz-adv-x="1388"
d="M1079 2361l-14 -6q-32 -36 -135 -162q-19 -21 -56.5 -65.5t-52.5 -61.5q-23 -26 -62 -70.5t-50 -56.5q5 1 12 1.5t17 1.5t16 2q8 0 26 1t27 1q74 4 98 4q65 60 182 186q24 27 54 57l61 64q51 51 121 117q-58 -7 -123 -7q-11 -1 -33 -2t-32 -2q-11 0 -30 -1t-26 -1z
M1208 1415l6 12q-208 54 -415 54q-114 0 -197 -21q-110 -23 -186 -78q-77 -55 -115 -145q-33 -82 -33 -178q0 -154 78 -244q51 -51 137 -90q69 -28 158 -45l33 -8q125 -23 200 -58q117 -58 117 -145q0 -35 -30 -68q-24 -30 -62 -53q-96 -61 -248 -61q-224 0 -434 121
q-2 -18 -22 -164q-4 -28 -13 -84t-12 -82q220 -68 459 -68q117 0 217 19q122 24 213 82q79 59 117 159q28 85 28 191q0 96 -35 170q-37 82 -110 135q-99 66 -287 100l-57 13q-80 19 -105 28q-50 14 -94 47q-41 44 -41 117q0 119 100 184h-2q97 50 234 50q176 0 389 -91
q2 20 10 70l6 39q0 8 5 33l8 57z" />
    <glyph glyph-name="sacute" unicode="&#x15b;" horiz-adv-x="1165"
d="M944 1976l-14 -6q-32 -36 -135 -162q-19 -21 -56.5 -65.5t-52.5 -61.5q-24 -27 -66.5 -75t-46.5 -52q5 1 12 1.5t17 1.5t16 2q8 0 26.5 1t27.5 1q74 4 98 4q65 60 182 186q24 27 54 57l61 64q51 51 121 117q-58 -7 -123 -7q-11 -1 -33.5 -2t-32.5 -2q-11 0 -29 -1t-26 -1
zM989 1067l-12 4q-127 43 -338 43q-150 0 -268 -47q-80 -34 -125 -115q-37 -70 -37 -164q0 -122 57 -176q34 -34 105 -61q47 -19 116 -37l37 -8q46 -9 99 -25q61 -18 92 -41q29 -34 39 -73q11 -57 -74 -101q-59 -26 -131 -26h-12q-9 0 -13 2h-22q-172 0 -342 92
q-2 -22 -9 -70t-10 -71q-3 -17 -10 -68t-12 -74q194 -49 364 -49q108 0 179 14q97 16 169 64q69 42 101 115q29 65 29 147q0 119 -66 182q-43 40 -115 72q-60 20 -133 39l-18 4q-107 20 -158 45q-90 44 -90 117q0 89 86 133q66 35 166 35q177 0 328 -68q1 3 2 12t2 13
q4 16 4 26q1 7 4.5 26.5t5.5 27.5z" />
    <glyph glyph-name="Scedilla" unicode="&#x15e;" horiz-adv-x="1388"
d="M1225 1413l-8 -57q-5 -25 -5 -33l-6 -39q-8 -50 -10 -70q-213 91 -389 91q-137 0 -234 -50h2q-100 -65 -100 -184q0 -73 41 -117q44 -33 94 -47q25 -9 105 -28l57 -13q188 -34 287 -100q73 -53 110 -135q35 -74 35 -170q0 -106 -28 -191q-38 -100 -117 -159
q-91 -58 -213 -82q-108 -19 -201 -19q17 -49 17 -90q0 -44 -21 -90q-24 -49 -63 -68q-68 -30 -175 -30q-77 0 -165 18q11 55 18 103l6 47q62 -33 133 -33h15h10q40 0 65 22q31 24 31 60q0 33 -14 65q-167 12 -332 64q3 26 12 82t13 84q20 146 22 164q210 -121 434 -121
q152 0 248 61q38 23 62 53q30 33 30 68q0 87 -117 145q-75 35 -200 58l-33 8q-89 17 -158 45q-86 39 -137 90q-78 90 -78 244q0 96 33 178q38 90 115 145q76 55 186 78q83 21 197 21q207 0 415 -54l-6 -12z" />
    <glyph glyph-name="scedilla" unicode="&#x15f;" horiz-adv-x="1165"
d="M985 1059l-6 -53q-2 -8 -5.5 -27.5t-4.5 -26.5q0 -10 -4 -26q-1 -4 -2 -13t-2 -12q-151 68 -328 68q-100 0 -166 -35q-86 -44 -86 -133q0 -73 90 -117q51 -25 158 -45l18 -4q73 -19 133 -39q72 -32 115 -72q66 -63 66 -182q0 -82 -29 -147q-32 -73 -101 -115
q-72 -48 -169 -64q-26 -6 -82 -10q16 -43 16 -86q0 -44 -21 -90q-24 -49 -63 -68q-68 -30 -174 -30q-76 0 -168 18q8 28 18 103l9 47q62 -33 133 -33h12h10q40 0 68 22q31 24 31 60q0 20 -11 53q-146 6 -321 49q5 23 12 74t10 68q3 23 10 71t9 70q170 -92 342 -92h22
q4 -2 13 -2h12q72 0 131 26q69 35 74 101q-2 2 -3.5 4.5t-2.5 3.5q-9 15 -19 35q-6 15 -18 30q-34 25 -88 41q-53 16 -99 25l-37 8q-69 18 -116 37q-71 27 -105 61q-57 54 -57 176q0 94 37 164q45 81 125 115q118 47 268 47q211 0 338 -43l-16 -16z" />
    <glyph glyph-name="Scaron" unicode="&#x160;" horiz-adv-x="1388"
d="M920 1630l36 56q4 6 28 39.5t32.5 45t31 42t37.5 49t37.5 46t45 52.5t46.5 51l-108 -4h2l-66 -2q-63 -65 -153 -178l-37 -47l-2 2q-98 154 -150 223h-34q-16 2 -45 2q-46 0 -82 4q89 -123 176 -293l47 -88h158zM1208 1415l6 12q-208 54 -415 54q-114 0 -197 -21
q-110 -23 -186 -78q-77 -55 -115 -145q-33 -82 -33 -178q0 -154 78 -244q51 -51 137 -90q69 -28 158 -45l33 -8q125 -23 200 -58q117 -58 117 -145q0 -35 -30 -68q-24 -30 -62 -53q-96 -61 -248 -61q-224 0 -434 121q-2 -18 -22 -164q-4 -28 -13 -84t-12 -82
q220 -68 459 -68q117 0 217 19q122 24 213 82q79 59 117 159q28 85 28 191q0 96 -35 170q-37 82 -110 135q-99 66 -287 100l-57 13q-80 19 -105 28q-50 14 -94 47q-41 44 -41 117q0 119 100 184h-2q97 50 234 50q176 0 389 -91q2 20 10 70l6 39q0 8 5 33l8 57z" />
    <glyph glyph-name="scaron" unicode="&#x161;" horiz-adv-x="1165"
d="M784 1245l37 55q4 5 33 46t38.5 54t37 49.5t46.5 59t47 55t56 62.5l-108 -4h2l-66 -2q-63 -65 -153 -178l-37 -47l-2 2q-98 154 -150 223h-35q-16 2 -45 2q-46 0 -82 4q92 -127 177 -293l47 -88h157zM989 1067l-12 4q-127 43 -338 43q-150 0 -268 -47q-80 -34 -125 -115
q-37 -70 -37 -164q0 -122 57 -176q34 -34 105 -61q47 -19 116 -37l37 -8q46 -9 99 -25q61 -18 92 -41q29 -34 39 -73q11 -57 -74 -101q-59 -26 -131 -26h-12q-9 0 -13 2h-22q-172 0 -342 92q-2 -22 -9 -70t-10 -71q-3 -17 -10 -68t-12 -74q194 -49 364 -49q108 0 179 14
q97 16 169 64q69 42 101 115q29 65 29 147q0 119 -66 182q-43 40 -115 72q-60 20 -133 39l-18 4q-107 20 -158 45q-90 44 -90 117q0 89 86 133q66 35 166 35q177 0 328 -68q1 3 2 12t2 13q4 16 4 26q1 7 4.5 26.5t5.5 27.5z" />
    <glyph glyph-name="Tcedilla" unicode="&#x162;" horiz-adv-x="1554"
d="M952 1454q325 0 645 33l-10 -68q-6 -23 -12 -59q-5 -29 -12 -62q-200 -8 -320 -8q-117 0 -180 2q-56 -733 -68 -1235l9 -4q75 -110 75 -196q0 -47 -20 -88q-23 -50 -64 -70q-68 -31 -174 -31q-73 0 -166 19q15 72 19 102l6 47q62 -33 133 -33h14h11q39 0 65 23
q31 24 31 59q0 38 -23 86q-15 29 -37 66h-8h-73h-23h-25h-26h-23q98 747 152 1255h-49q-37 -2 -109 -2h-49q-172 0 -295 8l-2 166l23 21q299 -31 585 -31z" />
    <glyph glyph-name="tcedilla" unicode="&#x163;" horiz-adv-x="1122"
d="M682 307q161 -12 182 -14q0 -11 -1 -33.5t-1 -36.5q-2 -25 -2 -73q-4 -102 -4 -144l-82 12q-6 0 -18.5 1t-18.5 1l11 -4q75 -110 75 -196q0 -47 -20 -88q-23 -50 -64 -70q-68 -31 -174 -31q-73 0 -166 19q15 72 19 102l6 47q60 -32 133 -32h14h11q40 0 65 22q31 24 31 59
q0 38 -23 86q-1 1 -49 89h29q47 0 67 2h13q-8 2 -25 2l-26 4l-33 2q-93 9 -133 18q-72 17 -119 55q-62 62 -62 189q0 17 5 90q12 94 16 141l31 277l12 141q-67 3 -121 10q0 27 2 45q0 10 1 25t1 20v-2l4 70l45 -6q32 -4 39 -4q20 -4 39 -4q6 66 15 133l12 129q96 -8 184 -8
l21 -23q-6 -30 -9 -65q-1 -13 -4 -36t-4 -34v2l-12 -104h16q31 0 113 4q39 0 57 2q9 0 27.5 1t26.5 1l-7 -70q-2 -24 -12 -86q-189 -6 -213 -6h-22q-2 -20 -7.5 -66t-7.5 -69q-3 -25 -8 -76.5t-8 -77.5q-2 -25 -17 -153v-11v-10q-2 -16 -2 -45q0 -61 21 -90q14 -14 38.5 -21
t42 -9t50.5 -3z" />
    <glyph glyph-name="Tcaron" unicode="&#x164;" horiz-adv-x="1554"
d="M1075 1591l37 56q4 6 28 39.5t32.5 45t31 42t37.5 49t37.5 46t45 52.5t46.5 51l-108 -4h2l-66 -2q-69 -71 -154 -178l-36 -47l-2 2q-98 154 -150 223h-35q-16 2 -45 2q-46 0 -82 4q89 -123 176 -293l48 -88h157zM344 1464l2 -166q123 -8 295 -8h49q72 0 109 2h49
q-54 -508 -152 -1255h23h26h25h23h73q92 0 129 -2q9 464 68 1257q63 -2 180 -2q120 0 320 8q7 33 12 62q6 36 12 59l10 68q-320 -33 -645 -33q-286 0 -585 31z" />
    <glyph glyph-name="tcaron" unicode="&#x165;" horiz-adv-x="1122"
d="M1077 1712q98 0 189 12q-4 -27 -9 -45q-2 -18 -7 -52.5t-7 -51.5l-6 -47q-33 -55 -43 -72l-111 -186q-43 -76 -69 -115h-15h-14q-8 -2 -24 -2q-21 0 -68 -6q-45 -7 -53 -8q10 24 30.5 79.5t32.5 84.5q9 29 29.5 84.5t28.5 80.5l18 62l6 82q1 13 3 41t3 41l19 18h32h35z
M551 340q14 -14 38.5 -21t42 -9t50.5 -3q161 -12 182 -14q0 -11 -1 -33.5t-1 -36.5q-2 -25 -2 -73q-4 -102 -4 -144l-82 12q-5 0 -45 5q-28 4 -39 4l-26 4l-33 2q-93 9 -133 18q-72 17 -119 55q-62 62 -62 189q0 17 5 90q12 94 16 141l31 277l12 141q-67 3 -121 10
q0 27 2 45q0 10 1 25t1 20v-2l4 70l45 -6q32 -4 39 -4q20 -4 39 -4q6 66 15 133l12 129q96 -8 184 -8l21 -23q-6 -30 -9 -65q-1 -13 -4 -36t-4 -34v2l-12 -104h16q31 0 113 4q39 0 57 2q9 0 27.5 1t26.5 1l-7 -70q-2 -24 -12 -86q-189 -6 -213 -6h-22q-2 -20 -7.5 -66
t-7.5 -69q-3 -25 -8 -76.5t-8 -77.5q-2 -25 -17 -153v-11v-10q-2 -16 -2 -45q0 -61 21 -90z" />
    <glyph glyph-name="Tbar" unicode="&#x166;" horiz-adv-x="1554"
d="M713 1862l-19 -29q11 -19 11 -43q0 -34 -43 -92q48 0 77 2h168h76h76h166q27 -2 75 -2q-30 43 -30 69q0 34 45 95q-23 0 -78 -1t-84 -1h-84q-27 -2 -76 -2q-96 0 -280 4zM344 1464l2 -166q123 -8 295 -8h49q72 0 109 2h49q-54 -508 -152 -1255h23h26h25h23h73
q92 0 129 -2q9 464 68 1257q63 -2 180 -2q120 0 320 8q7 33 12 62q6 36 12 59l10 68q-320 -33 -645 -33q-286 0 -585 31z" />
    <glyph glyph-name="tbar" unicode="&#x167;" horiz-adv-x="1122"
d="M883 1714q-45 -61 -45 -94q0 -27 30 -70q-48 0 -75 2h-166h-76h-76h-168q-29 -2 -78 -2q43 58 43 92q0 26 -10 44l19 28q184 -4 280 -4q49 0 76 2h84q29 0 84 1t78 1zM551 340q14 -14 38.5 -21t42 -9t50.5 -3q161 -12 182 -14q0 -11 -1 -33.5t-1 -36.5q-2 -25 -2 -73
q-4 -102 -4 -144l-82 12q-5 0 -45 5q-28 4 -39 4l-26 4l-33 2q-93 9 -133 18q-72 17 -119 55q-62 62 -62 189q0 17 5 90q12 94 16 141l31 277l12 141q-67 3 -121 10q0 27 2 45q0 10 1 25t1 20v-2l4 70l45 -6q32 -4 39 -4q20 -4 39 -4q6 66 15 133l12 129q96 -8 184 -8
l21 -23q-6 -30 -9 -65q-1 -13 -4 -36t-4 -34v2l-12 -104h16q31 0 113 4q39 0 57 2q9 0 27.5 1t26.5 1l-7 -70q-2 -24 -12 -86q-189 -6 -213 -6h-22q-2 -20 -7.5 -66t-7.5 -69q-3 -25 -8 -76.5t-8 -77.5q-2 -25 -17 -153v-11v-10q-2 -16 -2 -45q0 -61 21 -90z" />
    <glyph glyph-name="Utilde" unicode="&#x168;" horiz-adv-x="1523"
d="M895 2089l45 -51q62 -62 147 -62q70 0 115 58q25 30 66 127q9 27 22 53l13 29q2 4 5.5 12.5t4.5 11.5h-13h-20q-6 -2 -18 -2h-15h-41h-39q-7 -15 -14 -37q0 -1 -3.5 -8.5t-4.5 -13.5q-15 -37 -30.5 -60t-39.5 -30q-24 5 -51 32l-49 54q-61 61 -148 61q-42 0 -81 -27.5
t-62 -74.5l-33 -78l-2 -6h4v-2q-2 -5 -4 -13q-3 -5 -14 -30q-14 -24 -31 -60h17h24h25h18q30 0 62 4q18 41 22 56v-2q11 35 27 57q23 30 41 35q24 -2 55 -33zM342 1464v-69q0 -380 -43 -828q-8 -82 -8 -127q0 -86 20 -159q24 -91 76 -148q71 -74 182 -100q97 -25 215 -25
q124 0 224 27q121 33 206 115q81 87 111 196q28 87 39 217q41 538 117 922l-76 -6q-37 -5 -143 -15q-22 -123 -27 -180q-33 -226 -45 -375q-11 -85 -21 -182q-7 -97 -28 -168q-27 -92 -74 -153q-43 -48 -119 -72q-64 -19 -141 -19q-76 0 -137 17q-68 18 -109 71h2
q-51 76 -51 215q0 35 4 105q36 439 41 739q-66 4 -192 21z" />
    <glyph glyph-name="utilde" unicode="&#x169;" horiz-adv-x="1353"
d="M745 1743l46 -51q62 -62 147 -62q70 0 115 58q23 27 65 127q7 21 23 53l12 28q1 4 3.5 9.5t4 9t2.5 6.5h-12h-21q-6 -2 -18 -2h-14h-41h-39q-7 -15 -14 -37q0 -1 -4 -8.5t-5 -13.5q-8 -19 -13 -30t-14 -25.5t-19.5 -23t-22.5 -12.5q-24 5 -52 33l-49 53q-62 62 -147 62
q-42 0 -81 -27.5t-62 -74.5q-23 -52 -33 -78l-2 -6h4v-2q-2 -5 -4 -13q-6 -9 -15 -30q-7 -13 -30 -60h16h25h24h19q29 0 61 4q21 46 23 56v-3q12 39 26 58q23 30 41 35q24 -2 55 -33zM240 449q-7 -58 -7 -103q0 -118 41 -213q36 -69 115 -102q76 -31 158 -31h26
q92 0 177.5 43t150.5 117q-2 -21 -5 -68.5t-5 -68.5q21 0 45 -3q72 -4 106 -8q8 0 23 -1t22 -1q0 543 121 1104q-18 -2 -59 -5.5t-55 -4.5q-18 -2 -115 -8q-45 -247 -68 -455q-25 -151 -102 -238q-79 -84 -219 -84q-103 0 -148 80v-2q-30 64 -30 174v9v10v12q19 257 22 496
l-72 6l-20 2q-5 1 -14 2t-13 2q-16 0 -24 2q-17 0 -23 2v-65q0 -15 2 -23v-20q0 -247 -30 -557z" />
    <glyph glyph-name="Umacron" unicode="&#x16a;" horiz-adv-x="1523"
d="M602 1862l-18 -29q10 -17 10 -43q0 -34 -43 -92q49 0 78 2h168h75h76h166q27 -2 76 -2q-31 44 -31 69q0 34 45 95q-24 0 -78 -1t-84 -1h-84q-27 -2 -75 -2q-97 0 -281 4zM342 1464v-69q0 -380 -43 -828q-8 -82 -8 -127q0 -86 20 -159q24 -91 76 -148q71 -74 182 -100
q97 -25 215 -25q124 0 224 27q121 33 206 115q81 87 111 196q28 87 39 217q41 538 117 922l-76 -6q-37 -5 -143 -15q-22 -123 -27 -180q-33 -226 -45 -375q-11 -85 -21 -182q-7 -97 -28 -168q-27 -92 -74 -153q-43 -48 -119 -72q-64 -19 -141 -19q-76 0 -137 17
q-68 18 -109 71h2q-51 76 -51 215q0 35 4 105q36 439 41 739q-66 4 -192 21z" />
    <glyph glyph-name="umacron" unicode="&#x16b;" horiz-adv-x="1353"
d="M453 1516l-19 -29q10 -17 10 -43q0 -34 -43 -92q49 0 78 2h168h76h76h166q27 -2 75 -2q-30 43 -30 69q0 34 45 95q-23 0 -78 -1.5t-84 -1.5h-84q-27 -2 -76 -2q-50 0 -280 5zM240 449q-7 -58 -7 -103q0 -118 41 -213q36 -69 115 -102q76 -31 158 -31h26q92 0 177.5 43
t150.5 117q-2 -21 -5 -68.5t-5 -68.5q21 0 45 -3q72 -4 106 -8q8 0 23 -1t22 -1q0 543 121 1104q-18 -2 -59 -5.5t-55 -4.5q-18 -2 -115 -8q-45 -247 -68 -455q-25 -151 -102 -238q-79 -84 -219 -84q-103 0 -148 80v-2q-30 64 -30 174v9v10v12q19 257 22 496l-72 6l-20 2
q-5 1 -14 2t-13 2q-16 0 -24 2q-17 0 -23 2v-65q0 -15 2 -23v-20q0 -247 -30 -557z" />
    <glyph glyph-name="Uring" unicode="&#x16e;" horiz-adv-x="1523"
d="M1139 1849v15v18q0 105 -68 170q-67 64 -168 64q-129 0 -211 -88q-78 -84 -78 -209q0 -104 68 -172q64 -64 170 -64q120 0 197 74q78 72 90 192zM1006 1858v-7q-13 -59 -48 -94q-41 -41 -96 -41q-50 0 -82 31.5t-32 83.5q0 63 40 106t103 43q52 -3 83.5 -33.5t31.5 -80.5
v-4v-4zM342 1464v-69q0 -380 -43 -828q-8 -82 -8 -127q0 -86 20 -159q24 -91 76 -148q71 -74 182 -100q97 -25 215 -25q124 0 224 27q121 33 206 115q81 87 111 196q28 87 39 217q41 538 117 922l-76 -6q-37 -5 -143 -15q-22 -123 -27 -180q-33 -226 -45 -375
q-11 -85 -21 -182q-7 -97 -28 -168q-27 -92 -74 -153q-43 -48 -119 -72q-64 -19 -141 -19q-76 0 -137 17q-68 18 -109 71h2q-51 76 -51 215q0 35 4 105q36 439 41 739q-66 4 -192 21z" />
    <glyph glyph-name="uring" unicode="&#x16f;" horiz-adv-x="1353"
d="M989 1503v15v18q0 106 -67 170q-66 63 -168 63q-129 0 -211 -88q-78 -84 -78 -208q0 -106 67 -173q63 -63 170 -63q120 0 197 74q78 72 90 192zM856 1511v-6q-13 -60 -47 -94q-41 -41 -96 -41q-50 0 -82.5 31.5t-32.5 83.5q0 62 41 106q40 43 102 43q52 -3 83.5 -33.5
t31.5 -80.5v-4v-5zM240 449q-7 -58 -7 -103q0 -118 41 -213q36 -69 115 -102q76 -31 158 -31h26q92 0 177.5 43t150.5 117q-2 -21 -5 -68.5t-5 -68.5q21 0 45 -3q72 -4 106 -8q8 0 23 -1t22 -1q0 543 121 1104q-18 -2 -59 -5.5t-55 -4.5q-18 -2 -115 -8q-45 -247 -68 -455
q-25 -151 -102 -238q-79 -84 -219 -84q-103 0 -148 80v-2q-30 64 -30 174v9v10v12q19 257 22 496l-72 6l-20 2q-5 1 -14 2t-13 2q-16 0 -24 2q-17 0 -23 2v-65q0 -15 2 -23v-20q0 -247 -30 -557z" />
    <glyph glyph-name="Uhungarumlaut" unicode="&#x170;" horiz-adv-x="1523"
d="M809 1591l84 131q113 182 156 236l16 8q74 0 111 2q16 0 26 2h60q-60 -62 -119 -136t-88.5 -116t-89.5 -129l-50 2h-106zM616 1587h-45q-66 -4 -82 -4q130 159 230 371l18 10h41h49h50h41q-44 -63 -48 -70q-10 -12 -26 -36q-4 -8 -11.5 -18.5t-9.5 -14.5
q-109 -163 -170 -236q-23 0 -37 -2zM1405 1479l76 6q-76 -384 -117 -922q-11 -130 -39 -217q-30 -109 -111 -196q-85 -82 -206 -115q-100 -27 -224 -27q-118 0 -215 25q-111 26 -182 100q-52 57 -76 148q-20 73 -20 159q0 45 8 127q43 448 43 828v69l23 19q126 -17 192 -21
q-5 -300 -41 -739q-4 -70 -4 -105q0 -139 51 -215h-2q41 -53 109 -71q61 -17 137 -17q77 0 141 19q76 24 119 72q47 61 74 153q21 71 28 168q10 97 21 182q12 149 45 375q5 57 27 180q107 10 143 15z" />
    <glyph glyph-name="uhungarumlaut" unicode="&#x171;" horiz-adv-x="1353"
d="M659 1245l84 131q113 182 156 236l16 8q74 0 111 2q17 0 27 2h59q-60 -62 -119 -136t-88.5 -116t-89.5 -129l-49 2h-107zM467 1241h-45q-66 -4 -82 -4q128 156 229 371l19 10h41h49h49h41q-39 -56 -47 -70q-12 -14 -27 -37q-5 -8 -11.5 -18.5t-8.5 -13.5
q-109 -163 -170 -236q-23 0 -37 -2zM1094 1104q14 1 55 4.5t59 5.5q-121 -561 -121 -1104q-7 0 -22 1t-23 1q-34 4 -106 8q-24 3 -45 3q2 21 5 68.5t5 68.5q-65 -74 -150.5 -117t-177.5 -43h-26q-82 0 -158 31q-79 33 -115 102q-41 95 -41 213q0 45 7 103q30 310 30 557v20
q-2 8 -2 23v65q6 -2 23 -2q8 -2 24 -2q4 -1 13 -2t14 -2l20 -2l72 -6q-3 -239 -22 -496v-12v-10v-9q0 -110 30 -174v2q45 -80 148 -80q140 0 219 84q77 87 102 238q23 208 68 455q97 6 115 8z" />
    <glyph glyph-name="Uogonek" unicode="&#x172;" horiz-adv-x="1523"
d="M1405 1479l76 6q-76 -384 -117 -922q-11 -130 -39 -217q-30 -109 -111 -196q-85 -82 -206 -115q-53 -14 -97 -19q-20 -27 -34 -49q-37 -65 -37 -96q0 -27 21 -44t52 -17q66 0 140 34v-22q-2 -10 -2 -31v-29q-2 -10 -2 -24q0 -6 2 -8v-9v-30q-96 -15 -142 -15h-6h-8
q-97 8 -137 27q-68 37 -68 125q0 63 39 133q11 21 29 47q-107 3 -189 25q-111 26 -182 100q-52 57 -76 148q-20 73 -20 159q0 45 8 127q43 448 43 828v69l23 19q126 -17 192 -21q-5 -300 -41 -739q-4 -70 -4 -105q0 -139 51 -215h-2q41 -53 109 -71q61 -17 137 -17
q77 0 141 19q76 24 119 72q47 61 74 153q21 71 28 168q10 97 21 182q12 149 45 375q5 57 27 180q107 10 143 15z" />
    <glyph glyph-name="uogonek" unicode="&#x173;" horiz-adv-x="1353"
d="M240 449q-7 -58 -7 -103q0 -118 41 -213q36 -69 115 -102q76 -31 158 -31h26q92 0 177.5 43t150.5 117q-2 -21 -5 -68.5t-5 -68.5q21 0 45 -3q72 -4 106 -8q8 0 23 -1t22 -1q0 543 121 1104q-18 -2 -59 -5.5t-55 -4.5q-18 -2 -115 -8q-45 -247 -68 -455
q-25 -151 -102 -238q-79 -84 -219 -84q-103 0 -148 80v-2q-30 64 -30 174v9v10v12q19 257 22 496l-72 6l-20 2q-5 1 -14 2t-13 2q-16 0 -24 2q-17 0 -23 2v-65q0 -15 2 -23v-20q0 -247 -30 -557zM938 12l-14 -6q-54 -68 -70 -100q-39 -70 -39 -133q0 -88 68 -125
q40 -19 137 -27h8h6q53 0 142 14v31v8q-2 2 -2 9q0 14 2 24v29q0 21 2 31v22q-76 -35 -140 -35q-31 0 -52 17.5t-21 44.5q0 33 36 96q22 34 74 98h-31h-38q-25 0 -37 2h-31z" />
    <glyph glyph-name="Wcircumflex" unicode="&#x174;" horiz-adv-x="2174"
d="M1260 1964l-41 -59q-4 -6 -19 -27t-22 -31q-12 -17 -40 -57.5t-46 -63.5q-54 -67 -123 -141l100 2l66 2q38 39 165 191h-2l27 32l18 -26q76 -122 136 -197l63 -2l100 -2q-52 64 -108 158q-19 32 -78 143l-39 78h-157zM555 1470l-207 17q95 -332 148 -725q42 -332 55 -737
q13 1 39 2t39 2q13 0 41 1t43 1q110 4 161 4q90 175 179 364q119 260 168 371q2 -5 4.5 -14t3.5 -11q0 -8 4 -16l8 -41q104 -427 182 -653q44 0 150 -4q59 0 149 -4q94 403 205 733q126 384 295 725q-29 0 -47 -2h-31q-8 -2 -22 -2q-52 -6 -113 -6q-217 -407 -442 -1024
q-32 78 -43 110l-74 205q-3 12 -39 111q-11 33 -78 221h-178l-76 -129q-13 -22 -37.5 -66t-37.5 -65q-83 -143 -222 -369q-44 273 -92 504q-63 282 -135 497z" />
    <glyph glyph-name="wcircumflex" unicode="&#x175;" horiz-adv-x="1773"
d="M979 1618l-41 -59q-4 -6 -19 -27t-22 -31q-12 -17 -40 -57.5t-46 -63.5q-54 -67 -123 -141l100 2l66 2q46 47 166 191h-2l26 32l19 -26q79 -128 135 -197l64 -2l100 -2q-56 68 -109 158q-9 16 -77 143l-39 78h-158zM283 1110l-21 -25q77 -235 123 -518q33 -191 64 -544
h24q10 0 32 1t32 1h26q86 4 139 4q110 197 236 452q48 -159 74 -227q29 -94 80 -225h45q16 -2 45 -2q55 0 86 -2q16 0 44 -1t42 -1q69 304 153 546q99 289 236 543q-21 0 -33 -2q-25 0 -37 -2q-37 0 -69 -4l-66 -4q-88 -165 -156.5 -334.5t-144.5 -388.5q0 1 -78 184
q-11 26 -23 56.5t-26.5 68.5t-24.5 62q-44 -3 -96 -3h-149l-41 -67q-7 -14 -20.5 -37t-18.5 -33q-14 -21 -36 -59.5t-32 -54.5q-23 -37 -69 -115q-66 405 -172 721q-78 3 -168 10z" />
    <glyph glyph-name="Ycircumflex" unicode="&#x176;" horiz-adv-x="1544"
d="M936 1964l-41 -59q-4 -6 -19 -27t-22 -31q-12 -17 -40 -57.5t-46 -63.5q-54 -67 -123 -141l100 2l66 2q46 47 166 191h-2l26 32l19 -26q79 -128 135 -197l64 -2l100 -2q-56 68 -109 158q-9 16 -77 143l-39 78h-158zM360 1485l-18 -29q35 -74 73 -159.5t63 -144t69 -166
t59 -145t66.5 -166.5t60.5 -151q-1 -9 -9.5 -101.5t-14.5 -141.5l-25 -244h23h24h25h20h72q88 0 123 -2q24 379 35 489q31 54 43 74q8 16 24 43.5t19 32.5q93 163 243 411q135 223 256 402l-78 -6q-86 -10 -159 -13q-177 -255 -459 -716q-84 187 -164 358q-63 141 -172 354
q-120 11 -199 21z" />
    <glyph glyph-name="ycircumflex" unicode="&#x177;" horiz-adv-x="1390"
d="M629 1618l-41 -59q-4 -6 -19 -27t-22 -31q-12 -17 -40 -57.5t-46 -63.5q-54 -67 -123 -141l100 2l66 2q46 47 166 191h-2l26 32l19 -26q79 -128 135 -197l63 -2l101 -2q-56 68 -109 158q-19 32 -78 143l-39 78h-157zM786 -70l121 265q268 580 453 919q-28 -4 -49 -4
l-60 -6q-59 -9 -108 -12q-164 -271 -344 -605q-5 10 -158 304q-28 54 -164 301q-7 0 -104 10q-83 9 -105 12q84 -195 185 -459l174 -465l26 -71l-18 -33q-38 -61 -66 -113q-60 -64 -94 -92q-22 -16 -52 -25t-51 -11t-61 -3q-8 -2 -35 -2q-6 -1 -19 -2t-17 -2q-1 -5 -4.5 -22
t-4.5 -27q-3 -13 -8 -51q-7 -35 -10 -78q-3 -15 -8 -42.5t-6 -33.5q3 0 10.5 1t11.5 1l60 6q18 0 24 2q82 3 146 17q79 14 137 55q61 48 114 125q39 57 84 141z" />
    <glyph glyph-name="Ydieresis" unicode="&#x178;" horiz-adv-x="1544"
d="M1094 1843l-19 -12q-16 -75 -16 -135l2 -62h39h39h35q12 -2 38 -2h37q14 -2 35 -2q-20 65 -20 88q0 47 41 131q-16 -2 -50 -2q-37 0 -57 -2q-20 0 -55 -1t-49 -1zM719 1847l-21 -24q11 -27 11 -64q0 -59 -37 -129q21 0 35 2h38q27 0 41 2h33h37h39q18 103 18 158v8
q-2 2 -2 8v35q-29 2 -96 2q-18 0 -49.5 1t-46.5 1zM360 1485l-18 -29q35 -74 73 -159.5t63 -144t69 -166t59 -145t66.5 -166.5t60.5 -151q-1 -9 -9.5 -101.5t-14.5 -141.5l-25 -244h23h24h25h20h72q88 0 123 -2q24 379 35 489q31 54 43 74q8 16 24 43.5t19 32.5
q93 163 243 411q135 223 256 402l-78 -6q-86 -10 -159 -13q-177 -255 -459 -716q-84 187 -164 358q-63 141 -172 354q-120 11 -199 21z" />
    <glyph glyph-name="Zacute" unicode="&#x179;" horiz-adv-x="1669"
d="M1108 2322l-14 -6q-45 -50 -136 -162q-18 -21 -55.5 -64.5t-52.5 -61.5q-24 -27 -66.5 -75t-46.5 -52q6 1 21.5 2t23.5 2q8 0 26.5 1t27.5 1q74 4 98 4q65 60 182 186q32 36 53 57l62 64q51 51 121 117q-49 -6 -123 -6q-10 -1 -32.5 -2.5t-33.5 -2.5q-11 0 -29 -1t-26 -1
zM342 1462v-166q265 -22 547 -22q155 0 311 6q-325 -325 -481 -485q-185 -190 -475 -494q-3 -16 -12 -66.5t-15 -80.5q-5 -30 -15 -83.5t-12 -64.5q336 31 613 31q267 0 600 -29q-4 118 -4 197l2 117q-270 18 -559 18q-164 0 -328 -6l40 40t45 44.5t36 36.5
q38 38 111.5 113.5t111.5 113.5l119 123q84 84 252 256q127 127 250 256l14 74q0 15 8 47l6 26q0 9 4 21q-330 -31 -604 -31q-272 0 -542 27z" />
    <glyph glyph-name="zacute" unicode="&#x17a;" horiz-adv-x="1280"
d="M889 1976l-15 -6q-32 -36 -135 -162q-18 -20 -54.5 -63.5t-53.5 -63.5q-24 -27 -66.5 -75t-46.5 -52q5 1 12 1.5t17 1.5t16 2q8 0 26 1t27 1q74 4 99 4q65 60 182 186q32 36 53 57l62 64q51 51 121 117q-58 -7 -123 -7q-11 -1 -33.5 -2t-32.5 -2q-10 0 -29 -1t-26 -1z
M262 1085v-131q181 -14 379 -14q151 0 227 4q-30 -29 -90 -85t-88 -83l-172 -160q-183 -173 -348 -333l-23 -138q-6 -35 -26 -139q263 25 461 25q184 0 434 -23q-2 45 -2 158q0 73 2 102q-203 13 -398 13h-79h-80l100 100q86 86 184 192q29 29 99 103q62 62 123 129l125 127
q1 3 4 18.5t4 24.5q2 8 5 25t5 24q6 46 16 88q-263 -25 -462 -25q-179 0 -377 19z" />
    <glyph glyph-name="Zdotaccent" unicode="&#x17b;" horiz-adv-x="1669"
d="M760 1849v-8v-6q0 -56 -23 -168q17 0 29 2h33q12 0 32 1t27 1q6 0 24 -1t29 -1h27q10 -2 23 -2v6v10v11v6v12q0 66 22 176q-70 -6 -115 -6q-59 0 -88 4l-20 -18v-19zM342 1462v-166q265 -22 547 -22q155 0 311 6q-325 -325 -481 -485q-185 -190 -475 -494
q-3 -16 -12 -66.5t-15 -80.5q-5 -30 -15 -83.5t-12 -64.5q336 31 613 31q267 0 600 -29q-4 118 -4 197l2 117q-270 18 -559 18q-164 0 -328 -6l40 40t45 44.5t36 36.5q38 38 111.5 113.5t111.5 113.5l119 123q84 84 252 256q127 127 250 256l14 74q0 15 8 47l6 26q0 9 4 21
q-330 -31 -604 -31q-272 0 -542 27z" />
    <glyph glyph-name="zdotaccent" unicode="&#x17c;" horiz-adv-x="1280"
d="M541 1503v-8v-6q0 -56 -23 -168q17 0 29 2h33q12 0 32 1t27 1q6 0 24 -1t29 -1h27q10 -2 22 -2v6v10v11v6v12q0 61 23 176q-71 -6 -115 -6q-59 0 -88 4l-20 -18v-19zM262 1085v-131q181 -14 379 -14q151 0 227 4q-30 -29 -90 -85t-88 -83l-172 -160q-183 -173 -348 -333
l-23 -138q-6 -35 -26 -139q263 25 461 25q184 0 434 -23q-2 45 -2 158q0 73 2 102q-203 13 -398 13h-79h-80l100 100q86 86 184 192q29 29 99 103q62 62 123 129l125 127q1 3 4 18.5t4 24.5q2 8 5 25t5 24q6 46 16 88q-263 -25 -462 -25q-179 0 -377 19z" />
    <glyph glyph-name="Zcaron" unicode="&#x17d;" horiz-adv-x="1669"
d="M948 1591l37 56q4 6 28 39.5t32.5 45t31 42t37.5 49t37.5 46t45 52.5t46.5 51l-108 -4h2l-66 -2q-63 -65 -153 -178l-37 -47l-2 2q-98 154 -150 223h-35q-16 2 -45 2q-46 0 -82 4q89 -123 176 -293l48 -88h157zM342 1462v-166q265 -22 547 -22q155 0 311 6
q-325 -325 -481 -485q-185 -190 -475 -494q-3 -16 -12 -66.5t-15 -80.5q-5 -30 -15 -83.5t-12 -64.5q336 31 613 31q267 0 600 -29q-4 118 -4 197l2 117q-270 18 -559 18q-164 0 -328 -6l40 40t45 44.5t36 36.5q38 38 111.5 113.5t111.5 113.5l119 123q84 84 252 256
q127 127 250 256l14 74q0 15 8 47l6 26q0 9 4 21q-330 -31 -604 -31q-272 0 -542 27z" />
    <glyph glyph-name="zcaron" unicode="&#x17e;" horiz-adv-x="1280"
d="M729 1245l37 55q4 5 33 46t38.5 54t37 49.5t46.5 59t47 55t56 62.5l-109 -4h3l-66 -2q-69 -71 -154 -178l-36 -47l-3 2q-103 162 -149 223h-35q-16 2 -45 2q-46 0 -82 4q89 -123 176 -293l47 -88h158zM262 1085v-131q181 -14 379 -14q151 0 227 4q-30 -29 -90 -85
t-88 -83l-172 -160q-183 -173 -348 -333l-23 -138q-6 -35 -26 -139q263 25 461 25q184 0 434 -23q-2 45 -2 158q0 73 2 102q-203 13 -398 13h-79h-80l100 100q86 86 184 192q29 29 99 103q62 62 123 129l125 127q1 3 4 18.5t4 24.5q2 8 5 25t5 24q6 46 16 88
q-263 -25 -462 -25q-179 0 -377 19z" />
    <glyph glyph-name="florin" unicode="&#x192;" horiz-adv-x="1302"
d="M1323 1481l10 14q-55 16 -127 16h-20h-23h-10q-2 -2 -10 -2q-149 -6 -266 -120q-109 -106 -150 -256q-34 -120 -51 -189q-2 -9 -8.5 -29t-8.5 -26q-2 -5 -14 -55l-258 -19q-6 -54 -6 -74q-2 -4 -2 -16q0 -17 -2 -23q0 -9 -1 -22.5t-1 -17.5l225 18q-8 -35 -26 -116
t-27 -124l-58 -239v2q-36 -123 -86 -193q-68 -92 -170 -92q-74 0 -167 57l-37 -116q-16 -54 -72 -215q80 -29 152 -29q227 0 378 154q84 84 138 223q30 78 71 248q5 31 19 75q3 12 8 38t8 40h-2q35 138 66 289q43 3 139.5 11t148.5 12l17 155l-260 -24l39 145q11 34 20 72
q3 14 12 40.5t11 34.5q26 111 90 175q73 73 176 73q63 0 131 -45q0 1 1 8t1 13q1 6 4 23t4 26q0 4 1 10.5t1 9.5l12 62z" />
    <glyph glyph-name="Ohorn" unicode="&#x1a0;"
d="M1532 1358l98 -12q10 -42 10 -66q0 -67 -20.5 -131t-63.5 -102q-59 -49 -71 -56q6 -61 6 -121q0 -188 -45 -348q-54 -193 -166 -321q-98 -104 -238 -150q-124 -41 -274 -41q-136 0 -252 45q-130 50 -201 148q-60 73 -90 194q-26 104 -26 221q0 192 41 347q52 200 170 323
h-2q95 103 233 150q119 43 268 43q142 0 258 -45q138 -52 207 -150q62 -79 90 -186q39 24 41 26q7 6 12.5 14t9.5 16t7 18.5t5 18.5t3.5 20.5t2 19t1 19t0.5 17v15.5v12q0 27 -14 62zM1251 641q23 89 23 203q0 194 -76 317q-48 70 -128 107t-173 37q-102 0 -182 -35
q-98 -43 -152 -113q-76 -91 -114 -231q-33 -121 -33 -250q0 -74 16 -123q20 -66 70 -94q57 -38 147 -56q74 -14 162 -14q194 0 324 72q81 52 116 180z" />
    <glyph glyph-name="ohorn" unicode="&#x1a1;" horiz-adv-x="1267"
d="M1147 1184l98 -13q10 -42 10 -65q0 -67 -20.5 -131.5t-63.5 -102.5q-10 -8 -21.5 -18.5t-17.5 -15l-14 -10.5t-18 -11q14 -69 14 -151q0 -153 -31 -267q-39 -156 -122 -254q-67 -73 -177 -110q-95 -33 -200 -33t-193 33q-100 34 -151 110q-84 112 -84 310q0 146 30 266
q39 153 123 252q66 66 176 106q92 35 199 35q113 0 195 -31q93 -32 153 -112q16 -22 31 -51q45 22 57 32q7 6 12.5 14t9.5 16t7 18.5t5 18.5t3.5 20.5t2 19t1 19t0.5 17v15.5v12q0 27 -14 62zM905 504q15 69 15 149q0 133 -50 215q-28 48 -81 73.5t-115 25.5
q-64 0 -122.5 -25t-96.5 -74q-55 -72 -78 -172q-21 -80 -21 -184q0 -108 54 -150h-2q70 -45 204 -45q131 0 213 48h-2q61 42 82 139z" />
    <glyph glyph-name="Uhorn" unicode="&#x1af;" horiz-adv-x="1523"
d="M1487 1589l98 -12q10 -42 10 -66q0 -67 -20.5 -131t-63.5 -102q-7 -6 -16.5 -14t-13.5 -11.5t-10.5 -8.5t-11 -8t-11 -7t-14.5 -8q-43 -289 -70 -658q-11 -130 -39 -217q-30 -109 -111 -196q-85 -82 -206 -115q-100 -27 -224 -27q-118 0 -215 25q-111 26 -182 100
q-52 57 -76 148q-20 73 -20 159q0 45 8 127q43 448 43 828v69l23 19q126 -17 192 -21q-5 -300 -41 -739q-4 -70 -4 -105q0 -139 51 -215h-2q41 -53 109 -71q61 -17 137 -17q77 0 141 19q76 24 119 72q47 61 74 153q21 71 28 168q10 97 21 182q12 149 45 375q5 57 27 180
q107 10 143 15l76 6l-25 -129q2 0 4 2q7 6 12.5 14t9.5 16t7 18.5t5 18.5t3.5 20.5t2 19t1 19t0.5 17v15.5v12q0 26 -14 61z" />
    <glyph glyph-name="uhorn" unicode="&#x1b0;" horiz-adv-x="1353"
d="M1239 1241l98 -12q11 -46 11 -66q0 -67 -20.5 -131t-63.5 -102q-8 -6 -22.5 -18.5t-18.5 -15.5t-14.5 -10.5t-20.5 -13t-25 -12.5l-2 6q-74 -433 -74 -856q-7 0 -22 1t-23 1q-34 4 -106 8q-24 3 -45 3q2 21 5 68.5t5 68.5q-65 -74 -150.5 -117t-177.5 -43h-26
q-82 0 -158 31q-79 33 -115 102q-41 95 -41 213q0 45 7 103q30 310 30 557v20q-2 8 -2 23v65q6 -2 23 -2q8 -2 24 -2q4 -1 13 -2t14 -2l20 -2l72 -6q-3 -239 -22 -496v-12v-10v-9q0 -110 30 -174v2q45 -80 148 -80q140 0 219 84q77 87 102 238q23 208 68 455q97 6 115 8
q14 1 55 4.5t59 5.5l-24 -123q8 3 28 19q7 6 12.5 14t9.5 16t7 18.5t5 18.5t3.5 20.5t2 19t1 19t0.5 17v15.5v12q0 26 -14 61z" />
    <glyph glyph-name="Acaron" unicode="&#x1cd;" horiz-adv-x="1669"
d="M928 1591l37 56q4 6 28 39.5t32.5 45t31 42t37.5 49t37.5 46t45 52.5t46.5 51l-109 -4h2l-65 -2q-69 -71 -154 -178l-37 -47l-2 2q-103 162 -149 223h-35q-16 2 -45 2q-46 0 -82 4q89 -123 176 -293l47 -88h158zM944 1454h-196q-86 -176 -209 -446
q-102 -221 -158.5 -340.5t-155 -312t-190.5 -349.5l67 6l39 3l39 3l78 7q28 0 68 4q9 21 30 61t27 53q45 103 51 119q109 2 309 2q204 0 306 -2q18 -90 51 -233q5 0 153 -11l152 -12q-97 225 -197 539q-55 176 -153 524q-65 231 -111 385zM864 1077l37 -159q34 -133 49 -205
l49 -205h-106h-66h-67h-117h-119q92 213 183 434l118 297q16 -62 39 -162z" />
    <glyph glyph-name="acaron" unicode="&#x1ce;" horiz-adv-x="1275"
d="M731 1245l37 55q4 5 33 46t38.5 54t37 49.5t46.5 59t47 55t56 62.5l-108 -4h2l-66 -2q-69 -71 -154 -178l-36 -47l-2 2q-98 154 -150 223h-35q-16 2 -45 2q-46 0 -82 4q89 -123 176 -293l47 -88h158zM1036 633q6 53 6 108q0 172 -86 273q-57 55 -151 82q-71 18 -174 18
q-170 0 -375 -63q-4 -29 -4 -84v-17q-2 -8 -2 -24v-23q-2 -8 -2 -18q177 82 352 82q131 -11 213 -74q47 -50 47 -133v-15q-2 -10 -2 -22q-2 -2 -2 -8v-8h-111h-112q-182 0 -314 -66q-93 -47 -149 -158q-43 -92 -43 -207q0 -120 66 -192q82 -82 239 -82q119 0 209 33
q105 40 176 119q-2 -10 -2 -21v-8v-8v-19l-2 -75l98 -7q12 -1 48.5 -4.5t50.5 -5.5l-2 111q0 245 28 516zM750 561v-14q-2 -2 -2 -12l-5 -25q-11 -130 -61 -184q-41 -25 -94 -35q-44 -8 -101 -8q-58 0 -137 14q-26 6 -39.5 29.5t-13.5 54.5q7 92 72 137q36 18 51 23
q56 16 110 16q20 2 58 2q8 0 12 2h12h138z" />
    <glyph glyph-name="Icaron" unicode="&#x1cf;" horiz-adv-x="708"
d="M553 1591l37 56q4 6 28 39.5t32.5 45t31 42t37.5 49t37.5 46t45 52.5t46.5 51l-109 -4h2l-65 -2q-69 -71 -154 -178l-37 -47l-2 2q-103 162 -149 223h-35q-16 2 -45 2q-46 0 -82 4q89 -123 176 -293l47 -88h158zM367 1466l-25 -16q-66 -699 -160 -1454q84 41 135 41
q52 0 123 -41q17 341 49 745q28 392 62 746q-78 -33 -115 -33q-23 0 -69 12z" />
    <glyph glyph-name="icaron" unicode="&#x1d0;" horiz-adv-x="634"
d="M371 1245l37 55q4 5 33 46t38.5 54t37 49.5t46.5 59t47 55t56 62.5l-109 -4h2l-65 -2q-69 -71 -154 -178l-37 -47l-2 2q-103 162 -149 223h-35q-16 2 -45 2q-46 0 -82 4q89 -123 176 -293l47 -88h158zM295 1108l-31 -16q-40 -569 -98 -1096q68 35 106 35q37 0 93 -35
q7 98 45 565q10 128 55 563q-67 -37 -107 -37q-36 0 -63 21z" />
    <glyph glyph-name="Ocaron" unicode="&#x1d1;"
d="M989 1591l37 56q4 6 28 39.5t32.5 45t31 42t37.5 49t37.5 46t45 52.5t46.5 51l-108 -4h2l-66 -2q-69 -71 -154 -178l-36 -47l-2 2q-98 154 -150 223h-35q-16 2 -45 2q-46 0 -82 4q89 -123 176 -293l47 -88h158zM909 1481q-149 0 -268 -43q-138 -47 -233 -150h2
q-118 -123 -170 -323q-41 -155 -41 -347q0 -117 26 -221q30 -121 90 -194q71 -98 201 -148q116 -45 252 -45q150 0 274 41q140 46 238 150q112 128 166 321q45 160 45 348q0 122 -25 222q-30 115 -92 194q-69 98 -207 150q-116 45 -258 45zM897 1305q93 0 173 -37t128 -107
q76 -123 76 -317q0 -114 -23 -203q-35 -128 -116 -180q-130 -72 -324 -72q-88 0 -162 14q-90 18 -147 56q-50 28 -70 94q-16 49 -16 123q0 129 33 250q38 140 114 231q54 70 152 113q80 35 182 35z" />
    <glyph glyph-name="ocaron" unicode="&#x1d2;" horiz-adv-x="1267"
d="M770 1245l37 55q4 5 33 46t38.5 54t37 49.5t46.5 59t47 55t56 62.5l-109 -4h2l-65 -2q-69 -71 -154 -178l-37 -47l-2 2q-103 162 -149 223h-35q-16 2 -45 2q-46 0 -82 4q89 -123 176 -293l47 -88h158zM684 1114q-107 0 -199 -35q-110 -40 -176 -106q-84 -99 -123 -252
q-30 -120 -30 -266q0 -198 84 -310q51 -76 151 -110q88 -33 193 -33t200 33q110 37 177 110q83 98 122 254q31 114 31 267q0 190 -82 305q-60 80 -153 112q-82 31 -195 31zM674 967q62 0 115 -25.5t81 -73.5q50 -82 50 -215q0 -80 -15 -149q-21 -97 -82 -139h2
q-82 -48 -213 -48q-134 0 -204 45h2q-54 42 -54 150q0 104 21 184q23 100 78 172q38 49 96.5 74t122.5 25z" />
    <glyph glyph-name="Ucaron" unicode="&#x1d3;" horiz-adv-x="1523"
d="M965 1591l36 56q4 5 22 30.5l24 34t24 32.5t27.5 36.5t26.5 35t31 38.5t31.5 37t35.5 41t37 40l-109 -4h2l-66 -2q-63 -65 -153 -178l-37 -47l-2 2q-98 154 -150 223h-34q-16 2 -45 2q-46 0 -82 4q89 -123 176 -293l47 -88h158zM342 1464v-69q0 -380 -43 -828
q-8 -82 -8 -127q0 -86 20 -159q24 -91 76 -148q71 -74 182 -100q97 -25 215 -25q124 0 224 27q121 33 206 115q81 87 111 196q28 87 39 217q41 538 117 922l-76 -6q-37 -5 -143 -15q-22 -123 -27 -180q-33 -226 -45 -375q-11 -85 -21 -182q-7 -97 -28 -168q-27 -92 -74 -153
q-43 -48 -119 -72q-64 -19 -141 -19q-76 0 -137 17q-68 18 -109 71h2q-51 76 -51 215q0 35 4 105q36 439 41 739q-66 4 -192 21z" />
    <glyph glyph-name="ucaron" unicode="&#x1d4;" horiz-adv-x="1353"
d="M815 1245l37 55q4 5 33 46t38.5 54t37 49.5t46.5 59t47 55t56 62.5l-109 -4h3l-66 -2q-69 -71 -154 -178l-36 -47l-3 2q-103 162 -149 223h-35q-16 2 -45 2q-46 0 -82 4q89 -123 176 -293l47 -88h158zM240 449q-7 -58 -7 -103q0 -118 41 -213q36 -69 115 -102
q76 -31 158 -31h26q92 0 177.5 43t150.5 117q-2 -21 -5 -68.5t-5 -68.5q21 0 45 -3q72 -4 106 -8q8 0 23 -1t22 -1q0 543 121 1104q-18 -2 -59 -5.5t-55 -4.5q-18 -2 -115 -8q-45 -247 -68 -455q-25 -151 -102 -238q-79 -84 -219 -84q-103 0 -148 80v-2q-30 64 -30 174v9v10
v12q19 257 22 496l-72 6l-20 2q-5 1 -14 2t-13 2q-16 0 -24 2q-17 0 -23 2v-65q0 -15 2 -23v-20q0 -247 -30 -557z" />
    <glyph glyph-name="Udieresismacron" unicode="&#x1d5;" horiz-adv-x="1523"
d="M600 1942l-18 -29q10 -17 10 -43q0 -34 -43 -92q49 0 78 2h168h75h76h166q27 -2 76 -2q-31 44 -31 69q0 34 45 95q-24 0 -78 -1.5t-84 -1.5h-84q-27 -2 -75 -2q-51 0 -281 5zM586 1745l-19 -25q8 -31 8 -69q0 -69 -40 -140q34 0 57 2h65q65 3 121 3q19 93 19 167l-2 58
q-68 0 -105 2q-71 0 -104 2zM991 1741l-16 -17q-19 -74 -19 -143q0 -27 5 -63q77 -5 112 -5l125 -2q-22 64 -22 95q0 55 43 139l-129 -2q-16 0 -49 -1t-50 -1zM342 1464v-69q0 -380 -43 -828q-8 -82 -8 -127q0 -86 20 -159q24 -91 76 -148q71 -74 182 -100q97 -25 215 -25
q124 0 224 27q121 33 206 115q81 87 111 196q28 87 39 217q41 538 117 922l-76 -6q-37 -5 -143 -15q-22 -123 -27 -180q-33 -226 -45 -375q-11 -85 -21 -182q-7 -97 -28 -168q-27 -92 -74 -153q-43 -48 -119 -72q-64 -19 -141 -19q-76 0 -137 17q-68 18 -109 71h2
q-51 76 -51 215q0 35 4 105q36 439 41 739q-66 4 -192 21z" />
    <glyph glyph-name="udieresismacron" unicode="&#x1d6;" horiz-adv-x="1353"
d="M481 1597l-18 -28q10 -18 10 -43q0 -34 -43 -92q49 0 78 2h168h76h75h166q27 -2 76 -2q-31 44 -31 69q0 33 45 94q-23 0 -77 -1t-84 -1h-84q-27 -2 -76 -2q-97 0 -281 4zM438 1378l-18 -24q8 -31 8 -70q0 -66 -41 -139q34 0 57 2h66q43 2 121 2q18 89 18 168l-2 57
q-67 0 -104 2q-72 0 -105 2zM844 1374l-17 -16q-18 -70 -18 -144q0 -34 4 -63q62 -4 113 -4l125 -2q-23 67 -23 94q0 55 43 139l-129 -2q-16 0 -49 -1t-49 -1zM240 449q-7 -58 -7 -103q0 -118 41 -213q36 -69 115 -102q76 -31 158 -31h26q92 0 177.5 43t150.5 117
q-2 -21 -5 -68.5t-5 -68.5q21 0 45 -3q72 -4 106 -8q8 0 23 -1t22 -1q0 543 121 1104q-18 -2 -59 -5.5t-55 -4.5q-18 -2 -115 -8q-45 -247 -68 -455q-25 -151 -102 -238q-79 -84 -219 -84q-103 0 -148 80v-2q-30 64 -30 174v9v10v12q19 257 22 496l-72 6l-20 2q-5 1 -14 2
t-13 2q-16 0 -24 2q-17 0 -23 2v-65q0 -15 2 -23v-20q0 -247 -30 -557z" />
    <glyph glyph-name="Udieresisacute" unicode="&#x1d7;" horiz-adv-x="1523"
d="M1124 2322l-14 -6q-32 -36 -135 -162q-19 -22 -60.5 -69.5t-48.5 -56.5q-23 -26 -62 -70.5t-50 -56.5q7 1 22 2t23 2q8 0 26 1t27 1q74 4 98 4q73 68 183 186q32 36 53 57l61 64q51 51 121 117q-49 -6 -123 -6q-10 -1 -32 -2.5t-33 -2.5q-10 0 -29 -1t-27 -1zM586 1903
l-19 -25q8 -31 8 -70q0 -68 -40 -139q34 0 57 2h65q43 2 121 2q19 93 19 168l-2 57q-49 0 -105 3q-71 0 -104 2zM991 1898l-16 -16q-19 -74 -19 -143q0 -28 5 -64q62 -4 112 -4l125 -2q-22 64 -22 94q0 56 43 140l-129 -2q-16 0 -49 -1.5t-50 -1.5zM342 1464v-69
q0 -380 -43 -828q-8 -82 -8 -127q0 -86 20 -159q24 -91 76 -148q71 -74 182 -100q97 -25 215 -25q124 0 224 27q121 33 206 115q81 87 111 196q28 87 39 217q41 538 117 922l-76 -6q-37 -5 -143 -15q-22 -123 -27 -180q-33 -226 -45 -375q-11 -85 -21 -182q-7 -97 -28 -168
q-27 -92 -74 -153q-43 -48 -119 -72q-64 -19 -141 -19q-76 0 -137 17q-68 18 -109 71h2q-51 76 -51 215q0 35 4 105q36 439 41 739q-66 4 -192 21z" />
    <glyph glyph-name="udieresisacute" unicode="&#x1d8;" horiz-adv-x="1353"
d="M975 1976l-14 -6q-45 -50 -136 -162q-18 -20 -54.5 -63.5t-53.5 -63.5q-24 -27 -66.5 -75t-46.5 -52l45 5q8 0 26 1t27 1q74 4 99 4q65 60 182 186q32 36 53 57l62 64q51 51 121 117q-58 -7 -123 -7q-11 -1 -33.5 -2t-32.5 -2q-10 0 -29 -1t-26 -1zM436 1556l-18 -24
q8 -31 8 -70q0 -66 -41 -139q34 0 57 2h66q43 2 121 2q18 89 18 168l-2 57q-67 0 -104 2q-72 0 -105 2zM842 1552l-17 -16q-18 -70 -18 -143q0 -35 4 -64q62 -4 113 -4l125 -2q-23 67 -23 94q0 55 43 139l-129 -2q-16 0 -49 -1t-49 -1zM240 449q-7 -58 -7 -103
q0 -118 41 -213q36 -69 115 -102q76 -31 158 -31h26q92 0 177.5 43t150.5 117q-2 -21 -5 -68.5t-5 -68.5q21 0 45 -3q72 -4 106 -8q8 0 23 -1t22 -1q0 543 121 1104q-18 -2 -59 -5.5t-55 -4.5q-18 -2 -115 -8q-45 -247 -68 -455q-25 -151 -102 -238q-79 -84 -219 -84
q-103 0 -148 80v-2q-30 64 -30 174v9v10v12q19 257 22 496l-72 6l-20 2q-5 1 -14 2t-13 2q-16 0 -24 2q-17 0 -23 2v-65q0 -15 2 -23v-20q0 -247 -30 -557z" />
    <glyph glyph-name="Udieresiscaron" unicode="&#x1d9;" horiz-adv-x="1523"
d="M657 1671h-65q-23 -2 -57 -2q40 71 40 139q0 39 -8 70l19 25l47 -2q-12 19 -49 71q36 -4 82 -4q29 0 45 -2h34q24 -31 50 -68q16 -23 33 -49.5t36.5 -57.5t30.5 -48l2 -2l37 47l29 37q2 9 6 28.5t6 28.5l16 16h35q25 32 61 68l66 2h-2l109 4q-6 -7 -29 -31.5t-35 -37.5
h23q-43 -84 -43 -140q0 -30 22 -94l-125 2l-53 2q-2 -3 -19 -26l-36 -56h-158l-43 82q-70 0 -107 -2zM1405 1479l76 6q-76 -384 -117 -922q-11 -130 -39 -217q-30 -109 -111 -196q-85 -82 -206 -115q-100 -27 -224 -27q-118 0 -215 25q-111 26 -182 100q-52 57 -76 148
q-20 73 -20 159q0 45 8 127q43 448 43 828v69l23 19q126 -17 192 -21q-5 -300 -41 -739q-4 -70 -4 -105q0 -139 51 -215h-2q41 -53 109 -71q61 -17 137 -17q77 0 141 19q76 24 119 72q47 61 74 153q21 71 28 168q10 97 21 182q12 149 45 375q5 57 27 180q107 10 143 15z" />
    <glyph glyph-name="udieresiscaron" unicode="&#x1da;" horiz-adv-x="1353"
d="M815 1432l37 55q4 6 28 39.5t32.5 45t31 42t37.5 49t37.5 46t45 52.5t46.5 51l-109 -4h3l-66 -2q-69 -71 -154 -178l-36 -47l-3 2q-103 162 -149 223h-35q-16 2 -45 2q-46 0 -82 4q91 -125 176 -292l47 -88h158zM438 1386l-18 -24q8 -31 8 -70q0 -66 -41 -139q34 0 57 2
h66q43 2 121 2q18 89 18 168l-2 57q-67 0 -104 2q-72 0 -105 2zM844 1382l-17 -16q-18 -70 -18 -143q0 -35 4 -64q62 -4 113 -4l125 -2q-23 67 -23 94q0 55 43 139l-129 -2q-16 0 -49 -1t-49 -1zM240 449q-7 -58 -7 -103q0 -118 41 -213q36 -69 115 -102q76 -31 158 -31h26
q92 0 177.5 43t150.5 117q-2 -21 -5 -68.5t-5 -68.5q21 0 45 -3q72 -4 106 -8q8 0 23 -1t22 -1q0 543 121 1104q-18 -2 -59 -5.5t-55 -4.5q-18 -2 -115 -8q-45 -247 -68 -455q-25 -151 -102 -238q-79 -84 -219 -84q-103 0 -148 80v-2q-30 64 -30 174v9v10v12q19 257 22 496
l-72 6l-20 2q-5 1 -14 2t-13 2q-16 0 -24 2q-17 0 -23 2v-65q0 -15 2 -23v-20q0 -247 -30 -557z" />
    <glyph glyph-name="Udieresisgrave" unicode="&#x1db;" horiz-adv-x="1523"
d="M856 2386l-14 8q-31 0 -105 4q-46 0 -100 4q36 -60 74 -137q20 -44 51 -115l29 -63q20 -46 28 -64h45q37 0 60 -2q42 0 65 -2q11 0 34 -1t34 -1q9 -1 29 -2t28 -2q-54 66 -92 125q-37 54 -119 178q-7 13 -47 70zM586 1903l-19 -25q8 -31 8 -70q0 -68 -40 -139q34 0 57 2
h65q43 2 121 2q19 93 19 168l-2 57q-49 0 -105 3q-71 0 -104 2zM991 1898l-16 -16q-19 -74 -19 -143q0 -28 5 -64q62 -4 112 -4l125 -2q-22 64 -22 94q0 56 43 140l-129 -2q-16 0 -49 -1.5t-50 -1.5zM342 1464v-69q0 -380 -43 -828q-8 -82 -8 -127q0 -86 20 -159
q24 -91 76 -148q71 -74 182 -100q97 -25 215 -25q124 0 224 27q121 33 206 115q81 87 111 196q28 87 39 217q41 538 117 922l-76 -6q-37 -5 -143 -15q-22 -123 -27 -180q-33 -226 -45 -375q-11 -85 -21 -182q-7 -97 -28 -168q-27 -92 -74 -153q-43 -48 -119 -72
q-64 -19 -141 -19q-76 0 -137 17q-68 18 -109 71h2q-51 76 -51 215q0 35 4 105q36 439 41 739q-66 4 -192 21z" />
    <glyph glyph-name="udieresisgrave" unicode="&#x1dc;" horiz-adv-x="1353"
d="M707 2040l-15 8q-30 0 -104 4q-47 0 -101 4q36 -60 74 -137q20 -44 51 -115l29 -63q6 -13 16 -35t13 -29h45q36 0 59 -2q43 0 66 -2q12 0 34 -1t33 -1q10 -1 30 -2t28 -2q-58 71 -93 125q-14 20 -118 178q-7 13 -47 70zM436 1556l-18 -24q8 -31 8 -70q0 -66 -41 -139
q34 0 57 2h66q43 2 121 2q18 89 18 168l-2 57q-67 0 -104 2q-72 0 -105 2zM842 1552l-17 -16q-18 -70 -18 -143q0 -35 4 -64q62 -4 113 -4l125 -2q-23 67 -23 94q0 55 43 139l-129 -2q-16 0 -49 -1t-49 -1zM240 449q-7 -58 -7 -103q0 -118 41 -213q36 -69 115 -102
q76 -31 158 -31h26q92 0 177.5 43t150.5 117q-2 -21 -5 -68.5t-5 -68.5q21 0 45 -3q72 -4 106 -8q8 0 23 -1t22 -1q0 543 121 1104q-18 -2 -59 -5.5t-55 -4.5q-18 -2 -115 -8q-45 -247 -68 -455q-25 -151 -102 -238q-79 -84 -219 -84q-103 0 -148 80v-2q-30 64 -30 174v9v10
v12q19 257 22 496l-72 6l-20 2q-5 1 -14 2t-13 2q-16 0 -24 2q-17 0 -23 2v-65q0 -15 2 -23v-20q0 -247 -30 -557z" />
    <glyph glyph-name="Adieresismacron" unicode="&#x1de;" horiz-adv-x="1669"
d="M621 1671h-66q-23 -2 -57 -2q41 73 41 139q0 36 -9 70l19 25q33 -2 104 -2q55 -3 105 -3l2 -40h86q49 0 76 2h10q1 4 3 11t3 11l16 16q16 0 49 1.5t50 1.5l129 2l-19 -41h4l-10 -15q-18 -47 -18 -84q0 -23 12 -61l2 -4h-2l10 -29l-125 2q-50 0 -112 4l-2 25h-11h-75h-76
h-12q-1 -4 -3.5 -13.5t-3.5 -13.5q-77 0 -120 -2zM1208 545q100 -314 197 -539l-152 12q-149 11 -153 11q-33 143 -51 233q-102 2 -306 2q-200 0 -309 -2q-6 -16 -51 -119q-6 -13 -27 -53t-30 -61q-40 -4 -68 -4l-78 -7l-39 -3l-39 -3l-67 -6q92 157 190.5 349.5t155 312
t158.5 340.5q123 270 209 446h196q46 -154 111 -385q98 -348 153 -524zM999 508l-49 205q-15 72 -49 205l-37 159q-23 101 -39 162l-118 -297q-91 -221 -183 -434h119h117h67h66h106z" />
    <glyph glyph-name="adieresismacron" unicode="&#x1df;" horiz-adv-x="1275"
d="M369 1554l-19 -28q10 -18 10 -43q0 -34 -43 -92q49 0 78 2h168h76h76h166q27 -2 75 -2q-30 43 -30 69q0 33 45 94q-23 0 -77.5 -1t-84.5 -1h-84q-27 -2 -76 -2q-96 0 -280 4zM352 1366l-18 -25q8 -31 8 -69q0 -66 -41 -139q34 0 57 2h66q43 2 121 2q18 89 18 168l-2 57
q-67 0 -104 2q-72 0 -105 2zM758 1362l-17 -16q-18 -70 -18 -144q0 -34 4 -63q62 -4 113 -4l125 -2q-23 67 -23 94q0 55 43 139l-129 -2q-16 0 -49 -1t-49 -1zM1036 633q6 53 6 108q0 172 -86 273q-57 55 -151 82q-71 18 -174 18q-170 0 -375 -63q-4 -29 -4 -84v-17
q-2 -8 -2 -24v-23q-2 -8 -2 -18q177 82 352 82q131 -11 213 -74q47 -50 47 -133v-15q-2 -10 -2 -22q-2 -2 -2 -8v-8h-111h-112q-182 0 -314 -66q-93 -47 -149 -158q-43 -92 -43 -207q0 -120 66 -192q82 -82 239 -82q119 0 209 33q105 40 176 119q-2 -10 -2 -21v-8v-8v-19
l-2 -75l98 -7q12 -1 48.5 -4.5t50.5 -5.5l-2 111q0 245 28 516zM750 561v-14q-2 -2 -2 -12l-5 -25q-11 -130 -61 -184q-41 -25 -94 -35q-44 -8 -101 -8q-58 0 -137 14q-26 6 -39.5 29.5t-13.5 54.5q7 92 72 137q36 18 51 23q56 16 110 16q20 2 58 2q8 0 12 2h12h138z" />
    </font>
</defs>
</svg>
