<svg xmlns="http://www.w3.org/2000/svg" viewBox="0 0 709.17 445.94"><path d="M0,438.13,173.09,0H241L414.09,438.13H307.71l-15.63-67.91H121.4l-21,67.91ZM268.65,281.87,206.74,98.56c-4.8,15.63-10.21,30.65-15,45.68s-9.62,30-14.43,44.47c-5.41,15-10.21,30-15.62,45.68C156.86,250,151.45,265.64,146,281.87Z"/><path d="M709.17,438.13H636.45V412.89C613,434.52,583,445.94,542.1,445.94c-34.86,0-61.91-9.62-82.94-29.45s-31.25-46.27-31.25-78.73c0-76.33,49.28-115.39,149-115.39h59.5c-2.4-34.86-29.45-57.7-76.32-61.3-33.66,0-69.72,11.42-109.39,32.45V126.81c42.68-16.23,81.14-24.64,115.4-24.64,95.55,0,143,49.28,143,149.65ZM608.81,281.27H574c-34.86,0-57.1,3.6-67.31,10.81-9.62,6.62-13.83,16.83-14.43,31.86,2.41,9.61,7.22,16.22,14.43,18.63,11.42,3,25.84,4.81,42.67,4.81,44.47,0,59.5-7.22,59.5-65.51Z"/></svg>