<svg xmlns="http://www.w3.org/2000/svg" viewBox="0 0 640 512"><path d="M144,333.88C144,432.38,222.76,512,320,512c52.81,0,100-23.6,132.29-60.83L174.78,233.66C156.6,263.93,144,294.65,144,333.88Zm348.52-34.83L253.42,112.12A465,465,0,0,0,274,69.22l21.25,18.57c10-17.75,15.83-43.71,24.72-65.5,23.15,56.83,44,98.1,68.2,132.66,4.2,6,7.16,8.69,10.95,14.21l46.75,34.52C467.4,234.85,485.28,263.77,492.53,299.05ZM295.28,87.79,274,69.22a462.4,462.4,0,0,0,16.72-47.09c9-30.12,50.5-28.87,58.5,0C374.2,106.28,414,157.46,445.9,203.68l-46.75-34.52c-3.79-5.52-6.75-8.21-10.95-14.21C364,120.39,343.15,79.12,320,22.29,311.11,44.08,305.29,70,295.28,87.79ZM634,471,492.53,360.42,253.42,173.49,36,3.51A16,16,0,0,0,13.51,6l-10,12.49A16,16,0,0,0,6,41L36.88,65.12l77.77,60.8,113.83,89L493.86,422.38,604,508.49A16,16,0,0,0,626.49,506l10-12.49A16,16,0,0,0,634,471Z"/></svg>